# animal_pen.obj - generated by survival_model_gen
# vertices: 170 faces: 296
mtllib survival.mtl
usemtl animal_pen
v -1.7000 0.0000 -1.6000
v 1.7000 0.0000 -1.6000
v 1.7000 3.4000 -1.6000
v -1.7000 3.4000 -1.6000
v -1.7000 0.0000 0.2000
v 1.7000 0.0000 0.2000
v 1.7000 3.4000 0.2000
v -1.7000 3.4000 0.2000
v -1.9000 3.3500 -1.8000
v 1.9000 3.3500 -1.8000
v -1.9000 3.3500 0.4000
v 1.9000 3.3500 0.4000
v -1.9000 4.2500 -0.7000
v 1.9000 4.2500 -0.7000
v -0.5000 0.4000 -0.7500
v 0.5000 0.4000 -0.7500
v 0.5000 2.0000 -0.7500
v -0.5000 2.0000 -0.7500
v -0.5000 0.4000 -0.6500
v 0.5000 0.4000 -0.6500
v 0.5000 2.0000 -0.6500
v -0.5000 2.0000 -0.6500
v -1.9000 0.0000 0.4000
v -1.9000 1.4000 0.4000
v -1.9191 0.0000 0.4588
v -1.9191 1.4000 0.4588
v -1.9691 0.0000 0.4951
v -1.9691 1.4000 0.4951
v -2.0309 0.0000 0.4951
v -2.0309 1.4000 0.4951
v -2.0809 0.0000 0.4588
v -2.0809 1.4000 0.4588
v -2.1000 0.0000 0.4000
v -2.1000 1.4000 0.4000
v -2.0809 0.0000 0.3412
v -2.0809 1.4000 0.3412
v -2.0309 0.0000 0.3049
v -2.0309 1.4000 0.3049
v -1.9691 0.0000 0.3049
v -1.9691 1.4000 0.3049
v -1.9191 0.0000 0.3412
v -1.9191 1.4000 0.3412
v -2.0000 1.4000 0.4000
v -2.0000 0.0000 0.4000
v -1.9000 0.0000 1.3000
v -1.9000 1.4000 1.3000
v -1.9191 0.0000 1.3588
v -1.9191 1.4000 1.3588
v -1.9691 0.0000 1.3951
v -1.9691 1.4000 1.3951
v -2.0309 0.0000 1.3951
v -2.0309 1.4000 1.3951
v -2.0809 0.0000 1.3588
v -2.0809 1.4000 1.3588
v -2.1000 0.0000 1.3000
v -2.1000 1.4000 1.3000
v -2.0809 0.0000 1.2412
v -2.0809 1.4000 1.2412
v -2.0309 0.0000 1.2049
v -2.0309 1.4000 1.2049
v -1.9691 0.0000 1.2049
v -1.9691 1.4000 1.2049
v -1.9191 0.0000 1.2412
v -1.9191 1.4000 1.2412
v -2.0000 1.4000 1.3000
v -2.0000 0.0000 1.3000
v -1.9000 0.0000 2.2000
v -1.9000 1.4000 2.2000
v -1.9191 0.0000 2.2588
v -1.9191 1.4000 2.2588
v -1.9691 0.0000 2.2951
v -1.9691 1.4000 2.2951
v -2.0309 0.0000 2.2951
v -2.0309 1.4000 2.2951
v -2.0809 0.0000 2.2588
v -2.0809 1.4000 2.2588
v -2.1000 0.0000 2.2000
v -2.1000 1.4000 2.2000
v -2.0809 0.0000 2.1412
v -2.0809 1.4000 2.1412
v -2.0309 0.0000 2.1049
v -2.0309 1.4000 2.1049
v -1.9691 0.0000 2.1049
v -1.9691 1.4000 2.1049
v -1.9191 0.0000 2.1412
v -1.9191 1.4000 2.1412
v -2.0000 1.4000 2.2000
v -2.0000 0.0000 2.2000
v 2.1000 0.0000 0.4000
v 2.1000 1.4000 0.4000
v 2.0809 0.0000 0.4588
v 2.0809 1.4000 0.4588
v 2.0309 0.0000 0.4951
v 2.0309 1.4000 0.4951
v 1.9691 0.0000 0.4951
v 1.9691 1.4000 0.4951
v 1.9191 0.0000 0.4588
v 1.9191 1.4000 0.4588
v 1.9000 0.0000 0.4000
v 1.9000 1.4000 0.4000
v 1.9191 0.0000 0.3412
v 1.9191 1.4000 0.3412
v 1.9691 0.0000 0.3049
v 1.9691 1.4000 0.3049
v 2.0309 0.0000 0.3049
v 2.0309 1.4000 0.3049
v 2.0809 0.0000 0.3412
v 2.0809 1.4000 0.3412
v 2.0000 1.4000 0.4000
v 2.0000 0.0000 0.4000
v 2.1000 0.0000 1.3000
v 2.1000 1.4000 1.3000
v 2.0809 0.0000 1.3588
v 2.0809 1.4000 1.3588
v 2.0309 0.0000 1.3951
v 2.0309 1.4000 1.3951
v 1.9691 0.0000 1.3951
v 1.9691 1.4000 1.3951
v 1.9191 0.0000 1.3588
v 1.9191 1.4000 1.3588
v 1.9000 0.0000 1.3000
v 1.9000 1.4000 1.3000
v 1.9191 0.0000 1.2412
v 1.9191 1.4000 1.2412
v 1.9691 0.0000 1.2049
v 1.9691 1.4000 1.2049
v 2.0309 0.0000 1.2049
v 2.0309 1.4000 1.2049
v 2.0809 0.0000 1.2412
v 2.0809 1.4000 1.2412
v 2.0000 1.4000 1.3000
v 2.0000 0.0000 1.3000
v 2.1000 0.0000 2.2000
v 2.1000 1.4000 2.2000
v 2.0809 0.0000 2.2588
v 2.0809 1.4000 2.2588
v 2.0309 0.0000 2.2951
v 2.0309 1.4000 2.2951
v 1.9691 0.0000 2.2951
v 1.9691 1.4000 2.2951
v 1.9191 0.0000 2.2588
v 1.9191 1.4000 2.2588
v 1.9000 0.0000 2.2000
v 1.9000 1.4000 2.2000
v 1.9191 0.0000 2.1412
v 1.9191 1.4000 2.1412
v 1.9691 0.0000 2.1049
v 1.9691 1.4000 2.1049
v 2.0309 0.0000 2.1049
v 2.0309 1.4000 2.1049
v 2.0809 0.0000 2.1412
v 2.0809 1.4000 2.1412
v 2.0000 1.4000 2.2000
v 2.0000 0.0000 2.2000
v -2.0000 0.8300 0.3300
v 2.0000 0.8300 0.3300
v 2.0000 0.9700 0.3300
v -2.0000 0.9700 0.3300
v -2.0000 0.8300 0.4700
v 2.0000 0.8300 0.4700
v 2.0000 0.9700 0.4700
v -2.0000 0.9700 0.4700
v -2.0000 0.4300 0.3300
v 2.0000 0.4300 0.3300
v 2.0000 0.5700 0.3300
v -2.0000 0.5700 0.3300
v -2.0000 0.4300 0.4700
v 2.0000 0.4300 0.4700
v 2.0000 0.5700 0.4700
v -2.0000 0.5700 0.4700
vn 0.2479 0.2479 0.9365
vn -0.5880 0.5880 0.5554
vn -0.2479 -0.2479 0.9365
vn 0.5880 -0.5880 0.5554
vn 0.5880 0.5880 -0.5554
vn -0.2479 0.2479 -0.9365
vn -0.5880 -0.5880 -0.5554
vn 0.2479 -0.2479 -0.9365
vn 0.0759 -0.9620 0.2624
vn -0.1506 -0.9538 0.2601
vn 0.1090 -0.9200 -0.3764
vn -0.0931 -0.9826 -0.1608
vn 0.2305 -0.9731 0.0000
vn -0.1176 -0.9931 0.0000
vn 0.0499 0.0312 0.9983
vn -0.1947 0.1217 0.9733
vn -0.0499 -0.0312 0.9983
vn 0.1947 -0.1217 0.9733
vn 0.1947 0.1217 -0.9733
vn -0.0499 0.0312 -0.9983
vn -0.1947 -0.1217 -0.9733
vn 0.0499 -0.0312 -0.9983
vn -0.9931 0.0473 -0.1076
vn -0.9931 -0.0473 0.1076
vn -0.7402 0.0473 -0.6707
vn -0.8666 -0.0473 -0.4967
vn -0.2046 0.0473 -0.9777
vn -0.4092 -0.0473 -0.9112
vn 0.4092 0.0473 -0.9112
vn 0.2046 -0.0473 -0.9777
vn 0.8666 0.0473 -0.4967
vn 0.7402 -0.0473 -0.6707
vn 0.9931 0.0473 0.1076
vn 0.9931 -0.0473 -0.1076
vn 0.7402 0.0473 0.6707
vn 0.8666 -0.0473 0.4967
vn 0.2046 0.0473 0.9777
vn 0.4092 -0.0473 0.9112
vn -0.4092 0.0473 0.9112
vn -0.2046 -0.0473 0.9777
vn -0.8666 0.0473 0.4967
vn -0.7402 -0.0473 0.6707
vn 0.0000 -1.0000 0.0000
vn 0.0000 1.0000 0.0000
vn -0.9931 0.0473 -0.1076
vn -0.9931 -0.0473 0.1076
vn -0.7402 0.0473 -0.6707
vn -0.8666 -0.0473 -0.4967
vn -0.2046 0.0473 -0.9777
vn -0.4092 -0.0473 -0.9112
vn 0.4092 0.0473 -0.9112
vn 0.2046 -0.0473 -0.9777
vn 0.8666 0.0473 -0.4967
vn 0.7402 -0.0473 -0.6707
vn 0.9931 0.0473 0.1076
vn 0.9931 -0.0473 -0.1076
vn 0.7402 0.0473 0.6707
vn 0.8666 -0.0473 0.4967
vn 0.2046 0.0473 0.9777
vn 0.4092 -0.0473 0.9112
vn -0.4092 0.0473 0.9112
vn -0.2046 -0.0473 0.9777
vn -0.8666 0.0473 0.4967
vn -0.7402 -0.0473 0.6707
vn 0.0000 -1.0000 0.0000
vn 0.0000 1.0000 0.0000
vn -0.9931 0.0473 -0.1076
vn -0.9931 -0.0473 0.1076
vn -0.7402 0.0473 -0.6707
vn -0.8666 -0.0473 -0.4967
vn -0.2046 0.0473 -0.9777
vn -0.4092 -0.0473 -0.9112
vn 0.4092 0.0473 -0.9112
vn 0.2046 -0.0473 -0.9777
vn 0.8666 0.0473 -0.4967
vn 0.7402 -0.0473 -0.6707
vn 0.9931 0.0473 0.1076
vn 0.9931 -0.0473 -0.1076
vn 0.7402 0.0473 0.6707
vn 0.8666 -0.0473 0.4967
vn 0.2046 0.0473 0.9777
vn 0.4092 -0.0473 0.9112
vn -0.4092 0.0473 0.9112
vn -0.2046 -0.0473 0.9777
vn -0.8666 0.0473 0.4967
vn -0.7402 -0.0473 0.6707
vn 0.0000 -1.0000 0.0000
vn 0.0000 1.0000 0.0000
vn -0.9931 0.0473 -0.1076
vn -0.9931 -0.0473 0.1076
vn -0.7402 0.0473 -0.6707
vn -0.8666 -0.0473 -0.4967
vn -0.2046 0.0473 -0.9777
vn -0.4092 -0.0473 -0.9112
vn 0.4092 0.0473 -0.9112
vn 0.2046 -0.0473 -0.9777
vn 0.8666 0.0473 -0.4967
vn 0.7402 -0.0473 -0.6707
vn 0.9931 0.0473 0.1076
vn 0.9931 -0.0473 -0.1076
vn 0.7402 0.0473 0.6707
vn 0.8666 -0.0473 0.4967
vn 0.2046 0.0473 0.9777
vn 0.4092 -0.0473 0.9112
vn -0.4092 0.0473 0.9112
vn -0.2046 -0.0473 0.9777
vn -0.8666 0.0473 0.4967
vn -0.7402 -0.0473 0.6707
vn 0.0000 -1.0000 0.0000
vn 0.0000 1.0000 0.0000
vn -0.9931 0.0473 -0.1076
vn -0.9931 -0.0473 0.1076
vn -0.7402 0.0473 -0.6707
vn -0.8666 -0.0473 -0.4967
vn -0.2046 0.0473 -0.9777
vn -0.4092 -0.0473 -0.9112
vn 0.4092 0.0473 -0.9112
vn 0.2046 -0.0473 -0.9777
vn 0.8666 0.0473 -0.4967
vn 0.7402 -0.0473 -0.6707
vn 0.9931 0.0473 0.1076
vn 0.9931 -0.0473 -0.1076
vn 0.7402 0.0473 0.6707
vn 0.8666 -0.0473 0.4967
vn 0.2046 0.0473 0.9777
vn 0.4092 -0.0473 0.9112
vn -0.4092 0.0473 0.9112
vn -0.2046 -0.0473 0.9777
vn -0.8666 0.0473 0.4967
vn -0.7402 -0.0473 0.6707
vn 0.0000 -1.0000 0.0000
vn 0.0000 1.0000 0.0000
vn -0.9931 0.0473 -0.1076
vn -0.9931 -0.0473 0.1076
vn -0.7402 0.0473 -0.6707
vn -0.8666 -0.0473 -0.4967
vn -0.2046 0.0473 -0.9777
vn -0.4092 -0.0473 -0.9112
vn 0.4092 0.0473 -0.9112
vn 0.2046 -0.0473 -0.9777
vn 0.8666 0.0473 -0.4967
vn 0.7402 -0.0473 -0.6707
vn 0.9931 0.0473 0.1076
vn 0.9931 -0.0473 -0.1076
vn 0.7402 0.0473 0.6707
vn 0.8666 -0.0473 0.4967
vn 0.2046 0.0473 0.9777
vn 0.4092 -0.0473 0.9112
vn -0.4092 0.0473 0.9112
vn -0.2046 -0.0473 0.9777
vn -0.8666 0.0473 0.4967
vn -0.7402 -0.0473 0.6707
vn 0.0000 -1.0000 0.0000
vn 0.0000 1.0000 0.0000
vn 0.0157 0.4472 0.8943
vn -0.0313 0.8940 0.4470
vn -0.0157 -0.4472 0.8943
vn 0.0313 -0.8940 0.4470
vn 0.0313 0.8940 -0.4470
vn -0.0157 0.4472 -0.8943
vn -0.0313 -0.8940 -0.4470
vn 0.0157 -0.4472 -0.8943
vn 0.0157 0.4472 0.8943
vn -0.0313 0.8940 0.4470
vn -0.0157 -0.4472 0.8943
vn 0.0313 -0.8940 0.4470
vn 0.0313 0.8940 -0.4470
vn -0.0157 0.4472 -0.8943
vn -0.0313 -0.8940 -0.4470
vn 0.0157 -0.4472 -0.8943
f 1//1 2//2 3//3
f 1//1 3//3 4//4
f 6//6 5//5 8//8
f 6//6 8//8 7//7
f 5//5 1//1 4//4
f 5//5 4//4 8//8
f 2//2 6//6 7//7
f 2//2 7//7 3//3
f 4//4 3//3 7//7
f 4//4 7//7 8//8
f 5//5 6//6 2//2
f 5//5 2//2 1//1
f 9//9 10//10 12//12
f 9//9 12//12 11//11
f 9//9 10//10 14//14
f 9//9 14//14 13//13
f 11//11 14//14 12//12
f 11//11 13//13 14//14
f 9//9 13//13 11//11
f 10//10 12//12 14//14
f 15//15 16//16 17//17
f 15//15 17//17 18//18
f 20//20 19//19 22//22
f 20//20 22//22 21//21
f 19//19 15//15 18//18
f 19//19 18//18 22//22
f 16//16 20//20 21//21
f 16//16 21//21 17//17
f 18//18 17//17 21//21
f 18//18 21//21 22//22
f 19//19 20//20 16//16
f 19//19 16//16 15//15
f 23//23 25//25 26//26
f 23//23 26//26 24//24
f 25//25 27//27 28//28
f 25//25 28//28 26//26
f 27//27 29//29 30//30
f 27//27 30//30 28//28
f 29//29 31//31 32//32
f 29//29 32//32 30//30
f 31//31 33//33 34//34
f 31//31 34//34 32//32
f 33//33 35//35 36//36
f 33//33 36//36 34//34
f 35//35 37//37 38//38
f 35//35 38//38 36//36
f 37//37 39//39 40//40
f 37//37 40//40 38//38
f 39//39 41//41 42//42
f 39//39 42//42 40//40
f 41//41 23//23 24//24
f 41//41 24//24 42//42
f 43//43 24//24 26//26
f 43//43 26//26 28//28
f 43//43 28//28 30//30
f 43//43 30//30 32//32
f 43//43 32//32 34//34
f 43//43 34//34 36//36
f 43//43 36//36 38//38
f 43//43 38//38 40//40
f 43//43 40//40 42//42
f 43//43 42//42 24//24
f 44//44 25//25 23//23
f 44//44 27//27 25//25
f 44//44 29//29 27//27
f 44//44 31//31 29//29
f 44//44 33//33 31//31
f 44//44 35//35 33//33
f 44//44 37//37 35//35
f 44//44 39//39 37//37
f 44//44 41//41 39//39
f 44//44 23//23 41//41
f 45//45 47//47 48//48
f 45//45 48//48 46//46
f 47//47 49//49 50//50
f 47//47 50//50 48//48
f 49//49 51//51 52//52
f 49//49 52//52 50//50
f 51//51 53//53 54//54
f 51//51 54//54 52//52
f 53//53 55//55 56//56
f 53//53 56//56 54//54
f 55//55 57//57 58//58
f 55//55 58//58 56//56
f 57//57 59//59 60//60
f 57//57 60//60 58//58
f 59//59 61//61 62//62
f 59//59 62//62 60//60
f 61//61 63//63 64//64
f 61//61 64//64 62//62
f 63//63 45//45 46//46
f 63//63 46//46 64//64
f 65//65 46//46 48//48
f 65//65 48//48 50//50
f 65//65 50//50 52//52
f 65//65 52//52 54//54
f 65//65 54//54 56//56
f 65//65 56//56 58//58
f 65//65 58//58 60//60
f 65//65 60//60 62//62
f 65//65 62//62 64//64
f 65//65 64//64 46//46
f 66//66 47//47 45//45
f 66//66 49//49 47//47
f 66//66 51//51 49//49
f 66//66 53//53 51//51
f 66//66 55//55 53//53
f 66//66 57//57 55//55
f 66//66 59//59 57//57
f 66//66 61//61 59//59
f 66//66 63//63 61//61
f 66//66 45//45 63//63
f 67//67 69//69 70//70
f 67//67 70//70 68//68
f 69//69 71//71 72//72
f 69//69 72//72 70//70
f 71//71 73//73 74//74
f 71//71 74//74 72//72
f 73//73 75//75 76//76
f 73//73 76//76 74//74
f 75//75 77//77 78//78
f 75//75 78//78 76//76
f 77//77 79//79 80//80
f 77//77 80//80 78//78
f 79//79 81//81 82//82
f 79//79 82//82 80//80
f 81//81 83//83 84//84
f 81//81 84//84 82//82
f 83//83 85//85 86//86
f 83//83 86//86 84//84
f 85//85 67//67 68//68
f 85//85 68//68 86//86
f 87//87 68//68 70//70
f 87//87 70//70 72//72
f 87//87 72//72 74//74
f 87//87 74//74 76//76
f 87//87 76//76 78//78
f 87//87 78//78 80//80
f 87//87 80//80 82//82
f 87//87 82//82 84//84
f 87//87 84//84 86//86
f 87//87 86//86 68//68
f 88//88 69//69 67//67
f 88//88 71//71 69//69
f 88//88 73//73 71//71
f 88//88 75//75 73//73
f 88//88 77//77 75//75
f 88//88 79//79 77//77
f 88//88 81//81 79//79
f 88//88 83//83 81//81
f 88//88 85//85 83//83
f 88//88 67//67 85//85
f 89//89 91//91 92//92
f 89//89 92//92 90//90
f 91//91 93//93 94//94
f 91//91 94//94 92//92
f 93//93 95//95 96//96
f 93//93 96//96 94//94
f 95//95 97//97 98//98
f 95//95 98//98 96//96
f 97//97 99//99 100//100
f 97//97 100//100 98//98
f 99//99 101//101 102//102
f 99//99 102//102 100//100
f 101//101 103//103 104//104
f 101//101 104//104 102//102
f 103//103 105//105 106//106
f 103//103 106//106 104//104
f 105//105 107//107 108//108
f 105//105 108//108 106//106
f 107//107 89//89 90//90
f 107//107 90//90 108//108
f 109//109 90//90 92//92
f 109//109 92//92 94//94
f 109//109 94//94 96//96
f 109//109 96//96 98//98
f 109//109 98//98 100//100
f 109//109 100//100 102//102
f 109//109 102//102 104//104
f 109//109 104//104 106//106
f 109//109 106//106 108//108
f 109//109 108//108 90//90
f 110//110 91//91 89//89
f 110//110 93//93 91//91
f 110//110 95//95 93//93
f 110//110 97//97 95//95
f 110//110 99//99 97//97
f 110//110 101//101 99//99
f 110//110 103//103 101//101
f 110//110 105//105 103//103
f 110//110 107//107 105//105
f 110//110 89//89 107//107
f 111//111 113//113 114//114
f 111//111 114//114 112//112
f 113//113 115//115 116//116
f 113//113 116//116 114//114
f 115//115 117//117 118//118
f 115//115 118//118 116//116
f 117//117 119//119 120//120
f 117//117 120//120 118//118
f 119//119 121//121 122//122
f 119//119 122//122 120//120
f 121//121 123//123 124//124
f 121//121 124//124 122//122
f 123//123 125//125 126//126
f 123//123 126//126 124//124
f 125//125 127//127 128//128
f 125//125 128//128 126//126
f 127//127 129//129 130//130
f 127//127 130//130 128//128
f 129//129 111//111 112//112
f 129//129 112//112 130//130
f 131//131 112//112 114//114
f 131//131 114//114 116//116
f 131//131 116//116 118//118
f 131//131 118//118 120//120
f 131//131 120//120 122//122
f 131//131 122//122 124//124
f 131//131 124//124 126//126
f 131//131 126//126 128//128
f 131//131 128//128 130//130
f 131//131 130//130 112//112
f 132//132 113//113 111//111
f 132//132 115//115 113//113
f 132//132 117//117 115//115
f 132//132 119//119 117//117
f 132//132 121//121 119//119
f 132//132 123//123 121//121
f 132//132 125//125 123//123
f 132//132 127//127 125//125
f 132//132 129//129 127//127
f 132//132 111//111 129//129
f 133//133 135//135 136//136
f 133//133 136//136 134//134
f 135//135 137//137 138//138
f 135//135 138//138 136//136
f 137//137 139//139 140//140
f 137//137 140//140 138//138
f 139//139 141//141 142//142
f 139//139 142//142 140//140
f 141//141 143//143 144//144
f 141//141 144//144 142//142
f 143//143 145//145 146//146
f 143//143 146//146 144//144
f 145//145 147//147 148//148
f 145//145 148//148 146//146
f 147//147 149//149 150//150
f 147//147 150//150 148//148
f 149//149 151//151 152//152
f 149//149 152//152 150//150
f 151//151 133//133 134//134
f 151//151 134//134 152//152
f 153//153 134//134 136//136
f 153//153 136//136 138//138
f 153//153 138//138 140//140
f 153//153 140//140 142//142
f 153//153 142//142 144//144
f 153//153 144//144 146//146
f 153//153 146//146 148//148
f 153//153 148//148 150//150
f 153//153 150//150 152//152
f 153//153 152//152 134//134
f 154//154 135//135 133//133
f 154//154 137//137 135//135
f 154//154 139//139 137//137
f 154//154 141//141 139//139
f 154//154 143//143 141//141
f 154//154 145//145 143//143
f 154//154 147//147 145//145
f 154//154 149//149 147//147
f 154//154 151//151 149//149
f 154//154 133//133 151//151
f 155//155 156//156 157//157
f 155//155 157//157 158//158
f 160//160 159//159 162//162
f 160//160 162//162 161//161
f 159//159 155//155 158//158
f 159//159 158//158 162//162
f 156//156 160//160 161//161
f 156//156 161//161 157//157
f 158//158 157//157 161//161
f 158//158 161//161 162//162
f 159//159 160//160 156//156
f 159//159 156//156 155//155
f 163//163 164//164 165//165
f 163//163 165//165 166//166
f 168//168 167//167 170//170
f 168//168 170//170 169//169
f 167//167 163//163 166//166
f 167//167 166//166 170//170
f 164//164 168//168 169//169
f 164//164 169//169 165//165
f 166//166 165//165 169//169
f 166//166 169//169 170//170
f 167//167 168//168 164//164
f 167//167 164//164 163//163
