# berry.obj - generated by survival_model_gen
# vertices: 288 faces: 512
mtllib survival.mtl
usemtl berry
v -0.5600 1.3600 0.0000
v -0.5600 1.3600 0.0000
v -0.5600 1.3600 0.0000
v -0.5600 1.3600 0.0000
v -0.5600 1.3600 0.0000
v -0.5600 1.3600 0.0000
v -0.5600 1.3600 0.0000
v -0.5600 1.3600 0.0000
v -0.5600 1.3600 0.0000
v -0.5600 1.3600 0.0000
v -0.3457 1.3174 0.0000
v -0.3866 1.3174 0.1260
v -0.4938 1.3174 0.2038
v -0.6262 1.3174 0.2038
v -0.7334 1.3174 0.1260
v -0.7743 1.3174 0.0000
v -0.7334 1.3174 -0.1260
v -0.6262 1.3174 -0.2038
v -0.4938 1.3174 -0.2038
v -0.3866 1.3174 -0.1260
v -0.1640 1.1960 0.0000
v -0.2396 1.1960 0.2328
v -0.4376 1.1960 0.3766
v -0.6824 1.1960 0.3766
v -0.8804 1.1960 0.2328
v -0.9560 1.1960 0.0000
v -0.8804 1.1960 -0.2328
v -0.6824 1.1960 -0.3766
v -0.4376 1.1960 -0.3766
v -0.2396 1.1960 -0.2328
v -0.0426 1.0143 0.0000
v -0.1414 1.0143 0.3041
v -0.4001 1.0143 0.4921
v -0.7199 1.0143 0.4921
v -0.9786 1.0143 0.3041
v -1.0774 1.0143 0.0000
v -0.9786 1.0143 -0.3041
v -0.7199 1.0143 -0.4921
v -0.4001 1.0143 -0.4921
v -0.1414 1.0143 -0.3041
v 0.0000 0.8000 0.0000
v -0.1070 0.8000 0.3292
v -0.3870 0.8000 0.5326
v -0.7330 0.8000 0.5326
v -1.0130 0.8000 0.3292
v -1.1200 0.8000 0.0000
v -1.0130 0.8000 -0.3292
v -0.7330 0.8000 -0.5326
v -0.3870 0.8000 -0.5326
v -0.1070 0.8000 -0.3292
v -0.0426 0.5857 0.0000
v -0.1414 0.5857 0.3041
v -0.4001 0.5857 0.4921
v -0.7199 0.5857 0.4921
v -0.9786 0.5857 0.3041
v -1.0774 0.5857 0.0000
v -0.9786 0.5857 -0.3041
v -0.7199 0.5857 -0.4921
v -0.4001 0.5857 -0.4921
v -0.1414 0.5857 -0.3041
v -0.1640 0.4040 0.0000
v -0.2396 0.4040 0.2328
v -0.4376 0.4040 0.3766
v -0.6824 0.4040 0.3766
v -0.8804 0.4040 0.2328
v -0.9560 0.4040 0.0000
v -0.8804 0.4040 -0.2328
v -0.6824 0.4040 -0.3766
v -0.4376 0.4040 -0.3766
v -0.2396 0.4040 -0.2328
v -0.3457 0.2826 0.0000
v -0.3866 0.2826 0.1260
v -0.4938 0.2826 0.2038
v -0.6262 0.2826 0.2038
v -0.7334 0.2826 0.1260
v -0.7743 0.2826 0.0000
v -0.7334 0.2826 -0.1260
v -0.6262 0.2826 -0.2038
v -0.4938 0.2826 -0.2038
v -0.3866 0.2826 -0.1260
v -0.5600 0.2400 0.0000
v -0.5600 0.2400 0.0000
v -0.5600 0.2400 0.0000
v -0.5600 0.2400 0.0000
v -0.5600 0.2400 0.0000
v -0.5600 0.2400 0.0000
v -0.5600 0.2400 -0.0000
v -0.5600 0.2400 -0.0000
v -0.5600 0.2400 -0.0000
v -0.5600 0.2400 -0.0000
v 0.5600 1.3600 0.2400
v 0.5600 1.3600 0.2400
v 0.5600 1.3600 0.2400
v 0.5600 1.3600 0.2400
v 0.5600 1.3600 0.2400
v 0.5600 1.3600 0.2400
v 0.5600 1.3600 0.2400
v 0.5600 1.3600 0.2400
v 0.5600 1.3600 0.2400
v 0.5600 1.3600 0.2400
v 0.7743 1.3174 0.2400
v 0.7334 1.3174 0.3660
v 0.6262 1.3174 0.4438
v 0.4938 1.3174 0.4438
v 0.3866 1.3174 0.3660
v 0.3457 1.3174 0.2400
v 0.3866 1.3174 0.1140
v 0.4938 1.3174 0.0362
v 0.6262 1.3174 0.0362
v 0.7334 1.3174 0.1140
v 0.9560 1.1960 0.2400
v 0.8804 1.1960 0.4728
v 0.6824 1.1960 0.6166
v 0.4376 1.1960 0.6166
v 0.2396 1.1960 0.4728
v 0.1640 1.1960 0.2400
v 0.2396 1.1960 0.0072
v 0.4376 1.1960 -0.1366
v 0.6824 1.1960 -0.1366
v 0.8804 1.1960 0.0072
v 1.0774 1.0143 0.2400
v 0.9786 1.0143 0.5441
v 0.7199 1.0143 0.7321
v 0.4001 1.0143 0.7321
v 0.1414 1.0143 0.5441
v 0.0426 1.0143 0.2400
v 0.1414 1.0143 -0.0641
v 0.4001 1.0143 -0.2521
v 0.7199 1.0143 -0.2521
v 0.9786 1.0143 -0.0641
v 1.1200 0.8000 0.2400
v 1.0130 0.8000 0.5692
v 0.7330 0.8000 0.7726
v 0.3870 0.8000 0.7726
v 0.1070 0.8000 0.5692
v 0.0000 0.8000 0.2400
v 0.1070 0.8000 -0.0892
v 0.3870 0.8000 -0.2926
v 0.7330 0.8000 -0.2926
v 1.0130 0.8000 -0.0892
v 1.0774 0.5857 0.2400
v 0.9786 0.5857 0.5441
v 0.7199 0.5857 0.7321
v 0.4001 0.5857 0.7321
v 0.1414 0.5857 0.5441
v 0.0426 0.5857 0.2400
v 0.1414 0.5857 -0.0641
v 0.4001 0.5857 -0.2521
v 0.7199 0.5857 -0.2521
v 0.9786 0.5857 -0.0641
v 0.9560 0.4040 0.2400
v 0.8804 0.4040 0.4728
v 0.6824 0.4040 0.6166
v 0.4376 0.4040 0.6166
v 0.2396 0.4040 0.4728
v 0.1640 0.4040 0.2400
v 0.2396 0.4040 0.0072
v 0.4376 0.4040 -0.1366
v 0.6824 0.4040 -0.1366
v 0.8804 0.4040 0.0072
v 0.7743 0.2826 0.2400
v 0.7334 0.2826 0.3660
v 0.6262 0.2826 0.4438
v 0.4938 0.2826 0.4438
v 0.3866 0.2826 0.3660
v 0.3457 0.2826 0.2400
v 0.3866 0.2826 0.1140
v 0.4938 0.2826 0.0362
v 0.6262 0.2826 0.0362
v 0.7334 0.2826 0.1140
v 0.5600 0.2400 0.2400
v 0.5600 0.2400 0.2400
v 0.5600 0.2400 0.2400
v 0.5600 0.2400 0.2400
v 0.5600 0.2400 0.2400
v 0.5600 0.2400 0.2400
v 0.5600 0.2400 0.2400
v 0.5600 0.2400 0.2400
v 0.5600 0.2400 0.2400
v 0.5600 0.2400 0.2400
v 0.0000 1.6000 -0.4000
v 0.0000 1.6000 -0.4000
v 0.0000 1.6000 -0.4000
v 0.0000 1.6000 -0.4000
v 0.0000 1.6000 -0.4000
v 0.0000 1.6000 -0.4000
v 0.0000 1.6000 -0.4000
v 0.0000 1.6000 -0.4000
v 0.0000 1.6000 -0.4000
v 0.0000 1.6000 -0.4000
v 0.1837 1.5635 -0.4000
v 0.1486 1.5635 -0.2920
v 0.0568 1.5635 -0.2253
v -0.0568 1.5635 -0.2253
v -0.1486 1.5635 -0.2920
v -0.1837 1.5635 -0.4000
v -0.1486 1.5635 -0.5080
v -0.0568 1.5635 -0.5747
v 0.0568 1.5635 -0.5747
v 0.1486 1.5635 -0.5080
v 0.3394 1.4594 -0.4000
v 0.2746 1.4594 -0.2005
v 0.1049 1.4594 -0.0772
v -0.1049 1.4594 -0.0772
v -0.2746 1.4594 -0.2005
v -0.3394 1.4594 -0.4000
v -0.2746 1.4594 -0.5995
v -0.1049 1.4594 -0.7228
v 0.1049 1.4594 -0.7228
v 0.2746 1.4594 -0.5995
v 0.4435 1.3037 -0.4000
v 0.3588 1.3037 -0.1393
v 0.1370 1.3037 0.0218
v -0.1370 1.3037 0.0218
v -0.3588 1.3037 -0.1393
v -0.4435 1.3037 -0.4000
v -0.3588 1.3037 -0.6607
v -0.1370 1.3037 -0.8218
v 0.1370 1.3037 -0.8218
v 0.3588 1.3037 -0.6607
v 0.4800 1.1200 -0.4000
v 0.3883 1.1200 -0.1179
v 0.1483 1.1200 0.0565
v -0.1483 1.1200 0.0565
v -0.3883 1.1200 -0.1179
v -0.4800 1.1200 -0.4000
v -0.3883 1.1200 -0.6821
v -0.1483 1.1200 -0.8565
v 0.1483 1.1200 -0.8565
v 0.3883 1.1200 -0.6821
v 0.4435 0.9363 -0.4000
v 0.3588 0.9363 -0.1393
v 0.1370 0.9363 0.0218
v -0.1370 0.9363 0.0218
v -0.3588 0.9363 -0.1393
v -0.4435 0.9363 -0.4000
v -0.3588 0.9363 -0.6607
v -0.1370 0.9363 -0.8218
v 0.1370 0.9363 -0.8218
v 0.3588 0.9363 -0.6607
v 0.3394 0.7806 -0.4000
v 0.2746 0.7806 -0.2005
v 0.1049 0.7806 -0.0772
v -0.1049 0.7806 -0.0772
v -0.2746 0.7806 -0.2005
v -0.3394 0.7806 -0.4000
v -0.2746 0.7806 -0.5995
v -0.1049 0.7806 -0.7228
v 0.1049 0.7806 -0.7228
v 0.2746 0.7806 -0.5995
v 0.1837 0.6765 -0.4000
v 0.1486 0.6765 -0.2920
v 0.0568 0.6765 -0.2253
v -0.0568 0.6765 -0.2253
v -0.1486 0.6765 -0.2920
v -0.1837 0.6765 -0.4000
v -0.1486 0.6765 -0.5080
v -0.0568 0.6765 -0.5747
v 0.0568 0.6765 -0.5747
v 0.1486 0.6765 -0.5080
v 0.0000 0.6400 -0.4000
v 0.0000 0.6400 -0.4000
v 0.0000 0.6400 -0.4000
v -0.0000 0.6400 -0.4000
v -0.0000 0.6400 -0.4000
v -0.0000 0.6400 -0.4000
v -0.0000 0.6400 -0.4000
v -0.0000 0.6400 -0.4000
v 0.0000 0.6400 -0.4000
v 0.0000 0.6400 -0.4000
v 0.2000 -0.0400 0.0000
v 0.2000 0.3600 0.0000
v 0.1414 -0.0400 0.1414
v 0.1414 0.3600 0.1414
v 0.0000 -0.0400 0.2000
v 0.0000 0.3600 0.2000
v -0.1414 -0.0400 0.1414
v -0.1414 0.3600 0.1414
v -0.2000 -0.0400 0.0000
v -0.2000 0.3600 0.0000
v -0.1414 -0.0400 -0.1414
v -0.1414 0.3600 -0.1414
v -0.0000 -0.0400 -0.2000
v -0.0000 0.3600 -0.2000
v 0.1414 -0.0400 -0.1414
v 0.1414 0.3600 -0.1414
v 0.0000 0.3600 0.0000
v 0.0000 -0.0400 0.0000
vn 0.1947 0.9788 0.0633
vn 0.1203 0.9788 0.1656
vn 0.0000 0.9788 0.2047
vn -0.1203 0.9788 0.1656
vn -0.1947 0.9788 0.0633
vn -0.1947 0.9788 -0.0633
vn -0.1203 0.9788 -0.1656
vn 0.0000 0.9788 -0.2047
vn 0.1203 0.9788 -0.1656
vn 0.1947 0.9788 -0.0633
vn 0.4391 0.8965 0.0579
vn 0.3212 0.8965 0.3050
vn 0.0806 0.8965 0.4356
vn -0.1908 0.8965 0.3997
vn -0.3893 0.8965 0.2112
vn -0.4391 0.8965 -0.0579
vn -0.3212 0.8965 -0.3050
vn -0.0806 0.8965 -0.4356
vn 0.1908 0.8965 -0.3997
vn 0.3893 0.8965 -0.2112
vn 0.7246 0.6878 0.0445
vn 0.5600 0.6878 0.4618
vn 0.1816 0.6878 0.7028
vn -0.2662 0.6878 0.6754
vn -0.6123 0.6878 0.3899
vn -0.7246 0.6878 -0.0445
vn -0.5600 0.6878 -0.4618
vn -0.1816 0.6878 -0.7028
vn 0.2662 0.6878 -0.6754
vn 0.6123 0.6878 -0.3899
vn 0.9277 0.3726 0.0241
vn 0.7364 0.3726 0.5648
vn 0.2638 0.3726 0.8897
vn -0.3096 0.3726 0.8748
vn -0.7647 0.3726 0.5258
vn -0.9277 0.3726 -0.0241
vn -0.7364 0.3726 -0.5648
vn -0.2638 0.3726 -0.8897
vn 0.3096 0.3726 -0.8748
vn 0.7647 0.3726 -0.5258
vn 1.0000 0.0000 -0.0000
vn 0.8090 0.0000 0.5878
vn 0.3090 -0.0000 0.9511
vn -0.3090 -0.0000 0.9511
vn -0.8090 0.0000 0.5878
vn -1.0000 0.0000 0.0000
vn -0.8090 -0.0000 -0.5878
vn -0.3090 -0.0000 -0.9511
vn 0.3090 -0.0000 -0.9511
vn 0.8090 0.0000 -0.5878
vn 0.9277 -0.3726 -0.0241
vn 0.7647 -0.3726 0.5258
vn 0.3096 -0.3726 0.8748
vn -0.2638 -0.3726 0.8897
vn -0.7364 -0.3726 0.5648
vn -0.9277 -0.3726 0.0241
vn -0.7647 -0.3726 -0.5258
vn -0.3096 -0.3726 -0.8748
vn 0.2638 -0.3726 -0.8897
vn 0.7364 -0.3726 -0.5648
vn 0.7246 -0.6878 -0.0445
vn 0.6123 -0.6878 0.3899
vn 0.2662 -0.6878 0.6754
vn -0.1816 -0.6878 0.7028
vn -0.5600 -0.6878 0.4618
vn -0.7246 -0.6878 0.0445
vn -0.6123 -0.6878 -0.3899
vn -0.2662 -0.6878 -0.6754
vn 0.1816 -0.6878 -0.7028
vn 0.5600 -0.6878 -0.4618
vn 0.4391 -0.8965 -0.0579
vn 0.3893 -0.8965 0.2112
vn 0.1908 -0.8965 0.3997
vn -0.0806 -0.8965 0.4356
vn -0.3212 -0.8965 0.3050
vn -0.4391 -0.8965 0.0579
vn -0.3893 -0.8965 -0.2112
vn -0.1908 -0.8965 -0.3997
vn 0.0806 -0.8965 -0.4356
vn 0.3212 -0.8965 -0.3050
vn 0.1947 -0.9788 -0.0633
vn 0.1947 -0.9788 0.0633
vn 0.1203 -0.9788 0.1656
vn -0.0000 -0.9788 0.2047
vn -0.1203 -0.9788 0.1656
vn -0.1947 -0.9788 0.0633
vn -0.1947 -0.9788 -0.0633
vn -0.1203 -0.9788 -0.1656
vn 0.0000 -0.9788 -0.2047
vn 0.1203 -0.9788 -0.1656
vn 0.0000 1.0000 0.0000
vn 0.0000 1.0000 0.0000
vn 0.0000 1.0000 0.0000
vn 0.0000 1.0000 0.0000
vn 0.0000 1.0000 0.0000
vn 0.0000 1.0000 0.0000
vn 0.0000 1.0000 0.0000
vn 0.0000 1.0000 0.0000
vn 0.0000 1.0000 0.0000
vn 0.0000 1.0000 0.0000
vn 0.0000 1.0000 0.0000
vn 0.0000 1.0000 0.0000
vn 0.0000 1.0000 0.0000
vn 0.0000 1.0000 0.0000
vn 0.0000 1.0000 0.0000
vn 0.0000 1.0000 0.0000
vn 0.0000 1.0000 0.0000
vn 0.0000 1.0000 0.0000
vn 0.0000 1.0000 0.0000
vn 0.0000 1.0000 0.0000
vn 0.0000 1.0000 0.0000
vn 0.0000 1.0000 0.0000
vn 0.0000 1.0000 0.0000
vn 0.0000 1.0000 0.0000
vn 0.0000 1.0000 0.0000
vn 0.0000 1.0000 0.0000
vn 0.0000 1.0000 0.0000
vn 0.0000 1.0000 0.0000
vn 0.0000 1.0000 0.0000
vn 0.0000 1.0000 0.0000
vn 0.0000 1.0000 0.0000
vn 0.0000 1.0000 0.0000
vn 0.0000 1.0000 0.0000
vn 0.0000 1.0000 0.0000
vn 0.0000 1.0000 0.0000
vn 0.0000 1.0000 0.0000
vn 0.0000 1.0000 0.0000
vn 0.0000 1.0000 0.0000
vn 0.0000 1.0000 0.0000
vn 0.0000 1.0000 0.0000
vn 0.0000 1.0000 0.0000
vn 0.0000 1.0000 0.0000
vn 0.0000 1.0000 0.0000
vn 0.0000 1.0000 0.0000
vn 0.0000 1.0000 0.0000
vn 0.0000 1.0000 0.0000
vn 0.0000 1.0000 0.0000
vn 0.0000 1.0000 0.0000
vn 0.0000 1.0000 0.0000
vn 0.0000 1.0000 0.0000
vn 0.0000 1.0000 0.0000
vn 0.0000 1.0000 0.0000
vn 0.0000 1.0000 0.0000
vn 0.0000 1.0000 0.0000
vn 0.0000 1.0000 0.0000
vn 0.0000 1.0000 0.0000
vn 0.0000 1.0000 0.0000
vn 0.0000 1.0000 0.0000
vn 0.0000 1.0000 0.0000
vn 0.0000 1.0000 0.0000
vn 0.0000 1.0000 0.0000
vn 0.0000 1.0000 0.0000
vn 0.0000 1.0000 0.0000
vn 0.0000 1.0000 0.0000
vn 0.0000 1.0000 0.0000
vn 0.0000 1.0000 0.0000
vn 0.0000 1.0000 0.0000
vn 0.0000 1.0000 0.0000
vn 0.0000 1.0000 0.0000
vn 0.0000 1.0000 0.0000
vn 0.0000 1.0000 0.0000
vn 0.0000 1.0000 0.0000
vn 0.0000 1.0000 0.0000
vn 0.0000 1.0000 0.0000
vn 0.0000 1.0000 0.0000
vn 0.0000 1.0000 0.0000
vn 0.0000 1.0000 0.0000
vn 0.0000 1.0000 0.0000
vn 0.0000 1.0000 0.0000
vn 0.0000 1.0000 0.0000
vn 0.0000 1.0000 0.0000
vn 0.0000 1.0000 0.0000
vn 0.0000 1.0000 0.0000
vn 0.0000 1.0000 0.0000
vn 0.0000 1.0000 0.0000
vn 0.0000 1.0000 0.0000
vn 0.0000 1.0000 0.0000
vn 0.0000 1.0000 0.0000
vn 0.0000 1.0000 0.0000
vn 0.0000 1.0000 0.0000
vn 0.0000 1.0000 0.0000
vn 0.0000 1.0000 0.0000
vn 0.0000 1.0000 0.0000
vn 0.0000 1.0000 0.0000
vn 0.0000 1.0000 0.0000
vn 0.0000 1.0000 0.0000
vn 0.0000 1.0000 0.0000
vn 0.0000 1.0000 0.0000
vn 0.0000 1.0000 0.0000
vn 0.0000 1.0000 0.0000
vn 0.0000 1.0000 0.0000
vn 0.0000 1.0000 0.0000
vn 0.0000 1.0000 0.0000
vn 0.0000 1.0000 0.0000
vn 0.0000 1.0000 0.0000
vn 0.0000 1.0000 0.0000
vn 0.0000 1.0000 0.0000
vn 0.0000 1.0000 0.0000
vn 0.0000 1.0000 0.0000
vn 0.0000 1.0000 0.0000
vn 0.0000 1.0000 0.0000
vn 0.0000 1.0000 0.0000
vn 0.0000 1.0000 0.0000
vn 0.0000 1.0000 0.0000
vn 0.0000 1.0000 0.0000
vn 0.0000 1.0000 0.0000
vn 0.0000 1.0000 0.0000
vn 0.0000 1.0000 0.0000
vn 0.0000 1.0000 0.0000
vn 0.0000 1.0000 0.0000
vn 0.0000 1.0000 0.0000
vn 0.0000 1.0000 0.0000
vn 0.0000 1.0000 0.0000
vn 0.0000 1.0000 0.0000
vn 0.0000 1.0000 0.0000
vn 0.0000 1.0000 0.0000
vn 0.0000 1.0000 0.0000
vn 0.0000 1.0000 0.0000
vn 0.0000 1.0000 0.0000
vn 0.0000 1.0000 0.0000
vn 0.0000 1.0000 0.0000
vn 0.0000 1.0000 0.0000
vn 0.0000 1.0000 0.0000
vn 0.0000 1.0000 0.0000
vn 0.0000 1.0000 0.0000
vn 0.0000 1.0000 0.0000
vn 0.0000 1.0000 0.0000
vn 0.0000 1.0000 0.0000
vn 0.0000 1.0000 0.0000
vn 0.0000 1.0000 0.0000
vn 0.0000 1.0000 0.0000
vn 0.0000 1.0000 0.0000
vn 0.0000 1.0000 0.0000
vn 0.0000 1.0000 0.0000
vn 0.0000 1.0000 0.0000
vn 0.0000 1.0000 0.0000
vn 0.0000 1.0000 0.0000
vn 0.0000 1.0000 0.0000
vn 0.0000 1.0000 0.0000
vn 0.0000 1.0000 0.0000
vn 0.0000 1.0000 0.0000
vn 0.0000 1.0000 0.0000
vn 0.0000 1.0000 0.0000
vn 0.0000 1.0000 0.0000
vn 0.0000 1.0000 0.0000
vn 0.0000 1.0000 0.0000
vn 0.0000 1.0000 0.0000
vn 0.0000 1.0000 0.0000
vn 0.0000 1.0000 0.0000
vn 0.0000 1.0000 0.0000
vn 0.0000 1.0000 0.0000
vn 0.0000 1.0000 0.0000
vn 0.0000 1.0000 0.0000
vn 0.0000 1.0000 0.0000
vn 0.0000 1.0000 0.0000
vn 0.0000 1.0000 0.0000
vn 0.0000 1.0000 0.0000
vn 0.0000 1.0000 0.0000
vn 0.0000 1.0000 0.0000
vn 0.0000 1.0000 0.0000
vn 0.0000 1.0000 0.0000
vn 0.0000 1.0000 0.0000
vn 0.0000 1.0000 0.0000
vn 0.0000 1.0000 0.0000
vn 0.0000 1.0000 0.0000
vn 0.0000 1.0000 0.0000
vn 0.0000 1.0000 0.0000
vn 0.0000 1.0000 0.0000
vn 0.0000 1.0000 0.0000
vn 0.0000 1.0000 0.0000
vn -0.9406 0.3135 -0.1299
vn -0.9406 -0.3135 0.1299
vn -0.5733 0.3135 -0.7570
vn -0.7570 -0.3135 -0.5733
vn 0.1299 0.3135 -0.9406
vn -0.1299 -0.3135 -0.9406
vn 0.7570 0.3135 -0.5733
vn 0.5733 -0.3135 -0.7570
vn 0.9406 0.3135 0.1299
vn 0.9406 -0.3135 -0.1299
vn 0.5733 0.3135 0.7570
vn 0.7570 -0.3135 0.5733
vn -0.1299 0.3135 0.9406
vn 0.1299 -0.3135 0.9406
vn -0.7570 0.3135 0.5733
vn -0.5733 -0.3135 0.7570
vn 0.0000 -1.0000 0.0000
vn 0.0000 1.0000 0.0000
f 1//1 2//2 12//12
f 1//1 12//12 11//11
f 2//2 3//3 13//13
f 2//2 13//13 12//12
f 3//3 4//4 14//14
f 3//3 14//14 13//13
f 4//4 5//5 15//15
f 4//4 15//15 14//14
f 5//5 6//6 16//16
f 5//5 16//16 15//15
f 6//6 7//7 17//17
f 6//6 17//17 16//16
f 7//7 8//8 18//18
f 7//7 18//18 17//17
f 8//8 9//9 19//19
f 8//8 19//19 18//18
f 9//9 10//10 20//20
f 9//9 20//20 19//19
f 10//10 1//1 11//11
f 10//10 11//11 20//20
f 11//11 12//12 22//22
f 11//11 22//22 21//21
f 12//12 13//13 23//23
f 12//12 23//23 22//22
f 13//13 14//14 24//24
f 13//13 24//24 23//23
f 14//14 15//15 25//25
f 14//14 25//25 24//24
f 15//15 16//16 26//26
f 15//15 26//26 25//25
f 16//16 17//17 27//27
f 16//16 27//27 26//26
f 17//17 18//18 28//28
f 17//17 28//28 27//27
f 18//18 19//19 29//29
f 18//18 29//29 28//28
f 19//19 20//20 30//30
f 19//19 30//30 29//29
f 20//20 11//11 21//21
f 20//20 21//21 30//30
f 21//21 22//22 32//32
f 21//21 32//32 31//31
f 22//22 23//23 33//33
f 22//22 33//33 32//32
f 23//23 24//24 34//34
f 23//23 34//34 33//33
f 24//24 25//25 35//35
f 24//24 35//35 34//34
f 25//25 26//26 36//36
f 25//25 36//36 35//35
f 26//26 27//27 37//37
f 26//26 37//37 36//36
f 27//27 28//28 38//38
f 27//27 38//38 37//37
f 28//28 29//29 39//39
f 28//28 39//39 38//38
f 29//29 30//30 40//40
f 29//29 40//40 39//39
f 30//30 21//21 31//31
f 30//30 31//31 40//40
f 31//31 32//32 42//42
f 31//31 42//42 41//41
f 32//32 33//33 43//43
f 32//32 43//43 42//42
f 33//33 34//34 44//44
f 33//33 44//44 43//43
f 34//34 35//35 45//45
f 34//34 45//45 44//44
f 35//35 36//36 46//46
f 35//35 46//46 45//45
f 36//36 37//37 47//47
f 36//36 47//47 46//46
f 37//37 38//38 48//48
f 37//37 48//48 47//47
f 38//38 39//39 49//49
f 38//38 49//49 48//48
f 39//39 40//40 50//50
f 39//39 50//50 49//49
f 40//40 31//31 41//41
f 40//40 41//41 50//50
f 41//41 42//42 52//52
f 41//41 52//52 51//51
f 42//42 43//43 53//53
f 42//42 53//53 52//52
f 43//43 44//44 54//54
f 43//43 54//54 53//53
f 44//44 45//45 55//55
f 44//44 55//55 54//54
f 45//45 46//46 56//56
f 45//45 56//56 55//55
f 46//46 47//47 57//57
f 46//46 57//57 56//56
f 47//47 48//48 58//58
f 47//47 58//58 57//57
f 48//48 49//49 59//59
f 48//48 59//59 58//58
f 49//49 50//50 60//60
f 49//49 60//60 59//59
f 50//50 41//41 51//51
f 50//50 51//51 60//60
f 51//51 52//52 62//62
f 51//51 62//62 61//61
f 52//52 53//53 63//63
f 52//52 63//63 62//62
f 53//53 54//54 64//64
f 53//53 64//64 63//63
f 54//54 55//55 65//65
f 54//54 65//65 64//64
f 55//55 56//56 66//66
f 55//55 66//66 65//65
f 56//56 57//57 67//67
f 56//56 67//67 66//66
f 57//57 58//58 68//68
f 57//57 68//68 67//67
f 58//58 59//59 69//69
f 58//58 69//69 68//68
f 59//59 60//60 70//70
f 59//59 70//70 69//69
f 60//60 51//51 61//61
f 60//60 61//61 70//70
f 61//61 62//62 72//72
f 61//61 72//72 71//71
f 62//62 63//63 73//73
f 62//62 73//73 72//72
f 63//63 64//64 74//74
f 63//63 74//74 73//73
f 64//64 65//65 75//75
f 64//64 75//75 74//74
f 65//65 66//66 76//76
f 65//65 76//76 75//75
f 66//66 67//67 77//77
f 66//66 77//77 76//76
f 67//67 68//68 78//78
f 67//67 78//78 77//77
f 68//68 69//69 79//79
f 68//68 79//79 78//78
f 69//69 70//70 80//80
f 69//69 80//80 79//79
f 70//70 61//61 71//71
f 70//70 71//71 80//80
f 71//71 72//72 82//82
f 71//71 82//82 81//81
f 72//72 73//73 83//83
f 72//72 83//83 82//82
f 73//73 74//74 84//84
f 73//73 84//84 83//83
f 74//74 75//75 85//85
f 74//74 85//85 84//84
f 75//75 76//76 86//86
f 75//75 86//86 85//85
f 76//76 77//77 87//87
f 76//76 87//87 86//86
f 77//77 78//78 88//88
f 77//77 88//88 87//87
f 78//78 79//79 89//89
f 78//78 89//89 88//88
f 79//79 80//80 90//90
f 79//79 90//90 89//89
f 80//80 71//71 81//81
f 80//80 81//81 90//90
f 1//1 2//2 12//12
f 1//1 12//12 11//11
f 2//2 3//3 13//13
f 2//2 13//13 12//12
f 3//3 4//4 14//14
f 3//3 14//14 13//13
f 4//4 5//5 15//15
f 4//4 15//15 14//14
f 5//5 6//6 16//16
f 5//5 16//16 15//15
f 6//6 7//7 17//17
f 6//6 17//17 16//16
f 7//7 8//8 18//18
f 7//7 18//18 17//17
f 8//8 9//9 19//19
f 8//8 19//19 18//18
f 9//9 10//10 20//20
f 9//9 20//20 19//19
f 10//10 1//1 11//11
f 10//10 11//11 20//20
f 11//11 12//12 22//22
f 11//11 22//22 21//21
f 12//12 13//13 23//23
f 12//12 23//23 22//22
f 13//13 14//14 24//24
f 13//13 24//24 23//23
f 14//14 15//15 25//25
f 14//14 25//25 24//24
f 15//15 16//16 26//26
f 15//15 26//26 25//25
f 16//16 17//17 27//27
f 16//16 27//27 26//26
f 17//17 18//18 28//28
f 17//17 28//28 27//27
f 18//18 19//19 29//29
f 18//18 29//29 28//28
f 19//19 20//20 30//30
f 19//19 30//30 29//29
f 20//20 11//11 21//21
f 20//20 21//21 30//30
f 21//21 22//22 32//32
f 21//21 32//32 31//31
f 22//22 23//23 33//33
f 22//22 33//33 32//32
f 23//23 24//24 34//34
f 23//23 34//34 33//33
f 24//24 25//25 35//35
f 24//24 35//35 34//34
f 25//25 26//26 36//36
f 25//25 36//36 35//35
f 26//26 27//27 37//37
f 26//26 37//37 36//36
f 27//27 28//28 38//38
f 27//27 38//38 37//37
f 28//28 29//29 39//39
f 28//28 39//39 38//38
f 29//29 30//30 40//40
f 29//29 40//40 39//39
f 30//30 21//21 31//31
f 30//30 31//31 40//40
f 31//31 32//32 42//42
f 31//31 42//42 41//41
f 32//32 33//33 43//43
f 32//32 43//43 42//42
f 33//33 34//34 44//44
f 33//33 44//44 43//43
f 34//34 35//35 45//45
f 34//34 45//45 44//44
f 35//35 36//36 46//46
f 35//35 46//46 45//45
f 36//36 37//37 47//47
f 36//36 47//47 46//46
f 37//37 38//38 48//48
f 37//37 48//48 47//47
f 38//38 39//39 49//49
f 38//38 49//49 48//48
f 39//39 40//40 50//50
f 39//39 50//50 49//49
f 40//40 31//31 41//41
f 40//40 41//41 50//50
f 41//41 42//42 52//52
f 41//41 52//52 51//51
f 42//42 43//43 53//53
f 42//42 53//53 52//52
f 43//43 44//44 54//54
f 43//43 54//54 53//53
f 44//44 45//45 55//55
f 44//44 55//55 54//54
f 45//45 46//46 56//56
f 45//45 56//56 55//55
f 46//46 47//47 57//57
f 46//46 57//57 56//56
f 47//47 48//48 58//58
f 47//47 58//58 57//57
f 48//48 49//49 59//59
f 48//48 59//59 58//58
f 49//49 50//50 60//60
f 49//49 60//60 59//59
f 50//50 41//41 51//51
f 50//50 51//51 60//60
f 51//51 52//52 62//62
f 51//51 62//62 61//61
f 52//52 53//53 63//63
f 52//52 63//63 62//62
f 53//53 54//54 64//64
f 53//53 64//64 63//63
f 54//54 55//55 65//65
f 54//54 65//65 64//64
f 55//55 56//56 66//66
f 55//55 66//66 65//65
f 56//56 57//57 67//67
f 56//56 67//67 66//66
f 57//57 58//58 68//68
f 57//57 68//68 67//67
f 58//58 59//59 69//69
f 58//58 69//69 68//68
f 59//59 60//60 70//70
f 59//59 70//70 69//69
f 60//60 51//51 61//61
f 60//60 61//61 70//70
f 61//61 62//62 72//72
f 61//61 72//72 71//71
f 62//62 63//63 73//73
f 62//62 73//73 72//72
f 63//63 64//64 74//74
f 63//63 74//74 73//73
f 64//64 65//65 75//75
f 64//64 75//75 74//74
f 65//65 66//66 76//76
f 65//65 76//76 75//75
f 66//66 67//67 77//77
f 66//66 77//77 76//76
f 67//67 68//68 78//78
f 67//67 78//78 77//77
f 68//68 69//69 79//79
f 68//68 79//79 78//78
f 69//69 70//70 80//80
f 69//69 80//80 79//79
f 70//70 61//61 71//71
f 70//70 71//71 80//80
f 71//71 72//72 82//82
f 71//71 82//82 81//81
f 72//72 73//73 83//83
f 72//72 83//83 82//82
f 73//73 74//74 84//84
f 73//73 84//84 83//83
f 74//74 75//75 85//85
f 74//74 85//85 84//84
f 75//75 76//76 86//86
f 75//75 86//86 85//85
f 76//76 77//77 87//87
f 76//76 87//87 86//86
f 77//77 78//78 88//88
f 77//77 88//88 87//87
f 78//78 79//79 89//89
f 78//78 89//89 88//88
f 79//79 80//80 90//90
f 79//79 90//90 89//89
f 80//80 71//71 81//81
f 80//80 81//81 90//90
f 1//1 2//2 12//12
f 1//1 12//12 11//11
f 2//2 3//3 13//13
f 2//2 13//13 12//12
f 3//3 4//4 14//14
f 3//3 14//14 13//13
f 4//4 5//5 15//15
f 4//4 15//15 14//14
f 5//5 6//6 16//16
f 5//5 16//16 15//15
f 6//6 7//7 17//17
f 6//6 17//17 16//16
f 7//7 8//8 18//18
f 7//7 18//18 17//17
f 8//8 9//9 19//19
f 8//8 19//19 18//18
f 9//9 10//10 20//20
f 9//9 20//20 19//19
f 10//10 1//1 11//11
f 10//10 11//11 20//20
f 11//11 12//12 22//22
f 11//11 22//22 21//21
f 12//12 13//13 23//23
f 12//12 23//23 22//22
f 13//13 14//14 24//24
f 13//13 24//24 23//23
f 14//14 15//15 25//25
f 14//14 25//25 24//24
f 15//15 16//16 26//26
f 15//15 26//26 25//25
f 16//16 17//17 27//27
f 16//16 27//27 26//26
f 17//17 18//18 28//28
f 17//17 28//28 27//27
f 18//18 19//19 29//29
f 18//18 29//29 28//28
f 19//19 20//20 30//30
f 19//19 30//30 29//29
f 20//20 11//11 21//21
f 20//20 21//21 30//30
f 21//21 22//22 32//32
f 21//21 32//32 31//31
f 22//22 23//23 33//33
f 22//22 33//33 32//32
f 23//23 24//24 34//34
f 23//23 34//34 33//33
f 24//24 25//25 35//35
f 24//24 35//35 34//34
f 25//25 26//26 36//36
f 25//25 36//36 35//35
f 26//26 27//27 37//37
f 26//26 37//37 36//36
f 27//27 28//28 38//38
f 27//27 38//38 37//37
f 28//28 29//29 39//39
f 28//28 39//39 38//38
f 29//29 30//30 40//40
f 29//29 40//40 39//39
f 30//30 21//21 31//31
f 30//30 31//31 40//40
f 31//31 32//32 42//42
f 31//31 42//42 41//41
f 32//32 33//33 43//43
f 32//32 43//43 42//42
f 33//33 34//34 44//44
f 33//33 44//44 43//43
f 34//34 35//35 45//45
f 34//34 45//45 44//44
f 35//35 36//36 46//46
f 35//35 46//46 45//45
f 36//36 37//37 47//47
f 36//36 47//47 46//46
f 37//37 38//38 48//48
f 37//37 48//48 47//47
f 38//38 39//39 49//49
f 38//38 49//49 48//48
f 39//39 40//40 50//50
f 39//39 50//50 49//49
f 40//40 31//31 41//41
f 40//40 41//41 50//50
f 41//41 42//42 52//52
f 41//41 52//52 51//51
f 42//42 43//43 53//53
f 42//42 53//53 52//52
f 43//43 44//44 54//54
f 43//43 54//54 53//53
f 44//44 45//45 55//55
f 44//44 55//55 54//54
f 45//45 46//46 56//56
f 45//45 56//56 55//55
f 46//46 47//47 57//57
f 46//46 57//57 56//56
f 47//47 48//48 58//58
f 47//47 58//58 57//57
f 48//48 49//49 59//59
f 48//48 59//59 58//58
f 49//49 50//50 60//60
f 49//49 60//60 59//59
f 50//50 41//41 51//51
f 50//50 51//51 60//60
f 51//51 52//52 62//62
f 51//51 62//62 61//61
f 52//52 53//53 63//63
f 52//52 63//63 62//62
f 53//53 54//54 64//64
f 53//53 64//64 63//63
f 54//54 55//55 65//65
f 54//54 65//65 64//64
f 55//55 56//56 66//66
f 55//55 66//66 65//65
f 56//56 57//57 67//67
f 56//56 67//67 66//66
f 57//57 58//58 68//68
f 57//57 68//68 67//67
f 58//58 59//59 69//69
f 58//58 69//69 68//68
f 59//59 60//60 70//70
f 59//59 70//70 69//69
f 60//60 51//51 61//61
f 60//60 61//61 70//70
f 61//61 62//62 72//72
f 61//61 72//72 71//71
f 62//62 63//63 73//73
f 62//62 73//73 72//72
f 63//63 64//64 74//74
f 63//63 74//74 73//73
f 64//64 65//65 75//75
f 64//64 75//75 74//74
f 65//65 66//66 76//76
f 65//65 76//76 75//75
f 66//66 67//67 77//77
f 66//66 77//77 76//76
f 67//67 68//68 78//78
f 67//67 78//78 77//77
f 68//68 69//69 79//79
f 68//68 79//79 78//78
f 69//69 70//70 80//80
f 69//69 80//80 79//79
f 70//70 61//61 71//71
f 70//70 71//71 80//80
f 71//71 72//72 82//82
f 71//71 82//82 81//81
f 72//72 73//73 83//83
f 72//72 83//83 82//82
f 73//73 74//74 84//84
f 73//73 84//84 83//83
f 74//74 75//75 85//85
f 74//74 85//85 84//84
f 75//75 76//76 86//86
f 75//75 86//86 85//85
f 76//76 77//77 87//87
f 76//76 87//87 86//86
f 77//77 78//78 88//88
f 77//77 88//88 87//87
f 78//78 79//79 89//89
f 78//78 89//89 88//88
f 79//79 80//80 90//90
f 79//79 90//90 89//89
f 80//80 71//71 81//81
f 80//80 81//81 90//90
f 271//271 273//273 274//274
f 271//271 274//274 272//272
f 273//273 275//275 276//276
f 273//273 276//276 274//274
f 275//275 277//277 278//278
f 275//275 278//278 276//276
f 277//277 279//279 280//280
f 277//277 280//280 278//278
f 279//279 281//281 282//282
f 279//279 282//282 280//280
f 281//281 283//283 284//284
f 281//281 284//284 282//282
f 283//283 285//285 286//286
f 283//283 286//286 284//284
f 285//285 271//271 272//272
f 285//285 272//272 286//286
f 287//287 272//272 274//274
f 287//287 274//274 276//276
f 287//287 276//276 278//278
f 287//287 278//278 280//280
f 287//287 280//280 282//282
f 287//287 282//282 284//284
f 287//287 284//284 286//286
f 287//287 286//286 272//272
f 288//288 273//273 271//271
f 288//288 275//275 273//273
f 288//288 277//277 275//275
f 288//288 279//279 277//277
f 288//288 281//281 279//279
f 288//288 283//283 281//281
f 288//288 285//285 283//283
f 288//288 271//271 285//285
