# clue_map.obj - generated by survival_model_gen
# vertices: 20 faces: 26
mtllib survival.mtl
usemtl clue_map
v -1.8000 0.1600 -1.4000
v 1.8000 0.1600 -1.4000
v 1.8000 0.1600 1.4000
v -1.8000 0.1600 1.4000
v -1.8000 0.0000 -1.4000
v -1.4000 0.0000 -1.4000
v -1.4000 0.8000 -1.4000
v -1.8000 0.8000 -1.4000
v -1.8000 0.0000 1.4000
v -1.4000 0.0000 1.4000
v -1.4000 0.8000 1.4000
v -1.8000 0.8000 1.4000
v 1.4000 0.0000 -1.4000
v 1.8000 0.0000 -1.4000
v 1.8000 0.8000 -1.4000
v 1.4000 0.8000 -1.4000
v 1.4000 0.0000 1.4000
v 1.8000 0.0000 1.4000
v 1.8000 0.8000 1.4000
v 1.4000 0.8000 1.4000
vn 0.0000 -1.0000 0.0000
vn 0.0000 -1.0000 0.0000
vn 0.0000 -1.0000 0.0000
vn 0.0000 -1.0000 0.0000
vn 0.8666 0.4333 0.2476
vn -0.8926 0.4463 0.0638
vn -0.8666 -0.4333 0.2476
vn 0.8926 -0.4463 0.0638
vn 0.8926 0.4463 -0.0638
vn -0.8666 0.4333 -0.2476
vn -0.8926 -0.4463 -0.0638
vn 0.8666 -0.4333 -0.2476
vn 0.8666 0.4333 0.2476
vn -0.8926 0.4463 0.0638
vn -0.8666 -0.4333 0.2476
vn 0.8926 -0.4463 0.0638
vn 0.8926 0.4463 -0.0638
vn -0.8666 0.4333 -0.2476
vn -0.8926 -0.4463 -0.0638
vn 0.8666 -0.4333 -0.2476
f 1//1 2//2 3//3
f 1//1 3//3 4//4
f 5//5 6//6 7//7
f 5//5 7//7 8//8
f 10//10 9//9 12//12
f 10//10 12//12 11//11
f 9//9 5//5 8//8
f 9//9 8//8 12//12
f 6//6 10//10 11//11
f 6//6 11//11 7//7
f 8//8 7//7 11//11
f 8//8 11//11 12//12
f 9//9 10//10 6//6
f 9//9 6//6 5//5
f 13//13 14//14 15//15
f 13//13 15//15 16//16
f 18//18 17//17 20//20
f 18//18 20//20 19//19
f 17//17 13//13 16//16
f 17//17 16//16 20//20
f 14//14 18//18 19//19
f 14//14 19//19 15//15
f 16//16 15//15 19//19
f 16//16 19//19 20//20
f 17//17 18//18 14//14
f 17//17 14//14 13//13
