# cooked_meat.obj - generated by survival_model_gen
# vertices: 42 faces: 72
mtllib survival.mtl
usemtl cooked_meat
v -1.4000 0.0000 -1.0000
v 1.4000 0.0000 -1.0000
v 1.4000 1.6000 -1.0000
v -1.4000 1.6000 -1.0000
v -1.4000 0.0000 1.0000
v 1.4000 0.0000 1.0000
v 1.4000 1.6000 1.0000
v -1.4000 1.6000 1.0000
v 2.1600 -0.0800 0.0000
v 2.1600 1.6800 0.0000
v 2.1064 -0.0800 0.2000
v 2.1064 1.6800 0.2000
v 1.9600 -0.0800 0.3464
v 1.9600 1.6800 0.3464
v 1.7600 -0.0800 0.4000
v 1.7600 1.6800 0.4000
v 1.5600 -0.0800 0.3464
v 1.5600 1.6800 0.3464
v 1.4136 -0.0800 0.2000
v 1.4136 1.6800 0.2000
v 1.3600 -0.0800 0.0000
v 1.3600 1.6800 0.0000
v 1.4136 -0.0800 -0.2000
v 1.4136 1.6800 -0.2000
v 1.5600 -0.0800 -0.3464
v 1.5600 1.6800 -0.3464
v 1.7600 -0.0800 -0.4000
v 1.7600 1.6800 -0.4000
v 1.9600 -0.0800 -0.3464
v 1.9600 1.6800 -0.3464
v 2.1064 -0.0800 -0.2000
v 2.1064 1.6800 -0.2000
v 1.7600 1.6800 0.0000
v 1.7600 -0.0800 0.0000
v -1.2000 1.4400 -0.8000
v 1.2000 1.4400 -0.8000
v 1.2000 1.7600 -0.8000
v -1.2000 1.7600 -0.8000
v -1.2000 1.4400 0.8000
v 1.2000 1.4400 0.8000
v 1.2000 1.7600 0.8000
v -1.2000 1.7600 0.8000
vn 0.2899 0.5072 0.8116
vn -0.4687 0.8202 0.3281
vn -0.2899 -0.5072 0.8116
vn 0.4687 -0.8202 0.3281
vn 0.4687 0.8202 -0.3281
vn -0.2899 0.5072 -0.8116
vn -0.4687 -0.8202 -0.3281
vn 0.2899 -0.5072 -0.8116
vn -0.9849 0.1492 -0.0880
vn -0.9849 -0.1492 0.0880
vn -0.8090 0.1492 -0.5686
vn -0.8969 -0.1492 -0.4163
vn -0.4163 0.1492 -0.8969
vn -0.5686 -0.1492 -0.8090
vn 0.0880 0.1492 -0.9849
vn -0.0880 -0.1492 -0.9849
vn 0.5686 0.1492 -0.8090
vn 0.4163 -0.1492 -0.8969
vn 0.8969 0.1492 -0.4163
vn 0.8090 -0.1492 -0.5686
vn 0.9849 0.1492 0.0880
vn 0.9849 -0.1492 -0.0880
vn 0.8090 0.1492 0.5686
vn 0.8969 -0.1492 0.4163
vn 0.4163 0.1492 0.8969
vn 0.5686 -0.1492 0.8090
vn -0.0880 0.1492 0.9849
vn 0.0880 -0.1492 0.9849
vn -0.5686 0.1492 0.8090
vn -0.4163 -0.1492 0.8969
vn -0.8969 0.1492 0.4163
vn -0.8090 -0.1492 0.5686
vn 0.0000 -1.0000 0.0000
vn 0.0000 1.0000 0.0000
vn 0.1229 0.9214 0.3686
vn -0.1315 0.9864 0.0986
vn -0.1229 -0.9214 0.3686
vn 0.1315 -0.9864 0.0986
vn 0.1315 0.9864 -0.0986
vn -0.1229 0.9214 -0.3686
vn -0.1315 -0.9864 -0.0986
vn 0.1229 -0.9214 -0.3686
f 1//1 2//2 3//3
f 1//1 3//3 4//4
f 6//6 5//5 8//8
f 6//6 8//8 7//7
f 5//5 1//1 4//4
f 5//5 4//4 8//8
f 2//2 6//6 7//7
f 2//2 7//7 3//3
f 4//4 3//3 7//7
f 4//4 7//7 8//8
f 5//5 6//6 2//2
f 5//5 2//2 1//1
f 9//9 11//11 12//12
f 9//9 12//12 10//10
f 11//11 13//13 14//14
f 11//11 14//14 12//12
f 13//13 15//15 16//16
f 13//13 16//16 14//14
f 15//15 17//17 18//18
f 15//15 18//18 16//16
f 17//17 19//19 20//20
f 17//17 20//20 18//18
f 19//19 21//21 22//22
f 19//19 22//22 20//20
f 21//21 23//23 24//24
f 21//21 24//24 22//22
f 23//23 25//25 26//26
f 23//23 26//26 24//24
f 25//25 27//27 28//28
f 25//25 28//28 26//26
f 27//27 29//29 30//30
f 27//27 30//30 28//28
f 29//29 31//31 32//32
f 29//29 32//32 30//30
f 31//31 9//9 10//10
f 31//31 10//10 32//32
f 33//33 10//10 12//12
f 33//33 12//12 14//14
f 33//33 14//14 16//16
f 33//33 16//16 18//18
f 33//33 18//18 20//20
f 33//33 20//20 22//22
f 33//33 22//22 24//24
f 33//33 24//24 26//26
f 33//33 26//26 28//28
f 33//33 28//28 30//30
f 33//33 30//30 32//32
f 33//33 32//32 10//10
f 34//34 11//11 9//9
f 34//34 13//13 11//11
f 34//34 15//15 13//13
f 34//34 17//17 15//15
f 34//34 19//19 17//17
f 34//34 21//21 19//19
f 34//34 23//23 21//21
f 34//34 25//25 23//23
f 34//34 27//27 25//25
f 34//34 29//29 27//27
f 34//34 31//31 29//29
f 34//34 9//9 31//31
f 35//35 36//36 37//37
f 35//35 37//37 38//38
f 40//40 39//39 42//42
f 40//40 42//42 41//41
f 39//39 35//35 38//38
f 39//39 38//38 42//42
f 36//36 40//40 41//41
f 36//36 41//41 37//37
f 38//38 37//37 41//41
f 38//38 41//41 42//42
f 39//39 40//40 36//36
f 39//39 36//36 35//35
