# display_case.obj - generated by survival_model_gen
# vertices: 32 faces: 48
mtllib survival.mtl
usemtl display_case
v -1.4000 0.0000 -0.6000
v 1.4000 0.0000 -0.6000
v 1.4000 2.2000 -0.6000
v -1.4000 2.2000 -0.6000
v -1.4000 0.0000 0.6000
v 1.4000 0.0000 0.6000
v 1.4000 2.2000 0.6000
v -1.4000 2.2000 0.6000
v -1.2000 2.1500 -0.5000
v 1.2000 2.1500 -0.5000
v 1.2000 2.6500 -0.5000
v -1.2000 2.6500 -0.5000
v -1.2000 2.1500 0.5000
v 1.2000 2.1500 0.5000
v 1.2000 2.6500 0.5000
v -1.2000 2.6500 0.5000
v -1.3000 1.0000 0.5900
v 1.3000 1.0000 0.5900
v 1.3000 2.0000 0.5900
v -1.3000 2.0000 0.5900
v -1.3000 1.0000 0.6500
v 1.3000 1.0000 0.6500
v 1.3000 2.0000 0.6500
v -1.3000 2.0000 0.6500
v -1.3000 1.0500 -0.5500
v 1.3000 1.0500 -0.5500
v 1.3000 1.1500 -0.5500
v -1.3000 1.1500 -0.5500
v -1.3000 1.0500 0.5500
v 1.3000 1.0500 0.5500
v 1.3000 1.1500 0.5500
v -1.3000 1.1500 0.5500
vn 0.2025 0.2577 0.9448
vn -0.5012 0.6379 0.5847
vn -0.2025 -0.2577 0.9448
vn 0.5012 -0.6379 0.5847
vn 0.5012 0.6379 -0.5847
vn -0.2025 0.2577 -0.9448
vn -0.5012 -0.6379 -0.5847
vn 0.2025 -0.2577 -0.9448
vn 0.1457 0.6996 0.6996
vn -0.1981 0.9509 0.2377
vn -0.1457 -0.6996 0.6996
vn 0.1981 -0.9509 0.2377
vn 0.1981 0.9509 -0.2377
vn -0.1457 0.6996 -0.6996
vn -0.1981 -0.9509 -0.2377
vn 0.1457 -0.6996 -0.6996
vn 0.0115 0.0300 0.9995
vn -0.0458 0.1190 0.9918
vn -0.0115 -0.0300 0.9995
vn 0.0458 -0.1190 0.9918
vn 0.0458 0.1190 -0.9918
vn -0.0115 0.0300 -0.9995
vn -0.0458 -0.1190 -0.9918
vn 0.0115 -0.0300 -0.9995
vn 0.0378 0.9832 0.1788
vn -0.0384 0.9982 0.0454
vn -0.0378 -0.9832 0.1788
vn 0.0384 -0.9982 0.0454
vn 0.0384 0.9982 -0.0454
vn -0.0378 0.9832 -0.1788
vn -0.0384 -0.9982 -0.0454
vn 0.0378 -0.9832 -0.1788
f 1//1 2//2 3//3
f 1//1 3//3 4//4
f 6//6 5//5 8//8
f 6//6 8//8 7//7
f 5//5 1//1 4//4
f 5//5 4//4 8//8
f 2//2 6//6 7//7
f 2//2 7//7 3//3
f 4//4 3//3 7//7
f 4//4 7//7 8//8
f 5//5 6//6 2//2
f 5//5 2//2 1//1
f 9//9 10//10 11//11
f 9//9 11//11 12//12
f 14//14 13//13 16//16
f 14//14 16//16 15//15
f 13//13 9//9 12//12
f 13//13 12//12 16//16
f 10//10 14//14 15//15
f 10//10 15//15 11//11
f 12//12 11//11 15//15
f 12//12 15//15 16//16
f 13//13 14//14 10//10
f 13//13 10//10 9//9
f 17//17 18//18 19//19
f 17//17 19//19 20//20
f 22//22 21//21 24//24
f 22//22 24//24 23//23
f 21//21 17//17 20//20
f 21//21 20//20 24//24
f 18//18 22//22 23//23
f 18//18 23//23 19//19
f 20//20 19//19 23//23
f 20//20 23//23 24//24
f 21//21 22//22 18//18
f 21//21 18//18 17//17
f 25//25 26//26 27//27
f 25//25 27//27 28//28
f 30//30 29//29 32//32
f 30//30 32//32 31//31
f 29//29 25//25 28//28
f 29//29 28//28 32//32
f 26//26 30//30 31//31
f 26//26 31//31 27//27
f 28//28 27//27 31//31
f 28//28 31//31 32//32
f 29//29 30//30 26//26
f 29//29 26//26 25//25
