# door.obj - generated by survival_model_gen
# vertices: 40 faces: 60
mtllib survival.mtl
usemtl door
v -1.0000 0.0000 -0.1800
v 1.0000 0.0000 -0.1800
v 1.0000 4.0000 -0.1800
v -1.0000 4.0000 -0.1800
v -1.0000 0.0000 0.1800
v 1.0000 0.0000 0.1800
v 1.0000 4.0000 0.1800
v -1.0000 4.0000 0.1800
v 0.6300 1.8800 0.1300
v 0.7700 1.8800 0.1300
v 0.7700 2.1200 0.1300
v 0.6300 2.1200 0.1300
v 0.6300 1.8800 0.2700
v 0.7700 1.8800 0.2700
v 0.7700 2.1200 0.2700
v 0.6300 2.1200 0.2700
v -1.1000 4.0400 -0.2200
v 1.1000 4.0400 -0.2200
v 1.1000 4.2800 -0.2200
v -1.1000 4.2800 -0.2200
v -1.1000 4.0400 0.2200
v 1.1000 4.0400 0.2200
v 1.1000 4.2800 0.2200
v -1.1000 4.2800 0.2200
v -1.0000 0.0000 -0.2000
v -0.8000 0.0000 -0.2000
v -0.8000 4.0000 -0.2000
v -1.0000 4.0000 -0.2000
v -1.0000 0.0000 0.2000
v -0.8000 0.0000 0.2000
v -0.8000 4.0000 0.2000
v -1.0000 4.0000 0.2000
v 0.8000 0.0000 -0.2000
v 1.0000 0.0000 -0.2000
v 1.0000 4.0000 -0.2000
v 0.8000 4.0000 -0.2000
v 0.8000 0.0000 0.2000
v 1.0000 0.0000 0.2000
v 1.0000 4.0000 0.2000
v 0.8000 4.0000 0.2000
vn 0.0895 0.0448 0.9950
vn -0.3340 0.1670 0.9277
vn -0.0895 -0.0448 0.9950
vn 0.3340 -0.1670 0.9277
vn 0.3340 0.1670 -0.9277
vn -0.0895 0.0448 -0.9950
vn -0.3340 -0.1670 -0.9277
vn 0.0895 -0.0448 -0.9950
vn 0.4327 0.2524 0.8655
vn -0.7930 0.4626 0.3965
vn -0.4327 -0.2524 0.8655
vn 0.7930 -0.4626 0.3965
vn 0.7930 0.4626 -0.3965
vn -0.4327 0.2524 -0.8655
vn -0.7930 -0.4626 -0.3965
vn 0.4327 -0.2524 -0.8655
vn 0.0735 0.6739 0.7352
vn -0.1047 0.9595 0.2617
vn -0.0735 -0.6739 0.7352
vn 0.1047 -0.9595 0.2617
vn 0.1047 0.9595 -0.2617
vn -0.0735 0.6739 -0.7352
vn -0.1047 -0.9595 -0.2617
vn 0.0735 -0.6739 -0.7352
vn 0.7067 0.0353 0.7067
vn -0.9690 0.0485 0.2423
vn -0.7067 -0.0353 0.7067
vn 0.9690 -0.0485 0.2423
vn 0.9690 0.0485 -0.2423
vn -0.7067 0.0353 -0.7067
vn -0.9690 -0.0485 -0.2423
vn 0.7067 -0.0353 -0.7067
vn 0.7067 0.0353 0.7067
vn -0.9690 0.0485 0.2423
vn -0.7067 -0.0353 0.7067
vn 0.9690 -0.0485 0.2423
vn 0.9690 0.0485 -0.2423
vn -0.7067 0.0353 -0.7067
vn -0.9690 -0.0485 -0.2423
vn 0.7067 -0.0353 -0.7067
f 1//1 2//2 3//3
f 1//1 3//3 4//4
f 6//6 5//5 8//8
f 6//6 8//8 7//7
f 5//5 1//1 4//4
f 5//5 4//4 8//8
f 2//2 6//6 7//7
f 2//2 7//7 3//3
f 4//4 3//3 7//7
f 4//4 7//7 8//8
f 5//5 6//6 2//2
f 5//5 2//2 1//1
f 9//9 10//10 11//11
f 9//9 11//11 12//12
f 14//14 13//13 16//16
f 14//14 16//16 15//15
f 13//13 9//9 12//12
f 13//13 12//12 16//16
f 10//10 14//14 15//15
f 10//10 15//15 11//11
f 12//12 11//11 15//15
f 12//12 15//15 16//16
f 13//13 14//14 10//10
f 13//13 10//10 9//9
f 17//17 18//18 19//19
f 17//17 19//19 20//20
f 22//22 21//21 24//24
f 22//22 24//24 23//23
f 21//21 17//17 20//20
f 21//21 20//20 24//24
f 18//18 22//22 23//23
f 18//18 23//23 19//19
f 20//20 19//19 23//23
f 20//20 23//23 24//24
f 21//21 22//22 18//18
f 21//21 18//18 17//17
f 25//25 26//26 27//27
f 25//25 27//27 28//28
f 30//30 29//29 32//32
f 30//30 32//32 31//31
f 29//29 25//25 28//28
f 29//29 28//28 32//32
f 26//26 30//30 31//31
f 26//26 31//31 27//27
f 28//28 27//27 31//31
f 28//28 31//31 32//32
f 29//29 30//30 26//26
f 29//29 26//26 25//25
f 33//33 34//34 35//35
f 33//33 35//35 36//36
f 38//38 37//37 40//40
f 38//38 40//40 39//39
f 37//37 33//33 36//36
f 37//37 36//36 40//40
f 34//34 38//38 39//39
f 34//34 39//39 35//35
f 36//36 35//35 39//39
f 36//36 39//39 40//40
f 37//37 38//38 34//34
f 37//37 34//34 33//33
