# farm_plot.obj - generated by survival_model_gen
# vertices: 48 faces: 72
mtllib survival.mtl
usemtl farm_plot
v -2.2000 0.0000 -1.7000
v 2.2000 0.0000 -1.7000
v 2.2000 0.4800 -1.7000
v -2.2000 0.4800 -1.7000
v -2.2000 0.0000 1.7000
v 2.2000 0.0000 1.7000
v 2.2000 0.4800 1.7000
v -2.2000 0.4800 1.7000
v -1.8000 0.4700 -1.5000
v -1.2400 0.4700 -1.5000
v -1.2400 0.5700 -1.5000
v -1.8000 0.5700 -1.5000
v -1.8000 0.4700 1.5000
v -1.2400 0.4700 1.5000
v -1.2400 0.5700 1.5000
v -1.8000 0.5700 1.5000
v -1.0400 0.4700 -1.5000
v -0.4800 0.4700 -1.5000
v -0.4800 0.5700 -1.5000
v -1.0400 0.5700 -1.5000
v -1.0400 0.4700 1.5000
v -0.4800 0.4700 1.5000
v -0.4800 0.5700 1.5000
v -1.0400 0.5700 1.5000
v -0.2800 0.4700 -1.5000
v 0.2800 0.4700 -1.5000
v 0.2800 0.5700 -1.5000
v -0.2800 0.5700 -1.5000
v -0.2800 0.4700 1.5000
v 0.2800 0.4700 1.5000
v 0.2800 0.5700 1.5000
v -0.2800 0.5700 1.5000
v 0.4800 0.4700 -1.5000
v 1.0400 0.4700 -1.5000
v 1.0400 0.5700 -1.5000
v 0.4800 0.5700 -1.5000
v 0.4800 0.4700 1.5000
v 1.0400 0.4700 1.5000
v 1.0400 0.5700 1.5000
v 0.4800 0.5700 1.5000
v 1.2400 0.4700 -1.5000
v 1.8000 0.4700 -1.5000
v 1.8000 0.5700 -1.5000
v 1.2400 0.5700 -1.5000
v 1.2400 0.4700 1.5000
v 1.8000 0.4700 1.5000
v 1.8000 0.5700 1.5000
v 1.2400 0.5700 1.5000
vn 0.1044 0.9571 0.2702
vn -0.1082 0.9917 0.0700
vn -0.1044 -0.9571 0.2702
vn 0.1082 -0.9917 0.0700
vn 0.1082 0.9917 -0.0700
vn -0.1044 0.9571 -0.2702
vn -0.1082 -0.9917 -0.0700
vn 0.1044 -0.9571 -0.2702
vn 0.1754 0.9823 0.0655
vn -0.1758 0.9843 0.0164
vn -0.1754 -0.9823 0.0655
vn 0.1758 -0.9843 0.0164
vn 0.1758 0.9843 -0.0164
vn -0.1754 0.9823 -0.0655
vn -0.1758 -0.9843 -0.0164
vn 0.1754 -0.9823 -0.0655
vn 0.1754 0.9823 0.0655
vn -0.1758 0.9843 0.0164
vn -0.1754 -0.9823 0.0655
vn 0.1758 -0.9843 0.0164
vn 0.1758 0.9843 -0.0164
vn -0.1754 0.9823 -0.0655
vn -0.1758 -0.9843 -0.0164
vn 0.1754 -0.9823 -0.0655
vn 0.1754 0.9823 0.0655
vn -0.1758 0.9843 0.0164
vn -0.1754 -0.9823 0.0655
vn 0.1758 -0.9843 0.0164
vn 0.1758 0.9843 -0.0164
vn -0.1754 0.9823 -0.0655
vn -0.1758 -0.9843 -0.0164
vn 0.1754 -0.9823 -0.0655
vn 0.1754 0.9823 0.0655
vn -0.1758 0.9843 0.0164
vn -0.1754 -0.9823 0.0655
vn 0.1758 -0.9843 0.0164
vn 0.1758 0.9843 -0.0164
vn -0.1754 0.9823 -0.0655
vn -0.1758 -0.9843 -0.0164
vn 0.1754 -0.9823 -0.0655
vn 0.1754 0.9823 0.0655
vn -0.1758 0.9843 0.0164
vn -0.1754 -0.9823 0.0655
vn 0.1758 -0.9843 0.0164
vn 0.1758 0.9843 -0.0164
vn -0.1754 0.9823 -0.0655
vn -0.1758 -0.9843 -0.0164
vn 0.1754 -0.9823 -0.0655
f 1//1 2//2 3//3
f 1//1 3//3 4//4
f 6//6 5//5 8//8
f 6//6 8//8 7//7
f 5//5 1//1 4//4
f 5//5 4//4 8//8
f 2//2 6//6 7//7
f 2//2 7//7 3//3
f 4//4 3//3 7//7
f 4//4 7//7 8//8
f 5//5 6//6 2//2
f 5//5 2//2 1//1
f 9//9 10//10 11//11
f 9//9 11//11 12//12
f 14//14 13//13 16//16
f 14//14 16//16 15//15
f 13//13 9//9 12//12
f 13//13 12//12 16//16
f 10//10 14//14 15//15
f 10//10 15//15 11//11
f 12//12 11//11 15//15
f 12//12 15//15 16//16
f 13//13 14//14 10//10
f 13//13 10//10 9//9
f 17//17 18//18 19//19
f 17//17 19//19 20//20
f 22//22 21//21 24//24
f 22//22 24//24 23//23
f 21//21 17//17 20//20
f 21//21 20//20 24//24
f 18//18 22//22 23//23
f 18//18 23//23 19//19
f 20//20 19//19 23//23
f 20//20 23//23 24//24
f 21//21 22//22 18//18
f 21//21 18//18 17//17
f 25//25 26//26 27//27
f 25//25 27//27 28//28
f 30//30 29//29 32//32
f 30//30 32//32 31//31
f 29//29 25//25 28//28
f 29//29 28//28 32//32
f 26//26 30//30 31//31
f 26//26 31//31 27//27
f 28//28 27//27 31//31
f 28//28 31//31 32//32
f 29//29 30//30 26//26
f 29//29 26//26 25//25
f 33//33 34//34 35//35
f 33//33 35//35 36//36
f 38//38 37//37 40//40
f 38//38 40//40 39//39
f 37//37 33//33 36//36
f 37//37 36//36 40//40
f 34//34 38//38 39//39
f 34//34 39//39 35//35
f 36//36 35//35 39//39
f 36//36 39//39 40//40
f 37//37 38//38 34//34
f 37//37 34//34 33//33
f 41//41 42//42 43//43
f 41//41 43//43 44//44
f 46//46 45//45 48//48
f 46//46 48//48 47//47
f 45//45 41//41 44//44
f 45//45 44//44 48//48
f 42//42 46//46 47//47
f 42//42 47//47 43//43
f 44//44 43//43 47//47
f 44//44 47//47 48//48
f 45//45 46//46 42//42
f 45//45 42//42 41//41
