# fence.obj - generated by survival_model_gen
# vertices: 130 faces: 228
mtllib survival.mtl
usemtl fence
v -1.1800 0.0000 0.0000
v -1.1800 1.8000 0.0000
v -1.1961 0.0000 0.0600
v -1.1961 1.8000 0.0600
v -1.2400 0.0000 0.1039
v -1.2400 1.8000 0.1039
v -1.3000 0.0000 0.1200
v -1.3000 1.8000 0.1200
v -1.3600 0.0000 0.1039
v -1.3600 1.8000 0.1039
v -1.4039 0.0000 0.0600
v -1.4039 1.8000 0.0600
v -1.4200 0.0000 0.0000
v -1.4200 1.8000 0.0000
v -1.4039 0.0000 -0.0600
v -1.4039 1.8000 -0.0600
v -1.3600 0.0000 -0.1039
v -1.3600 1.8000 -0.1039
v -1.3000 0.0000 -0.1200
v -1.3000 1.8000 -0.1200
v -1.2400 0.0000 -0.1039
v -1.2400 1.8000 -0.1039
v -1.1961 0.0000 -0.0600
v -1.1961 1.8000 -0.0600
v -1.3000 1.8000 0.0000
v -1.3000 0.0000 0.0000
v -1.1600 1.7200 0.0000
v -1.1867 1.7200 0.0823
v -1.2567 1.7200 0.1331
v -1.3433 1.7200 0.1331
v -1.4133 1.7200 0.0823
v -1.4400 1.7200 0.0000
v -1.4133 1.7200 -0.0823
v -1.3433 1.7200 -0.1331
v -1.2567 1.7200 -0.1331
v -1.1867 1.7200 -0.0823
v -1.3000 1.9600 0.0000
v -1.3000 1.7200 0.0000
v 0.1200 0.0000 0.0000
v 0.1200 1.8000 0.0000
v 0.1039 0.0000 0.0600
v 0.1039 1.8000 0.0600
v 0.0600 0.0000 0.1039
v 0.0600 1.8000 0.1039
v 0.0000 0.0000 0.1200
v 0.0000 1.8000 0.1200
v -0.0600 0.0000 0.1039
v -0.0600 1.8000 0.1039
v -0.1039 0.0000 0.0600
v -0.1039 1.8000 0.0600
v -0.1200 0.0000 0.0000
v -0.1200 1.8000 0.0000
v -0.1039 0.0000 -0.0600
v -0.1039 1.8000 -0.0600
v -0.0600 0.0000 -0.1039
v -0.0600 1.8000 -0.1039
v -0.0000 0.0000 -0.1200
v -0.0000 1.8000 -0.1200
v 0.0600 0.0000 -0.1039
v 0.0600 1.8000 -0.1039
v 0.1039 0.0000 -0.0600
v 0.1039 1.8000 -0.0600
v 0.0000 1.8000 0.0000
v 0.0000 0.0000 0.0000
v 0.1400 1.7200 0.0000
v 0.1133 1.7200 0.0823
v 0.0433 1.7200 0.1331
v -0.0433 1.7200 0.1331
v -0.1133 1.7200 0.0823
v -0.1400 1.7200 0.0000
v -0.1133 1.7200 -0.0823
v -0.0433 1.7200 -0.1331
v 0.0433 1.7200 -0.1331
v 0.1133 1.7200 -0.0823
v 0.0000 1.9600 0.0000
v 0.0000 1.7200 0.0000
v 1.4200 0.0000 0.0000
v 1.4200 1.8000 0.0000
v 1.4039 0.0000 0.0600
v 1.4039 1.8000 0.0600
v 1.3600 0.0000 0.1039
v 1.3600 1.8000 0.1039
v 1.3000 0.0000 0.1200
v 1.3000 1.8000 0.1200
v 1.2400 0.0000 0.1039
v 1.2400 1.8000 0.1039
v 1.1961 0.0000 0.0600
v 1.1961 1.8000 0.0600
v 1.1800 0.0000 0.0000
v 1.1800 1.8000 0.0000
v 1.1961 0.0000 -0.0600
v 1.1961 1.8000 -0.0600
v 1.2400 0.0000 -0.1039
v 1.2400 1.8000 -0.1039
v 1.3000 0.0000 -0.1200
v 1.3000 1.8000 -0.1200
v 1.3600 0.0000 -0.1039
v 1.3600 1.8000 -0.1039
v 1.4039 0.0000 -0.0600
v 1.4039 1.8000 -0.0600
v 1.3000 1.8000 0.0000
v 1.3000 0.0000 0.0000
v 1.4400 1.7200 0.0000
v 1.4133 1.7200 0.0823
v 1.3433 1.7200 0.1331
v 1.2567 1.7200 0.1331
v 1.1867 1.7200 0.0823
v 1.1600 1.7200 0.0000
v 1.1867 1.7200 -0.0823
v 1.2567 1.7200 -0.1331
v 1.3433 1.7200 -0.1331
v 1.4133 1.7200 -0.0823
v 1.3000 1.9600 0.0000
v 1.3000 1.7200 0.0000
v -1.5000 1.0300 -0.0700
v 1.5000 1.0300 -0.0700
v 1.5000 1.1700 -0.0700
v -1.5000 1.1700 -0.0700
v -1.5000 1.0300 0.0700
v 1.5000 1.0300 0.0700
v 1.5000 1.1700 0.0700
v -1.5000 1.1700 0.0700
v -1.5000 0.5300 -0.0700
v 1.5000 0.5300 -0.0700
v 1.5000 0.6700 -0.0700
v -1.5000 0.6700 -0.0700
v -1.5000 0.5300 0.0700
v 1.5000 0.5300 0.0700
v 1.5000 0.6700 0.0700
v -1.5000 0.6700 0.0700
vn -0.9951 0.0442 -0.0889
vn -0.9951 -0.0442 0.0889
vn -0.8173 0.0442 -0.5745
vn -0.9062 -0.0442 -0.4206
vn -0.4206 0.0442 -0.9062
vn -0.5745 -0.0442 -0.8173
vn 0.0889 0.0442 -0.9951
vn -0.0889 -0.0442 -0.9951
vn 0.5745 0.0442 -0.8173
vn 0.4206 -0.0442 -0.9062
vn 0.9062 0.0442 -0.4206
vn 0.8173 -0.0442 -0.5745
vn 0.9951 0.0442 0.0889
vn 0.9951 -0.0442 -0.0889
vn 0.8173 0.0442 0.5745
vn 0.9062 -0.0442 0.4206
vn 0.4206 0.0442 0.9062
vn 0.5745 -0.0442 0.8173
vn -0.0889 0.0442 0.9951
vn 0.0889 -0.0442 0.9951
vn -0.5745 0.0442 0.8173
vn -0.4206 -0.0442 0.9062
vn -0.9062 0.0442 0.4206
vn -0.8173 -0.0442 0.5745
vn 0.0000 -1.0000 0.0000
vn 0.0000 1.0000 0.0000
vn -1.0000 0.0000 0.0000
vn -0.8090 0.0000 -0.5878
vn -0.3090 -0.0000 -0.9511
vn 0.3090 0.0000 -0.9511
vn 0.8090 -0.0000 -0.5878
vn 1.0000 0.0000 0.0000
vn 0.8090 -0.0000 0.5878
vn 0.3090 -0.0000 0.9511
vn -0.3090 0.0000 0.9511
vn -0.8090 0.0000 0.5878
vn -0.0000 -1.0000 0.0000
vn 0.0000 1.0000 0.0000
vn -0.9951 0.0442 -0.0889
vn -0.9951 -0.0442 0.0889
vn -0.8173 0.0442 -0.5745
vn -0.9062 -0.0442 -0.4206
vn -0.4206 0.0442 -0.9062
vn -0.5745 -0.0442 -0.8173
vn 0.0889 0.0442 -0.9951
vn -0.0889 -0.0442 -0.9951
vn 0.5745 0.0442 -0.8173
vn 0.4206 -0.0442 -0.9062
vn 0.9062 0.0442 -0.4206
vn 0.8173 -0.0442 -0.5745
vn 0.9951 0.0442 0.0889
vn 0.9951 -0.0442 -0.0889
vn 0.8173 0.0442 0.5745
vn 0.9062 -0.0442 0.4206
vn 0.4206 0.0442 0.9062
vn 0.5745 -0.0442 0.8173
vn -0.0889 0.0442 0.9951
vn 0.0889 -0.0442 0.9951
vn -0.5745 0.0442 0.8173
vn -0.4206 -0.0442 0.9062
vn -0.9062 0.0442 0.4206
vn -0.8173 -0.0442 0.5745
vn 0.0000 -1.0000 0.0000
vn 0.0000 1.0000 0.0000
vn -1.0000 0.0000 0.0000
vn -0.8090 -0.0000 -0.5878
vn -0.3090 -0.0000 -0.9511
vn 0.3090 -0.0000 -0.9511
vn 0.8090 0.0000 -0.5878
vn 1.0000 0.0000 -0.0000
vn 0.8090 0.0000 0.5878
vn 0.3090 0.0000 0.9511
vn -0.3090 0.0000 0.9511
vn -0.8090 -0.0000 0.5878
vn -0.0000 -1.0000 0.0000
vn 0.0000 1.0000 0.0000
vn -0.9951 0.0442 -0.0889
vn -0.9951 -0.0442 0.0889
vn -0.8173 0.0442 -0.5745
vn -0.9062 -0.0442 -0.4206
vn -0.4206 0.0442 -0.9062
vn -0.5745 -0.0442 -0.8173
vn 0.0889 0.0442 -0.9951
vn -0.0889 -0.0442 -0.9951
vn 0.5745 0.0442 -0.8173
vn 0.4206 -0.0442 -0.9062
vn 0.9062 0.0442 -0.4206
vn 0.8173 -0.0442 -0.5745
vn 0.9951 0.0442 0.0889
vn 0.9951 -0.0442 -0.0889
vn 0.8173 0.0442 0.5745
vn 0.9062 -0.0442 0.4206
vn 0.4206 0.0442 0.9062
vn 0.5745 -0.0442 0.8173
vn -0.0889 0.0442 0.9951
vn 0.0889 -0.0442 0.9951
vn -0.5745 0.0442 0.8173
vn -0.4206 -0.0442 0.9062
vn -0.9062 0.0442 0.4206
vn -0.8173 -0.0442 0.5745
vn 0.0000 -1.0000 0.0000
vn 0.0000 1.0000 0.0000
vn -1.0000 0.0000 0.0000
vn -0.8090 0.0000 -0.5878
vn -0.3090 -0.0000 -0.9511
vn 0.3090 0.0000 -0.9511
vn 0.8090 -0.0000 -0.5878
vn 1.0000 0.0000 0.0000
vn 0.8090 -0.0000 0.5878
vn 0.3090 -0.0000 0.9511
vn -0.3090 0.0000 0.9511
vn -0.8090 0.0000 0.5878
vn -0.0000 -1.0000 0.0000
vn 0.0000 1.0000 0.0000
vn 0.0209 0.4471 0.8942
vn -0.0417 0.8936 0.4468
vn -0.0209 -0.4471 0.8942
vn 0.0417 -0.8936 0.4468
vn 0.0417 0.8936 -0.4468
vn -0.0209 0.4471 -0.8942
vn -0.0417 -0.8936 -0.4468
vn 0.0209 -0.4471 -0.8942
vn 0.0209 0.4471 0.8942
vn -0.0417 0.8936 0.4468
vn -0.0209 -0.4471 0.8942
vn 0.0417 -0.8936 0.4468
vn 0.0417 0.8936 -0.4468
vn -0.0209 0.4471 -0.8942
vn -0.0417 -0.8936 -0.4468
vn 0.0209 -0.4471 -0.8942
f 1//1 3//3 4//4
f 1//1 4//4 2//2
f 3//3 5//5 6//6
f 3//3 6//6 4//4
f 5//5 7//7 8//8
f 5//5 8//8 6//6
f 7//7 9//9 10//10
f 7//7 10//10 8//8
f 9//9 11//11 12//12
f 9//9 12//12 10//10
f 11//11 13//13 14//14
f 11//11 14//14 12//12
f 13//13 15//15 16//16
f 13//13 16//16 14//14
f 15//15 17//17 18//18
f 15//15 18//18 16//16
f 17//17 19//19 20//20
f 17//17 20//20 18//18
f 19//19 21//21 22//22
f 19//19 22//22 20//20
f 21//21 23//23 24//24
f 21//21 24//24 22//22
f 23//23 1//1 2//2
f 23//23 2//2 24//24
f 25//25 2//2 4//4
f 25//25 4//4 6//6
f 25//25 6//6 8//8
f 25//25 8//8 10//10
f 25//25 10//10 12//12
f 25//25 12//12 14//14
f 25//25 14//14 16//16
f 25//25 16//16 18//18
f 25//25 18//18 20//20
f 25//25 20//20 22//22
f 25//25 22//22 24//24
f 25//25 24//24 2//2
f 26//26 3//3 1//1
f 26//26 5//5 3//3
f 26//26 7//7 5//5
f 26//26 9//9 7//7
f 26//26 11//11 9//9
f 26//26 13//13 11//11
f 26//26 15//15 13//13
f 26//26 17//17 15//15
f 26//26 19//19 17//17
f 26//26 21//21 19//19
f 26//26 23//23 21//21
f 26//26 1//1 23//23
f 27//27 28//28 37//37
f 28//28 29//29 37//37
f 29//29 30//30 37//37
f 30//30 31//31 37//37
f 31//31 32//32 37//37
f 32//32 33//33 37//37
f 33//33 34//34 37//37
f 34//34 35//35 37//37
f 35//35 36//36 37//37
f 36//36 27//27 37//37
f 38//38 28//28 27//27
f 38//38 29//29 28//28
f 38//38 30//30 29//29
f 38//38 31//31 30//30
f 38//38 32//32 31//31
f 38//38 33//33 32//32
f 38//38 34//34 33//33
f 38//38 35//35 34//34
f 38//38 36//36 35//35
f 38//38 27//27 36//36
f 39//39 41//41 42//42
f 39//39 42//42 40//40
f 41//41 43//43 44//44
f 41//41 44//44 42//42
f 43//43 45//45 46//46
f 43//43 46//46 44//44
f 45//45 47//47 48//48
f 45//45 48//48 46//46
f 47//47 49//49 50//50
f 47//47 50//50 48//48
f 49//49 51//51 52//52
f 49//49 52//52 50//50
f 51//51 53//53 54//54
f 51//51 54//54 52//52
f 53//53 55//55 56//56
f 53//53 56//56 54//54
f 55//55 57//57 58//58
f 55//55 58//58 56//56
f 57//57 59//59 60//60
f 57//57 60//60 58//58
f 59//59 61//61 62//62
f 59//59 62//62 60//60
f 61//61 39//39 40//40
f 61//61 40//40 62//62
f 63//63 40//40 42//42
f 63//63 42//42 44//44
f 63//63 44//44 46//46
f 63//63 46//46 48//48
f 63//63 48//48 50//50
f 63//63 50//50 52//52
f 63//63 52//52 54//54
f 63//63 54//54 56//56
f 63//63 56//56 58//58
f 63//63 58//58 60//60
f 63//63 60//60 62//62
f 63//63 62//62 40//40
f 64//64 41//41 39//39
f 64//64 43//43 41//41
f 64//64 45//45 43//43
f 64//64 47//47 45//45
f 64//64 49//49 47//47
f 64//64 51//51 49//49
f 64//64 53//53 51//51
f 64//64 55//55 53//53
f 64//64 57//57 55//55
f 64//64 59//59 57//57
f 64//64 61//61 59//59
f 64//64 39//39 61//61
f 65//65 66//66 75//75
f 66//66 67//67 75//75
f 67//67 68//68 75//75
f 68//68 69//69 75//75
f 69//69 70//70 75//75
f 70//70 71//71 75//75
f 71//71 72//72 75//75
f 72//72 73//73 75//75
f 73//73 74//74 75//75
f 74//74 65//65 75//75
f 76//76 66//66 65//65
f 76//76 67//67 66//66
f 76//76 68//68 67//67
f 76//76 69//69 68//68
f 76//76 70//70 69//69
f 76//76 71//71 70//70
f 76//76 72//72 71//71
f 76//76 73//73 72//72
f 76//76 74//74 73//73
f 76//76 65//65 74//74
f 77//77 79//79 80//80
f 77//77 80//80 78//78
f 79//79 81//81 82//82
f 79//79 82//82 80//80
f 81//81 83//83 84//84
f 81//81 84//84 82//82
f 83//83 85//85 86//86
f 83//83 86//86 84//84
f 85//85 87//87 88//88
f 85//85 88//88 86//86
f 87//87 89//89 90//90
f 87//87 90//90 88//88
f 89//89 91//91 92//92
f 89//89 92//92 90//90
f 91//91 93//93 94//94
f 91//91 94//94 92//92
f 93//93 95//95 96//96
f 93//93 96//96 94//94
f 95//95 97//97 98//98
f 95//95 98//98 96//96
f 97//97 99//99 100//100
f 97//97 100//100 98//98
f 99//99 77//77 78//78
f 99//99 78//78 100//100
f 101//101 78//78 80//80
f 101//101 80//80 82//82
f 101//101 82//82 84//84
f 101//101 84//84 86//86
f 101//101 86//86 88//88
f 101//101 88//88 90//90
f 101//101 90//90 92//92
f 101//101 92//92 94//94
f 101//101 94//94 96//96
f 101//101 96//96 98//98
f 101//101 98//98 100//100
f 101//101 100//100 78//78
f 102//102 79//79 77//77
f 102//102 81//81 79//79
f 102//102 83//83 81//81
f 102//102 85//85 83//83
f 102//102 87//87 85//85
f 102//102 89//89 87//87
f 102//102 91//91 89//89
f 102//102 93//93 91//91
f 102//102 95//95 93//93
f 102//102 97//97 95//95
f 102//102 99//99 97//97
f 102//102 77//77 99//99
f 103//103 104//104 113//113
f 104//104 105//105 113//113
f 105//105 106//106 113//113
f 106//106 107//107 113//113
f 107//107 108//108 113//113
f 108//108 109//109 113//113
f 109//109 110//110 113//113
f 110//110 111//111 113//113
f 111//111 112//112 113//113
f 112//112 103//103 113//113
f 114//114 104//104 103//103
f 114//114 105//105 104//104
f 114//114 106//106 105//105
f 114//114 107//107 106//106
f 114//114 108//108 107//107
f 114//114 109//109 108//108
f 114//114 110//110 109//109
f 114//114 111//111 110//110
f 114//114 112//112 111//111
f 114//114 103//103 112//112
f 115//115 116//116 117//117
f 115//115 117//117 118//118
f 120//120 119//119 122//122
f 120//120 122//122 121//121
f 119//119 115//115 118//118
f 119//119 118//118 122//122
f 116//116 120//120 121//121
f 116//116 121//121 117//117
f 118//118 117//117 121//121
f 118//118 121//121 122//122
f 119//119 120//120 116//116
f 119//119 116//116 115//115
f 123//123 124//124 125//125
f 123//123 125//125 126//126
f 128//128 127//127 130//130
f 128//128 130//130 129//129
f 127//127 123//123 126//126
f 127//127 126//126 130//130
f 124//124 128//128 129//129
f 124//124 129//129 125//125
f 126//126 125//125 129//129
f 126//126 129//129 130//130
f 127//127 128//128 124//124
f 127//127 124//124 123//123
