# foundation.obj - generated by survival_model_gen
# vertices: 16 faces: 24
mtllib survival.mtl
usemtl foundation
v -2.2000 0.0000 -2.2000
v 2.2000 0.0000 -2.2000
v 2.2000 0.4800 -2.2000
v -2.2000 0.4800 -2.2000
v -2.2000 0.0000 2.2000
v 2.2000 0.0000 2.2000
v 2.2000 0.4800 2.2000
v -2.2000 0.4800 2.2000
v -2.0000 0.4500 -2.0000
v 2.0000 0.4500 -2.0000
v 2.0000 0.5500 -2.0000
v -2.0000 0.5500 -2.0000
v -2.0000 0.4500 2.0000
v 2.0000 0.4500 2.0000
v 2.0000 0.5500 2.0000
v -2.0000 0.5500 2.0000
vn 0.1060 0.9715 0.2120
vn -0.1083 0.9926 0.0541
vn -0.1060 -0.9715 0.2120
vn 0.1083 -0.9926 0.0541
vn 0.1083 0.9926 -0.0541
vn -0.1060 0.9715 -0.2120
vn -0.1083 -0.9926 -0.0541
vn 0.1060 -0.9715 -0.2120
vn 0.0250 0.9984 0.0499
vn -0.0250 0.9996 0.0125
vn -0.0250 -0.9984 0.0499
vn 0.0250 -0.9996 0.0125
vn 0.0250 0.9996 -0.0125
vn -0.0250 0.9984 -0.0499
vn -0.0250 -0.9996 -0.0125
vn 0.0250 -0.9984 -0.0499
f 1//1 2//2 3//3
f 1//1 3//3 4//4
f 6//6 5//5 8//8
f 6//6 8//8 7//7
f 5//5 1//1 4//4
f 5//5 4//4 8//8
f 2//2 6//6 7//7
f 2//2 7//7 3//3
f 4//4 3//3 7//7
f 4//4 7//7 8//8
f 5//5 6//6 2//2
f 5//5 2//2 1//1
f 9//9 10//10 11//11
f 9//9 11//11 12//12
f 14//14 13//13 16//16
f 14//14 16//16 15//15
f 13//13 9//9 12//12
f 13//13 12//12 16//16
f 10//10 14//14 15//15
f 10//10 15//15 11//11
f 12//12 11//11 15//15
f 12//12 15//15 16//16
f 13//13 14//14 10//10
f 13//13 10//10 9//9
