# furnace.obj - generated by survival_model_gen
# vertices: 50 faces: 84
mtllib survival.mtl
usemtl furnace
v -1.1000 0.0000 -0.9000
v 1.1000 0.0000 -0.9000
v 1.1000 2.6000 -0.9000
v -1.1000 2.6000 -0.9000
v -1.1000 0.0000 0.9000
v 1.1000 0.0000 0.9000
v 1.1000 2.6000 0.9000
v -1.1000 2.6000 0.9000
v -0.5500 0.4500 0.8800
v 0.5500 0.4500 0.8800
v 0.5500 1.3500 0.8800
v -0.5500 1.3500 0.8800
v -0.5500 0.4500 0.9600
v 0.5500 0.4500 0.9600
v 0.5500 1.3500 0.9600
v -0.5500 1.3500 0.9600
v 0.9800 2.2500 -0.5000
v 0.9800 3.3500 -0.5000
v 0.9425 2.2500 -0.3600
v 0.9425 3.3500 -0.3600
v 0.8400 2.2500 -0.2575
v 0.8400 3.3500 -0.2575
v 0.7000 2.2500 -0.2200
v 0.7000 3.3500 -0.2200
v 0.5600 2.2500 -0.2575
v 0.5600 3.3500 -0.2575
v 0.4575 2.2500 -0.3600
v 0.4575 3.3500 -0.3600
v 0.4200 2.2500 -0.5000
v 0.4200 3.3500 -0.5000
v 0.4575 2.2500 -0.6400
v 0.4575 3.3500 -0.6400
v 0.5600 2.2500 -0.7425
v 0.5600 3.3500 -0.7425
v 0.7000 2.2500 -0.7800
v 0.7000 3.3500 -0.7800
v 0.8400 2.2500 -0.7425
v 0.8400 3.3500 -0.7425
v 0.9425 2.2500 -0.6400
v 0.9425 3.3500 -0.6400
v 0.7000 3.3500 -0.5000
v 0.7000 2.2500 -0.5000
v -1.1500 2.5600 -0.9500
v 1.1500 2.5600 -0.9500
v 1.1500 2.7200 -0.9500
v -1.1500 2.7200 -0.9500
v -1.1500 2.5600 0.9500
v 1.1500 2.5600 0.9500
v 1.1500 2.7200 0.9500
v -1.1500 2.7200 0.9500
vn 0.3606 0.3051 0.8814
vn -0.6918 0.5854 0.4228
vn -0.3606 -0.3051 0.8814
vn 0.6918 -0.5854 0.4228
vn 0.6918 0.5854 -0.4228
vn -0.3606 0.3051 -0.8814
vn -0.6918 -0.5854 -0.4228
vn 0.3606 -0.3051 -0.8814
vn 0.0363 0.0444 0.9984
vn -0.1418 0.1733 0.9746
vn -0.0363 -0.0444 0.9984
vn 0.1418 -0.1733 0.9746
vn 0.1418 0.1733 -0.9746
vn -0.0363 0.0444 -0.9984
vn -0.1418 -0.1733 -0.9746
vn 0.0363 -0.0444 -0.9984
vn -0.9821 0.1667 -0.0877
vn -0.9821 -0.1667 0.0877
vn -0.8067 0.1667 -0.5670
vn -0.8944 -0.1667 -0.4151
vn -0.4151 0.1667 -0.8944
vn -0.5670 -0.1667 -0.8067
vn 0.0877 0.1667 -0.9821
vn -0.0877 -0.1667 -0.9821
vn 0.5670 0.1667 -0.8067
vn 0.4151 -0.1667 -0.8944
vn 0.8944 0.1667 -0.4151
vn 0.8067 -0.1667 -0.5670
vn 0.9821 0.1667 0.0877
vn 0.9821 -0.1667 -0.0877
vn 0.8067 0.1667 0.5670
vn 0.8944 -0.1667 0.4151
vn 0.4151 0.1667 0.8944
vn 0.5670 -0.1667 0.8067
vn -0.0877 0.1667 0.9821
vn 0.0877 -0.1667 0.9821
vn -0.5670 0.1667 0.8067
vn -0.4151 -0.1667 0.8944
vn -0.8944 0.1667 0.4151
vn -0.8067 -0.1667 0.5670
vn 0.0000 -1.0000 0.0000
vn 0.0000 1.0000 0.0000
vn 0.0684 0.9838 0.1657
vn -0.0693 0.9967 0.0420
vn -0.0684 -0.9838 0.1657
vn 0.0693 -0.9967 0.0420
vn 0.0693 0.9967 -0.0420
vn -0.0684 0.9838 -0.1657
vn -0.0693 -0.9967 -0.0420
vn 0.0684 -0.9838 -0.1657
f 1//1 2//2 3//3
f 1//1 3//3 4//4
f 6//6 5//5 8//8
f 6//6 8//8 7//7
f 5//5 1//1 4//4
f 5//5 4//4 8//8
f 2//2 6//6 7//7
f 2//2 7//7 3//3
f 4//4 3//3 7//7
f 4//4 7//7 8//8
f 5//5 6//6 2//2
f 5//5 2//2 1//1
f 9//9 10//10 11//11
f 9//9 11//11 12//12
f 14//14 13//13 16//16
f 14//14 16//16 15//15
f 13//13 9//9 12//12
f 13//13 12//12 16//16
f 10//10 14//14 15//15
f 10//10 15//15 11//11
f 12//12 11//11 15//15
f 12//12 15//15 16//16
f 13//13 14//14 10//10
f 13//13 10//10 9//9
f 17//17 19//19 20//20
f 17//17 20//20 18//18
f 19//19 21//21 22//22
f 19//19 22//22 20//20
f 21//21 23//23 24//24
f 21//21 24//24 22//22
f 23//23 25//25 26//26
f 23//23 26//26 24//24
f 25//25 27//27 28//28
f 25//25 28//28 26//26
f 27//27 29//29 30//30
f 27//27 30//30 28//28
f 29//29 31//31 32//32
f 29//29 32//32 30//30
f 31//31 33//33 34//34
f 31//31 34//34 32//32
f 33//33 35//35 36//36
f 33//33 36//36 34//34
f 35//35 37//37 38//38
f 35//35 38//38 36//36
f 37//37 39//39 40//40
f 37//37 40//40 38//38
f 39//39 17//17 18//18
f 39//39 18//18 40//40
f 41//41 18//18 20//20
f 41//41 20//20 22//22
f 41//41 22//22 24//24
f 41//41 24//24 26//26
f 41//41 26//26 28//28
f 41//41 28//28 30//30
f 41//41 30//30 32//32
f 41//41 32//32 34//34
f 41//41 34//34 36//36
f 41//41 36//36 38//38
f 41//41 38//38 40//40
f 41//41 40//40 18//18
f 42//42 19//19 17//17
f 42//42 21//21 19//19
f 42//42 23//23 21//21
f 42//42 25//25 23//23
f 42//42 27//27 25//25
f 42//42 29//29 27//27
f 42//42 31//31 29//29
f 42//42 33//33 31//31
f 42//42 35//35 33//33
f 42//42 37//37 35//35
f 42//42 39//39 37//37
f 42//42 17//17 39//39
f 43//43 44//44 45//45
f 43//43 45//45 46//46
f 48//48 47//47 50//50
f 48//48 50//50 49//49
f 47//47 43//43 46//46
f 47//47 46//46 50//50
f 44//44 48//48 49//49
f 44//44 49//49 45//45
f 46//46 45//45 49//49
f 46//46 49//49 50//50
f 47//47 48//48 44//44
f 47//47 44//44 43//43
