# furniture.obj - generated by survival_model_gen
# vertices: 96 faces: 144
mtllib survival.mtl
usemtl furniture
v -1.2000 0.8000 -0.7000
v 1.2000 0.8000 -0.7000
v 1.2000 1.0000 -0.7000
v -1.2000 1.0000 -0.7000
v -1.2000 0.8000 0.7000
v 1.2000 0.8000 0.7000
v 1.2000 1.0000 0.7000
v -1.2000 1.0000 0.7000
v -1.1000 -0.0100 -0.6000
v -0.9000 -0.0100 -0.6000
v -0.9000 0.8900 -0.6000
v -1.1000 0.8900 -0.6000
v -1.1000 -0.0100 -0.4000
v -0.9000 -0.0100 -0.4000
v -0.9000 0.8900 -0.4000
v -1.1000 0.8900 -0.4000
v 0.9000 -0.0100 -0.6000
v 1.1000 -0.0100 -0.6000
v 1.1000 0.8900 -0.6000
v 0.9000 0.8900 -0.6000
v 0.9000 -0.0100 -0.4000
v 1.1000 -0.0100 -0.4000
v 1.1000 0.8900 -0.4000
v 0.9000 0.8900 -0.4000
v -1.1000 -0.0100 0.4000
v -0.9000 -0.0100 0.4000
v -0.9000 0.8900 0.4000
v -1.1000 0.8900 0.4000
v -1.1000 -0.0100 0.6000
v -0.9000 -0.0100 0.6000
v -0.9000 0.8900 0.6000
v -1.1000 0.8900 0.6000
v 0.9000 -0.0100 0.4000
v 1.1000 -0.0100 0.4000
v 1.1000 0.8900 0.4000
v 0.9000 0.8900 0.4000
v 0.9000 -0.0100 0.6000
v 1.1000 -0.0100 0.6000
v 1.1000 0.8900 0.6000
v 0.9000 0.8900 0.6000
v -0.5500 0.9800 -0.1000
v -0.2500 0.9800 -0.1000
v -0.2500 1.2200 -0.1000
v -0.5500 1.2200 -0.1000
v -0.5500 0.9800 0.1000
v -0.2500 0.9800 0.1000
v -0.2500 1.2200 0.1000
v -0.5500 1.2200 0.1000
v -0.5000 0.4800 1.1000
v 0.5000 0.4800 1.1000
v 0.5000 0.6400 1.1000
v -0.5000 0.6400 1.1000
v -0.5000 0.4800 2.1000
v 0.5000 0.4800 2.1000
v 0.5000 0.6400 2.1000
v -0.5000 0.6400 2.1000
v -0.5000 0.6500 1.8200
v 0.5000 0.6500 1.8200
v 0.5000 1.7500 1.8200
v -0.5000 1.7500 1.8200
v -0.5000 0.6500 1.9800
v 0.5000 0.6500 1.9800
v 0.5000 1.7500 1.9800
v -0.5000 1.7500 1.9800
v -0.4200 0.0000 1.1400
v -0.3000 0.0000 1.1400
v -0.3000 0.5600 1.1400
v -0.4200 0.5600 1.1400
v -0.4200 0.0000 1.2600
v -0.3000 0.0000 1.2600
v -0.3000 0.5600 1.2600
v -0.4200 0.5600 1.2600
v 0.3000 0.0000 1.1400
v 0.4200 0.0000 1.1400
v 0.4200 0.5600 1.1400
v 0.3000 0.5600 1.1400
v 0.3000 0.0000 1.2600
v 0.4200 0.0000 1.2600
v 0.4200 0.5600 1.2600
v 0.3000 0.5600 1.2600
v -0.4200 0.0000 1.8400
v -0.3000 0.0000 1.8400
v -0.3000 0.5600 1.8400
v -0.4200 0.5600 1.8400
v -0.4200 0.0000 1.9600
v -0.3000 0.0000 1.9600
v -0.3000 0.5600 1.9600
v -0.4200 0.5600 1.9600
v 0.3000 0.0000 1.8400
v 0.4200 0.0000 1.8400
v 0.4200 0.5600 1.8400
v 0.3000 0.5600 1.8400
v 0.3000 0.0000 1.9600
v 0.4200 0.0000 1.9600
v 0.4200 0.5600 1.9600
v 0.3000 0.5600 1.9600
vn 0.0799 0.9585 0.2738
vn -0.0828 0.9940 0.0710
vn -0.0799 -0.9585 0.2738
vn 0.0828 -0.9940 0.0710
vn 0.0828 0.9940 -0.0710
vn -0.0799 0.9585 -0.2738
vn -0.0828 -0.9940 -0.0710
vn 0.0799 -0.9585 -0.2738
vn 0.4450 0.0989 0.8900
vn -0.8773 0.1949 0.4386
vn -0.4450 -0.0989 0.8900
vn 0.8773 -0.1949 0.4386
vn 0.8773 0.1949 -0.4386
vn -0.4450 0.0989 -0.8900
vn -0.8773 -0.1949 -0.4386
vn 0.4450 -0.0989 -0.8900
vn 0.4450 0.0989 0.8900
vn -0.8773 0.1949 0.4386
vn -0.4450 -0.0989 0.8900
vn 0.8773 -0.1949 0.4386
vn 0.8773 0.1949 -0.4386
vn -0.4450 0.0989 -0.8900
vn -0.8773 -0.1949 -0.4386
vn 0.4450 -0.0989 -0.8900
vn 0.4450 0.0989 0.8900
vn -0.8773 0.1949 0.4386
vn -0.4450 -0.0989 0.8900
vn 0.8773 -0.1949 0.4386
vn 0.8773 0.1949 -0.4386
vn -0.4450 0.0989 -0.8900
vn -0.8773 -0.1949 -0.4386
vn 0.4450 -0.0989 -0.8900
vn 0.4450 0.0989 0.8900
vn -0.8773 0.1949 0.4386
vn -0.4450 -0.0989 0.8900
vn 0.8773 -0.1949 0.4386
vn 0.8773 0.1949 -0.4386
vn -0.4450 0.0989 -0.8900
vn -0.8773 -0.1949 -0.4386
vn 0.4450 -0.0989 -0.8900
vn 0.2941 0.3676 0.8823
vn -0.5657 0.7071 0.4243
vn -0.2941 -0.3676 0.8823
vn 0.5657 -0.7071 0.4243
vn 0.5657 0.7071 -0.4243
vn -0.2941 0.3676 -0.8823
vn -0.5657 -0.7071 -0.4243
vn 0.2941 -0.3676 -0.8823
vn 0.1506 0.9416 0.3013
vn -0.1575 0.9844 0.0787
vn -0.1506 -0.9416 0.3013
vn 0.1575 -0.9844 0.0787
vn 0.1575 0.9844 -0.0787
vn -0.1506 0.9416 -0.3013
vn -0.1575 -0.9844 -0.0787
vn 0.1506 -0.9416 -0.3013
vn 0.0795 0.0723 0.9942
vn -0.2937 0.2670 0.9178
vn -0.0795 -0.0723 0.9942
vn 0.2937 -0.2670 0.9178
vn 0.2937 0.2670 -0.9178
vn -0.0795 0.0723 -0.9942
vn -0.2937 -0.2670 -0.9178
vn 0.0795 -0.0723 -0.9942
vn 0.4452 0.0954 0.8903
vn -0.8784 0.1882 0.4392
vn -0.4452 -0.0954 0.8903
vn 0.8784 -0.1882 0.4392
vn 0.8784 0.1882 -0.4392
vn -0.4452 0.0954 -0.8903
vn -0.8784 -0.1882 -0.4392
vn 0.4452 -0.0954 -0.8903
vn 0.4452 0.0954 0.8903
vn -0.8784 0.1882 0.4392
vn -0.4452 -0.0954 0.8903
vn 0.8784 -0.1882 0.4392
vn 0.8784 0.1882 -0.4392
vn -0.4452 0.0954 -0.8903
vn -0.8784 -0.1882 -0.4392
vn 0.4452 -0.0954 -0.8903
vn 0.4452 0.0954 0.8903
vn -0.8784 0.1882 0.4392
vn -0.4452 -0.0954 0.8903
vn 0.8784 -0.1882 0.4392
vn 0.8784 0.1882 -0.4392
vn -0.4452 0.0954 -0.8903
vn -0.8784 -0.1882 -0.4392
vn 0.4452 -0.0954 -0.8903
vn 0.4452 0.0954 0.8903
vn -0.8784 0.1882 0.4392
vn -0.4452 -0.0954 0.8903
vn 0.8784 -0.1882 0.4392
vn 0.8784 0.1882 -0.4392
vn -0.4452 0.0954 -0.8903
vn -0.8784 -0.1882 -0.4392
vn 0.4452 -0.0954 -0.8903
f 1//1 2//2 3//3
f 1//1 3//3 4//4
f 6//6 5//5 8//8
f 6//6 8//8 7//7
f 5//5 1//1 4//4
f 5//5 4//4 8//8
f 2//2 6//6 7//7
f 2//2 7//7 3//3
f 4//4 3//3 7//7
f 4//4 7//7 8//8
f 5//5 6//6 2//2
f 5//5 2//2 1//1
f 9//9 10//10 11//11
f 9//9 11//11 12//12
f 14//14 13//13 16//16
f 14//14 16//16 15//15
f 13//13 9//9 12//12
f 13//13 12//12 16//16
f 10//10 14//14 15//15
f 10//10 15//15 11//11
f 12//12 11//11 15//15
f 12//12 15//15 16//16
f 13//13 14//14 10//10
f 13//13 10//10 9//9
f 17//17 18//18 19//19
f 17//17 19//19 20//20
f 22//22 21//21 24//24
f 22//22 24//24 23//23
f 21//21 17//17 20//20
f 21//21 20//20 24//24
f 18//18 22//22 23//23
f 18//18 23//23 19//19
f 20//20 19//19 23//23
f 20//20 23//23 24//24
f 21//21 22//22 18//18
f 21//21 18//18 17//17
f 25//25 26//26 27//27
f 25//25 27//27 28//28
f 30//30 29//29 32//32
f 30//30 32//32 31//31
f 29//29 25//25 28//28
f 29//29 28//28 32//32
f 26//26 30//30 31//31
f 26//26 31//31 27//27
f 28//28 27//27 31//31
f 28//28 31//31 32//32
f 29//29 30//30 26//26
f 29//29 26//26 25//25
f 33//33 34//34 35//35
f 33//33 35//35 36//36
f 38//38 37//37 40//40
f 38//38 40//40 39//39
f 37//37 33//33 36//36
f 37//37 36//36 40//40
f 34//34 38//38 39//39
f 34//34 39//39 35//35
f 36//36 35//35 39//39
f 36//36 39//39 40//40
f 37//37 38//38 34//34
f 37//37 34//34 33//33
f 41//41 42//42 43//43
f 41//41 43//43 44//44
f 46//46 45//45 48//48
f 46//46 48//48 47//47
f 45//45 41//41 44//44
f 45//45 44//44 48//48
f 42//42 46//46 47//47
f 42//42 47//47 43//43
f 44//44 43//43 47//47
f 44//44 47//47 48//48
f 45//45 46//46 42//42
f 45//45 42//42 41//41
f 49//49 50//50 51//51
f 49//49 51//51 52//52
f 54//54 53//53 56//56
f 54//54 56//56 55//55
f 53//53 49//49 52//52
f 53//53 52//52 56//56
f 50//50 54//54 55//55
f 50//50 55//55 51//51
f 52//52 51//51 55//55
f 52//52 55//55 56//56
f 53//53 54//54 50//50
f 53//53 50//50 49//49
f 57//57 58//58 59//59
f 57//57 59//59 60//60
f 62//62 61//61 64//64
f 62//62 64//64 63//63
f 61//61 57//57 60//60
f 61//61 60//60 64//64
f 58//58 62//62 63//63
f 58//58 63//63 59//59
f 60//60 59//59 63//63
f 60//60 63//63 64//64
f 61//61 62//62 58//58
f 61//61 58//58 57//57
f 65//65 66//66 67//67
f 65//65 67//67 68//68
f 70//70 69//69 72//72
f 70//70 72//72 71//71
f 69//69 65//65 68//68
f 69//69 68//68 72//72
f 66//66 70//70 71//71
f 66//66 71//71 67//67
f 68//68 67//67 71//71
f 68//68 71//71 72//72
f 69//69 70//70 66//66
f 69//69 66//66 65//65
f 73//73 74//74 75//75
f 73//73 75//75 76//76
f 78//78 77//77 80//80
f 78//78 80//80 79//79
f 77//77 73//73 76//76
f 77//77 76//76 80//80
f 74//74 78//78 79//79
f 74//74 79//79 75//75
f 76//76 75//75 79//79
f 76//76 79//79 80//80
f 77//77 78//78 74//74
f 77//77 74//74 73//73
f 81//81 82//82 83//83
f 81//81 83//83 84//84
f 86//86 85//85 88//88
f 86//86 88//88 87//87
f 85//85 81//81 84//84
f 85//85 84//84 88//88
f 82//82 86//86 87//87
f 82//82 87//87 83//83
f 84//84 83//83 87//87
f 84//84 87//87 88//88
f 85//85 86//86 82//82
f 85//85 82//82 81//81
f 89//89 90//90 91//91
f 89//89 91//91 92//92
f 94//94 93//93 96//96
f 94//94 96//96 95//95
f 93//93 89//89 92//92
f 93//93 92//92 96//96
f 90//90 94//94 95//95
f 90//90 95//95 91//91
f 92//92 91//91 95//95
f 92//92 95//95 96//96
f 93//93 94//94 90//90
f 93//93 90//90 89//89
