# greenhouse.obj - generated by survival_model_gen
# vertices: 22 faces: 32
mtllib survival.mtl
usemtl greenhouse
v -2.2000 0.0000 -1.7000
v 2.2000 0.0000 -1.7000
v 2.2000 2.2000 -1.7000
v -2.2000 2.2000 -1.7000
v -2.2000 0.0000 1.7000
v 2.2000 0.0000 1.7000
v 2.2000 2.2000 1.7000
v -2.2000 2.2000 1.7000
v -2.4000 2.1500 -1.9000
v 2.4000 2.1500 -1.9000
v -2.4000 2.1500 1.9000
v 2.4000 2.1500 1.9000
v -2.4000 3.0500 0.0000
v 2.4000 3.0500 0.0000
v -2.0000 0.1000 1.6900
v 2.0000 0.1000 1.6900
v 2.0000 2.1000 1.6900
v -2.0000 2.1000 1.6900
v -2.0000 0.1000 1.7500
v 2.0000 0.1000 1.7500
v 2.0000 2.1000 1.7500
v -2.0000 2.1000 1.7500
vn 0.2924 0.5847 0.7567
vn -0.4296 0.8592 0.2780
vn -0.2924 -0.5847 0.7567
vn 0.4296 -0.8592 0.2780
vn 0.4296 0.8592 -0.2780
vn -0.2924 0.5847 -0.7567
vn -0.4296 -0.8592 -0.2780
vn 0.2924 -0.5847 -0.7567
vn 0.0616 -0.9859 0.1557
vn -0.1225 -0.9803 0.1548
vn 0.0908 -0.9691 -0.2295
vn -0.0745 -0.9928 -0.0941
vn 0.1843 -0.9829 0.0000
vn -0.0933 -0.9956 0.0000
vn 0.0075 0.0150 0.9999
vn -0.0299 0.0599 0.9978
vn -0.0075 -0.0150 0.9999
vn 0.0299 -0.0599 0.9978
vn 0.0299 0.0599 -0.9978
vn -0.0075 0.0150 -0.9999
vn -0.0299 -0.0599 -0.9978
vn 0.0075 -0.0150 -0.9999
f 1//1 2//2 3//3
f 1//1 3//3 4//4
f 6//6 5//5 8//8
f 6//6 8//8 7//7
f 5//5 1//1 4//4
f 5//5 4//4 8//8
f 2//2 6//6 7//7
f 2//2 7//7 3//3
f 4//4 3//3 7//7
f 4//4 7//7 8//8
f 5//5 6//6 2//2
f 5//5 2//2 1//1
f 9//9 10//10 12//12
f 9//9 12//12 11//11
f 9//9 10//10 14//14
f 9//9 14//14 13//13
f 11//11 14//14 12//12
f 11//11 13//13 14//14
f 9//9 13//13 11//11
f 10//10 12//12 14//14
f 15//15 16//16 17//17
f 15//15 17//17 18//18
f 20//20 19//19 22//22
f 20//20 22//22 21//21
f 19//19 15//15 18//18
f 19//19 18//18 22//22
f 16//16 20//20 21//21
f 16//16 21//21 17//17
f 18//18 17//17 21//21
f 18//18 21//21 22//22
f 19//19 20//20 16//16
f 19//19 16//16 15//15
