# grinder.obj - generated by survival_model_gen
# vertices: 72 faces: 128
mtllib survival.mtl
usemtl grinder
v -0.9000 0.0000 -0.7000
v 0.9000 0.0000 -0.7000
v 0.9000 1.4000 -0.7000
v -0.9000 1.4000 -0.7000
v -0.9000 0.0000 0.7000
v 0.9000 0.0000 0.7000
v 0.9000 1.4000 0.7000
v -0.9000 1.4000 0.7000
v 0.6000 1.2500 0.0000
v 0.6000 1.9500 0.0000
v 0.5543 1.2500 0.2296
v 0.5543 1.9500 0.2296
v 0.4243 1.2500 0.4243
v 0.4243 1.9500 0.4243
v 0.2296 1.2500 0.5543
v 0.2296 1.9500 0.5543
v 0.0000 1.2500 0.6000
v 0.0000 1.9500 0.6000
v -0.2296 1.2500 0.5543
v -0.2296 1.9500 0.5543
v -0.4243 1.2500 0.4243
v -0.4243 1.9500 0.4243
v -0.5543 1.2500 0.2296
v -0.5543 1.9500 0.2296
v -0.6000 1.2500 0.0000
v -0.6000 1.9500 0.0000
v -0.5543 1.2500 -0.2296
v -0.5543 1.9500 -0.2296
v -0.4243 1.2500 -0.4243
v -0.4243 1.9500 -0.4243
v -0.2296 1.2500 -0.5543
v -0.2296 1.9500 -0.5543
v -0.0000 1.2500 -0.6000
v -0.0000 1.9500 -0.6000
v 0.2296 1.2500 -0.5543
v 0.2296 1.9500 -0.5543
v 0.4243 1.2500 -0.4243
v 0.4243 1.9500 -0.4243
v 0.5543 1.2500 -0.2296
v 0.5543 1.9500 -0.2296
v 0.0000 1.9500 0.0000
v 0.0000 1.2500 0.0000
v 0.1200 1.6500 0.0000
v 0.1200 2.3500 0.0000
v 0.0971 1.6500 0.0705
v 0.0971 2.3500 0.0705
v 0.0371 1.6500 0.1141
v 0.0371 2.3500 0.1141
v -0.0371 1.6500 0.1141
v -0.0371 2.3500 0.1141
v -0.0971 1.6500 0.0705
v -0.0971 2.3500 0.0705
v -0.1200 1.6500 0.0000
v -0.1200 2.3500 0.0000
v -0.0971 1.6500 -0.0705
v -0.0971 2.3500 -0.0705
v -0.0371 1.6500 -0.1141
v -0.0371 2.3500 -0.1141
v 0.0371 1.6500 -0.1141
v 0.0371 2.3500 -0.1141
v 0.0971 1.6500 -0.0705
v 0.0971 2.3500 -0.0705
v 0.0000 2.3500 0.0000
v 0.0000 1.6500 0.0000
v -0.7000 1.3900 -0.6000
v 0.7000 1.3900 -0.6000
v 0.7000 1.4900 -0.6000
v -0.7000 1.4900 -0.6000
v -0.7000 1.3900 0.6000
v 0.7000 1.3900 0.6000
v 0.7000 1.4900 0.6000
v -0.7000 1.4900 0.6000
vn 0.3285 0.4224 0.8448
vn -0.5711 0.7342 0.3671
vn -0.3285 -0.4224 0.8448
vn 0.5711 -0.7342 0.3671
vn 0.5711 0.7342 -0.3671
vn -0.3285 0.4224 -0.8448
vn -0.5711 -0.7342 -0.3671
vn 0.3285 -0.4224 -0.8448
vn -0.8668 0.4953 -0.0575
vn -0.8668 -0.4953 0.0575
vn -0.7788 0.4953 -0.3848
vn -0.8228 -0.4953 -0.2786
vn -0.5723 0.4953 -0.6536
vn -0.6536 -0.4953 -0.5723
vn -0.2786 0.4953 -0.8228
vn -0.3848 -0.4953 -0.7788
vn 0.0575 0.4953 -0.8668
vn -0.0575 -0.4953 -0.8668
vn 0.3848 0.4953 -0.7788
vn 0.2786 -0.4953 -0.8228
vn 0.6536 0.4953 -0.5723
vn 0.5723 -0.4953 -0.6536
vn 0.8228 0.4953 -0.2786
vn 0.7788 -0.4953 -0.3848
vn 0.8668 0.4953 0.0575
vn 0.8668 -0.4953 -0.0575
vn 0.7788 0.4953 0.3848
vn 0.8228 -0.4953 0.2786
vn 0.5723 0.4953 0.6536
vn 0.6536 -0.4953 0.5723
vn 0.2786 0.4953 0.8228
vn 0.3848 -0.4953 0.7788
vn -0.0575 0.4953 0.8668
vn 0.0575 -0.4953 0.8668
vn -0.3848 0.4953 0.7788
vn -0.2786 -0.4953 0.8228
vn -0.6536 0.4953 0.5723
vn -0.5723 -0.4953 0.6536
vn -0.8228 0.4953 0.2786
vn -0.7788 -0.4953 0.3848
vn 0.0000 -1.0000 0.0000
vn 0.0000 1.0000 0.0000
vn -0.9878 0.1129 -0.1070
vn -0.9878 -0.1129 0.1070
vn -0.7363 0.1129 -0.6672
vn -0.8621 -0.1129 -0.4941
vn -0.2035 0.1129 -0.9725
vn -0.4070 -0.1129 -0.9064
vn 0.4070 0.1129 -0.9064
vn 0.2035 -0.1129 -0.9725
vn 0.8621 0.1129 -0.4941
vn 0.7363 -0.1129 -0.6672
vn 0.9878 0.1129 0.1070
vn 0.9878 -0.1129 -0.1070
vn 0.7363 0.1129 0.6672
vn 0.8621 -0.1129 0.4941
vn 0.2035 0.1129 0.9725
vn 0.4070 -0.1129 0.9064
vn -0.4070 0.1129 0.9064
vn -0.2035 -0.1129 0.9725
vn -0.8621 0.1129 0.4941
vn -0.7363 -0.1129 0.6672
vn 0.0000 -1.0000 0.0000
vn 0.0000 1.0000 0.0000
vn 0.0703 0.9840 0.1640
vn -0.0712 0.9966 0.0415
vn -0.0703 -0.9840 0.1640
vn 0.0712 -0.9966 0.0415
vn 0.0712 0.9966 -0.0415
vn -0.0703 0.9840 -0.1640
vn -0.0712 -0.9966 -0.0415
vn 0.0703 -0.9840 -0.1640
f 1//1 2//2 3//3
f 1//1 3//3 4//4
f 6//6 5//5 8//8
f 6//6 8//8 7//7
f 5//5 1//1 4//4
f 5//5 4//4 8//8
f 2//2 6//6 7//7
f 2//2 7//7 3//3
f 4//4 3//3 7//7
f 4//4 7//7 8//8
f 5//5 6//6 2//2
f 5//5 2//2 1//1
f 9//9 11//11 12//12
f 9//9 12//12 10//10
f 11//11 13//13 14//14
f 11//11 14//14 12//12
f 13//13 15//15 16//16
f 13//13 16//16 14//14
f 15//15 17//17 18//18
f 15//15 18//18 16//16
f 17//17 19//19 20//20
f 17//17 20//20 18//18
f 19//19 21//21 22//22
f 19//19 22//22 20//20
f 21//21 23//23 24//24
f 21//21 24//24 22//22
f 23//23 25//25 26//26
f 23//23 26//26 24//24
f 25//25 27//27 28//28
f 25//25 28//28 26//26
f 27//27 29//29 30//30
f 27//27 30//30 28//28
f 29//29 31//31 32//32
f 29//29 32//32 30//30
f 31//31 33//33 34//34
f 31//31 34//34 32//32
f 33//33 35//35 36//36
f 33//33 36//36 34//34
f 35//35 37//37 38//38
f 35//35 38//38 36//36
f 37//37 39//39 40//40
f 37//37 40//40 38//38
f 39//39 9//9 10//10
f 39//39 10//10 40//40
f 41//41 10//10 12//12
f 41//41 12//12 14//14
f 41//41 14//14 16//16
f 41//41 16//16 18//18
f 41//41 18//18 20//20
f 41//41 20//20 22//22
f 41//41 22//22 24//24
f 41//41 24//24 26//26
f 41//41 26//26 28//28
f 41//41 28//28 30//30
f 41//41 30//30 32//32
f 41//41 32//32 34//34
f 41//41 34//34 36//36
f 41//41 36//36 38//38
f 41//41 38//38 40//40
f 41//41 40//40 10//10
f 42//42 11//11 9//9
f 42//42 13//13 11//11
f 42//42 15//15 13//13
f 42//42 17//17 15//15
f 42//42 19//19 17//17
f 42//42 21//21 19//19
f 42//42 23//23 21//21
f 42//42 25//25 23//23
f 42//42 27//27 25//25
f 42//42 29//29 27//27
f 42//42 31//31 29//29
f 42//42 33//33 31//31
f 42//42 35//35 33//33
f 42//42 37//37 35//35
f 42//42 39//39 37//37
f 42//42 9//9 39//39
f 43//43 45//45 46//46
f 43//43 46//46 44//44
f 45//45 47//47 48//48
f 45//45 48//48 46//46
f 47//47 49//49 50//50
f 47//47 50//50 48//48
f 49//49 51//51 52//52
f 49//49 52//52 50//50
f 51//51 53//53 54//54
f 51//51 54//54 52//52
f 53//53 55//55 56//56
f 53//53 56//56 54//54
f 55//55 57//57 58//58
f 55//55 58//58 56//56
f 57//57 59//59 60//60
f 57//57 60//60 58//58
f 59//59 61//61 62//62
f 59//59 62//62 60//60
f 61//61 43//43 44//44
f 61//61 44//44 62//62
f 63//63 44//44 46//46
f 63//63 46//46 48//48
f 63//63 48//48 50//50
f 63//63 50//50 52//52
f 63//63 52//52 54//54
f 63//63 54//54 56//56
f 63//63 56//56 58//58
f 63//63 58//58 60//60
f 63//63 60//60 62//62
f 63//63 62//62 44//44
f 64//64 45//45 43//43
f 64//64 47//47 45//45
f 64//64 49//49 47//47
f 64//64 51//51 49//49
f 64//64 53//53 51//51
f 64//64 55//55 53//53
f 64//64 57//57 55//55
f 64//64 59//59 57//57
f 64//64 61//61 59//59
f 64//64 43//43 61//61
f 65//65 66//66 67//67
f 65//65 67//67 68//68
f 70//70 69//69 72//72
f 70//70 72//72 71//71
f 69//69 65//65 68//68
f 69//69 68//68 72//72
f 66//66 70//70 71//71
f 66//66 71//71 67//67
f 68//68 67//67 71//71
f 68//68 71//71 72//72
f 69//69 70//70 66//66
f 69//69 66//66 65//65
