# hide.obj - generated by survival_model_gen
# vertices: 12 faces: 14
mtllib survival.mtl
usemtl hide
v -2.2000 0.1600 -1.8000
v 2.2000 0.1600 -1.8000
v 2.2000 0.1600 1.8000
v -2.2000 0.1600 1.8000
v -2.0000 0.1200 -1.6000
v 2.0000 0.1200 -1.6000
v 2.0000 0.5200 -1.6000
v -2.0000 0.5200 -1.6000
v -2.0000 0.1200 1.6000
v 2.0000 0.1200 1.6000
v 2.0000 0.5200 1.6000
v -2.0000 0.5200 1.6000
vn 0.0000 -1.0000 0.0000
vn 0.0000 -1.0000 0.0000
vn 0.0000 -1.0000 0.0000
vn 0.0000 -1.0000 0.0000
vn 0.0966 0.9656 0.2414
vn -0.0993 0.9931 0.0621
vn -0.0966 -0.9656 0.2414
vn 0.0993 -0.9931 0.0621
vn 0.0993 0.9931 -0.0621
vn -0.0966 0.9656 -0.2414
vn -0.0993 -0.9931 -0.0621
vn 0.0966 -0.9656 -0.2414
f 1//1 2//2 3//3
f 1//1 3//3 4//4
f 5//5 6//6 7//7
f 5//5 7//7 8//8
f 10//10 9//9 12//12
f 10//10 12//12 11//11
f 9//9 5//5 8//8
f 9//9 8//8 12//12
f 6//6 10//10 11//11
f 6//6 11//11 7//7
f 8//8 7//7 11//11
f 8//8 11//11 12//12
f 9//9 10//10 6//6
f 9//9 6//6 5//5
