# iron.obj - generated by survival_model_gen
# vertices: 24 faces: 36
mtllib survival.mtl
usemtl iron
v -1.8000 0.0000 -1.0000
v 1.8000 0.0000 -1.0000
v 1.8000 1.6000 -1.0000
v -1.8000 1.6000 -1.0000
v -1.8000 0.0000 1.0000
v 1.8000 0.0000 1.0000
v 1.8000 1.6000 1.0000
v -1.8000 1.6000 1.0000
v -1.6000 1.4000 -0.8000
v 1.6000 1.4000 -0.8000
v 1.6000 1.8000 -0.8000
v -1.6000 1.8000 -0.8000
v -1.6000 1.4000 0.8000
v 1.6000 1.4000 0.8000
v 1.6000 1.8000 0.8000
v -1.6000 1.8000 0.8000
v -1.6000 0.0800 -0.8000
v -0.8000 0.0800 -0.8000
v -0.8000 0.7200 -0.8000
v -1.6000 0.7200 -0.8000
v -1.6000 0.0800 0.8000
v -0.8000 0.0800 0.8000
v -0.8000 0.7200 0.8000
v -1.6000 0.7200 0.8000
vn 0.2293 0.5159 0.8254
vn -0.3815 0.8583 0.3433
vn -0.2293 -0.5159 0.8254
vn 0.3815 -0.8583 0.3433
vn 0.3815 0.8583 -0.3433
vn -0.2293 0.5159 -0.8254
vn -0.3815 -0.8583 -0.3433
vn 0.2293 -0.5159 -0.8254
vn 0.1111 0.8889 0.4444
vn -0.1231 0.9847 0.1231
vn -0.1111 -0.8889 0.4444
vn 0.1231 -0.9847 0.1231
vn 0.1231 0.9847 -0.1231
vn -0.1111 0.8889 -0.4444
vn -0.1231 -0.9847 -0.1231
vn 0.1111 -0.8889 -0.4444
vn 0.5298 0.6623 0.5298
vn -0.6172 0.7715 0.1543
vn -0.5298 -0.6623 0.5298
vn 0.6172 -0.7715 0.1543
vn 0.6172 0.7715 -0.1543
vn -0.5298 0.6623 -0.5298
vn -0.6172 -0.7715 -0.1543
vn 0.5298 -0.6623 -0.5298
f 1//1 2//2 3//3
f 1//1 3//3 4//4
f 6//6 5//5 8//8
f 6//6 8//8 7//7
f 5//5 1//1 4//4
f 5//5 4//4 8//8
f 2//2 6//6 7//7
f 2//2 7//7 3//3
f 4//4 3//3 7//7
f 4//4 7//7 8//8
f 5//5 6//6 2//2
f 5//5 2//2 1//1
f 9//9 10//10 11//11
f 9//9 11//11 12//12
f 14//14 13//13 16//16
f 14//14 16//16 15//15
f 13//13 9//9 12//12
f 13//13 12//12 16//16
f 10//10 14//14 15//15
f 10//10 15//15 11//11
f 12//12 11//11 15//15
f 12//12 15//15 16//16
f 13//13 14//14 10//10
f 13//13 10//10 9//9
f 17//17 18//18 19//19
f 17//17 19//19 20//20
f 22//22 21//21 24//24
f 22//22 24//24 23//23
f 21//21 17//17 20//20
f 21//21 20//20 24//24
f 18//18 22//22 23//23
f 18//18 23//23 19//19
f 20//20 19//19 23//23
f 20//20 23//23 24//24
f 21//21 22//22 18//18
f 21//21 18//18 17//17
