# kitchen.obj - generated by survival_model_gen
# vertices: 102 faces: 184
mtllib survival.mtl
usemtl kitchen
v -1.4000 0.0000 -0.7000
v 1.4000 0.0000 -0.7000
v 1.4000 1.8000 -0.7000
v -1.4000 1.8000 -0.7000
v -1.4000 0.0000 0.7000
v 1.4000 0.0000 0.7000
v 1.4000 1.8000 0.7000
v -1.4000 1.8000 0.7000
v -0.3200 1.8400 0.0000
v -0.3200 1.9600 0.0000
v -0.3575 1.8400 0.1400
v -0.3575 1.9600 0.1400
v -0.4600 1.8400 0.2425
v -0.4600 1.9600 0.2425
v -0.6000 1.8400 0.2800
v -0.6000 1.9600 0.2800
v -0.7400 1.8400 0.2425
v -0.7400 1.9600 0.2425
v -0.8425 1.8400 0.1400
v -0.8425 1.9600 0.1400
v -0.8800 1.8400 0.0000
v -0.8800 1.9600 0.0000
v -0.8425 1.8400 -0.1400
v -0.8425 1.9600 -0.1400
v -0.7400 1.8400 -0.2425
v -0.7400 1.9600 -0.2425
v -0.6000 1.8400 -0.2800
v -0.6000 1.9600 -0.2800
v -0.4600 1.8400 -0.2425
v -0.4600 1.9600 -0.2425
v -0.3575 1.8400 -0.1400
v -0.3575 1.9600 -0.1400
v -0.6000 1.9600 0.0000
v -0.6000 1.8400 0.0000
v 0.8800 1.8400 0.0000
v 0.8800 1.9600 0.0000
v 0.8425 1.8400 0.1400
v 0.8425 1.9600 0.1400
v 0.7400 1.8400 0.2425
v 0.7400 1.9600 0.2425
v 0.6000 1.8400 0.2800
v 0.6000 1.9600 0.2800
v 0.4600 1.8400 0.2425
v 0.4600 1.9600 0.2425
v 0.3575 1.8400 0.1400
v 0.3575 1.9600 0.1400
v 0.3200 1.8400 0.0000
v 0.3200 1.9600 0.0000
v 0.3575 1.8400 -0.1400
v 0.3575 1.9600 -0.1400
v 0.4600 1.8400 -0.2425
v 0.4600 1.9600 -0.2425
v 0.6000 1.8400 -0.2800
v 0.6000 1.9600 -0.2800
v 0.7400 1.8400 -0.2425
v 0.7400 1.9600 -0.2425
v 0.8425 1.8400 -0.1400
v 0.8425 1.9600 -0.1400
v 0.6000 1.9600 0.0000
v 0.6000 1.8400 0.0000
v 0.3600 1.9500 0.3600
v 0.3600 2.4500 0.3600
v 0.3326 1.9500 0.4978
v 0.3326 2.4500 0.4978
v 0.2546 1.9500 0.6146
v 0.2546 2.4500 0.6146
v 0.1378 1.9500 0.6926
v 0.1378 2.4500 0.6926
v 0.0000 1.9500 0.7200
v 0.0000 2.4500 0.7200
v -0.1378 1.9500 0.6926
v -0.1378 2.4500 0.6926
v -0.2546 1.9500 0.6146
v -0.2546 2.4500 0.6146
v -0.3326 1.9500 0.4978
v -0.3326 2.4500 0.4978
v -0.3600 1.9500 0.3600
v -0.3600 2.4500 0.3600
v -0.3326 1.9500 0.2222
v -0.3326 2.4500 0.2222
v -0.2546 1.9500 0.1054
v -0.2546 2.4500 0.1054
v -0.1378 1.9500 0.0274
v -0.1378 2.4500 0.0274
v -0.0000 1.9500 0.0000
v -0.0000 2.4500 0.0000
v 0.1378 1.9500 0.0274
v 0.1378 2.4500 0.0274
v 0.2546 1.9500 0.1054
v 0.2546 2.4500 0.1054
v 0.3326 1.9500 0.2222
v 0.3326 2.4500 0.2222
v 0.0000 2.4500 0.3600
v 0.0000 1.9500 0.3600
v -1.3000 1.7900 -0.6000
v 1.3000 1.7900 -0.6000
v 1.3000 1.8900 -0.6000
v -1.3000 1.8900 -0.6000
v -1.3000 1.7900 0.6000
v 1.3000 1.7900 0.6000
v 1.3000 1.8900 0.6000
v -1.3000 1.8900 0.6000
vn 0.2269 0.3530 0.9077
vn -0.4757 0.7399 0.4757
vn -0.2269 -0.3530 0.9077
vn 0.4757 -0.7399 0.4757
vn 0.4757 0.7399 -0.4757
vn -0.2269 0.3530 -0.9077
vn -0.4757 -0.7399 -0.4757
vn 0.2269 -0.3530 -0.9077
vn -0.5401 0.8402 -0.0482
vn -0.5401 -0.8402 0.0482
vn -0.4436 0.8402 -0.3118
vn -0.4919 -0.8402 -0.2283
vn -0.2283 0.8402 -0.4919
vn -0.3118 -0.8402 -0.4436
vn 0.0482 0.8402 -0.5401
vn -0.0482 -0.8402 -0.5401
vn 0.3118 0.8402 -0.4436
vn 0.2283 -0.8402 -0.4919
vn 0.4919 0.8402 -0.2283
vn 0.4436 -0.8402 -0.3118
vn 0.5401 0.8402 0.0482
vn 0.5401 -0.8402 -0.0482
vn 0.4436 0.8402 0.3118
vn 0.4919 -0.8402 0.2283
vn 0.2283 0.8402 0.4919
vn 0.3118 -0.8402 0.4436
vn -0.0482 0.8402 0.5401
vn 0.0482 -0.8402 0.5401
vn -0.3118 0.8402 0.4436
vn -0.2283 -0.8402 0.4919
vn -0.4919 0.8402 0.2283
vn -0.4436 -0.8402 0.3118
vn 0.0000 -1.0000 0.0000
vn 0.0000 1.0000 0.0000
vn -0.5401 0.8402 -0.0482
vn -0.5401 -0.8402 0.0482
vn -0.4436 0.8402 -0.3118
vn -0.4919 -0.8402 -0.2283
vn -0.2283 0.8402 -0.4919
vn -0.3118 -0.8402 -0.4436
vn 0.0482 0.8402 -0.5401
vn -0.0482 -0.8402 -0.5401
vn 0.3118 0.8402 -0.4436
vn 0.2283 -0.8402 -0.4919
vn 0.4919 0.8402 -0.2283
vn 0.4436 -0.8402 -0.3118
vn 0.5401 0.8402 0.0482
vn 0.5401 -0.8402 -0.0482
vn 0.4436 0.8402 0.3118
vn 0.4919 -0.8402 0.2283
vn 0.2283 0.8402 0.4919
vn 0.3118 -0.8402 0.4436
vn -0.0482 0.8402 0.5401
vn 0.0482 -0.8402 0.5401
vn -0.3118 0.8402 0.4436
vn -0.2283 -0.8402 0.4919
vn -0.4919 0.8402 0.2283
vn -0.4436 -0.8402 0.3118
vn 0.0000 -1.0000 0.0000
vn 0.0000 1.0000 0.0000
vn -0.8999 0.4320 -0.0597
vn -0.8999 -0.4320 0.0597
vn -0.8086 0.4320 -0.3995
vn -0.8542 -0.4320 -0.2893
vn -0.5941 0.4320 -0.6785
vn -0.6785 -0.4320 -0.5941
vn -0.2893 0.4320 -0.8542
vn -0.3995 -0.4320 -0.8086
vn 0.0597 0.4320 -0.8999
vn -0.0597 -0.4320 -0.8999
vn 0.3995 0.4320 -0.8086
vn 0.2893 -0.4320 -0.8542
vn 0.6785 0.4320 -0.5941
vn 0.5941 -0.4320 -0.6785
vn 0.8542 0.4320 -0.2893
vn 0.8086 -0.4320 -0.3995
vn 0.8999 0.4320 0.0597
vn 0.8999 -0.4320 -0.0597
vn 0.8086 0.4320 0.3995
vn 0.8542 -0.4320 0.2893
vn 0.5941 0.4320 0.6785
vn 0.6785 -0.4320 0.5941
vn 0.2893 0.4320 0.8542
vn 0.3995 -0.4320 0.8086
vn -0.0597 0.4320 0.8999
vn 0.0597 -0.4320 0.8999
vn -0.3995 0.4320 0.8086
vn -0.2893 -0.4320 0.8542
vn -0.6785 0.4320 0.5941
vn -0.5941 -0.4320 0.6785
vn -0.8542 0.4320 0.2893
vn -0.8086 -0.4320 0.3995
vn 0.0000 -1.0000 0.0000
vn 0.0000 1.0000 0.0000
vn 0.0379 0.9857 0.1643
vn -0.0384 0.9984 0.0416
vn -0.0379 -0.9857 0.1643
vn 0.0384 -0.9984 0.0416
vn 0.0384 0.9984 -0.0416
vn -0.0379 0.9857 -0.1643
vn -0.0384 -0.9984 -0.0416
vn 0.0379 -0.9857 -0.1643
f 1//1 2//2 3//3
f 1//1 3//3 4//4
f 6//6 5//5 8//8
f 6//6 8//8 7//7
f 5//5 1//1 4//4
f 5//5 4//4 8//8
f 2//2 6//6 7//7
f 2//2 7//7 3//3
f 4//4 3//3 7//7
f 4//4 7//7 8//8
f 5//5 6//6 2//2
f 5//5 2//2 1//1
f 9//9 11//11 12//12
f 9//9 12//12 10//10
f 11//11 13//13 14//14
f 11//11 14//14 12//12
f 13//13 15//15 16//16
f 13//13 16//16 14//14
f 15//15 17//17 18//18
f 15//15 18//18 16//16
f 17//17 19//19 20//20
f 17//17 20//20 18//18
f 19//19 21//21 22//22
f 19//19 22//22 20//20
f 21//21 23//23 24//24
f 21//21 24//24 22//22
f 23//23 25//25 26//26
f 23//23 26//26 24//24
f 25//25 27//27 28//28
f 25//25 28//28 26//26
f 27//27 29//29 30//30
f 27//27 30//30 28//28
f 29//29 31//31 32//32
f 29//29 32//32 30//30
f 31//31 9//9 10//10
f 31//31 10//10 32//32
f 33//33 10//10 12//12
f 33//33 12//12 14//14
f 33//33 14//14 16//16
f 33//33 16//16 18//18
f 33//33 18//18 20//20
f 33//33 20//20 22//22
f 33//33 22//22 24//24
f 33//33 24//24 26//26
f 33//33 26//26 28//28
f 33//33 28//28 30//30
f 33//33 30//30 32//32
f 33//33 32//32 10//10
f 34//34 11//11 9//9
f 34//34 13//13 11//11
f 34//34 15//15 13//13
f 34//34 17//17 15//15
f 34//34 19//19 17//17
f 34//34 21//21 19//19
f 34//34 23//23 21//21
f 34//34 25//25 23//23
f 34//34 27//27 25//25
f 34//34 29//29 27//27
f 34//34 31//31 29//29
f 34//34 9//9 31//31
f 35//35 37//37 38//38
f 35//35 38//38 36//36
f 37//37 39//39 40//40
f 37//37 40//40 38//38
f 39//39 41//41 42//42
f 39//39 42//42 40//40
f 41//41 43//43 44//44
f 41//41 44//44 42//42
f 43//43 45//45 46//46
f 43//43 46//46 44//44
f 45//45 47//47 48//48
f 45//45 48//48 46//46
f 47//47 49//49 50//50
f 47//47 50//50 48//48
f 49//49 51//51 52//52
f 49//49 52//52 50//50
f 51//51 53//53 54//54
f 51//51 54//54 52//52
f 53//53 55//55 56//56
f 53//53 56//56 54//54
f 55//55 57//57 58//58
f 55//55 58//58 56//56
f 57//57 35//35 36//36
f 57//57 36//36 58//58
f 59//59 36//36 38//38
f 59//59 38//38 40//40
f 59//59 40//40 42//42
f 59//59 42//42 44//44
f 59//59 44//44 46//46
f 59//59 46//46 48//48
f 59//59 48//48 50//50
f 59//59 50//50 52//52
f 59//59 52//52 54//54
f 59//59 54//54 56//56
f 59//59 56//56 58//58
f 59//59 58//58 36//36
f 60//60 37//37 35//35
f 60//60 39//39 37//37
f 60//60 41//41 39//39
f 60//60 43//43 41//41
f 60//60 45//45 43//43
f 60//60 47//47 45//45
f 60//60 49//49 47//47
f 60//60 51//51 49//49
f 60//60 53//53 51//51
f 60//60 55//55 53//53
f 60//60 57//57 55//55
f 60//60 35//35 57//57
f 61//61 63//63 64//64
f 61//61 64//64 62//62
f 63//63 65//65 66//66
f 63//63 66//66 64//64
f 65//65 67//67 68//68
f 65//65 68//68 66//66
f 67//67 69//69 70//70
f 67//67 70//70 68//68
f 69//69 71//71 72//72
f 69//69 72//72 70//70
f 71//71 73//73 74//74
f 71//71 74//74 72//72
f 73//73 75//75 76//76
f 73//73 76//76 74//74
f 75//75 77//77 78//78
f 75//75 78//78 76//76
f 77//77 79//79 80//80
f 77//77 80//80 78//78
f 79//79 81//81 82//82
f 79//79 82//82 80//80
f 81//81 83//83 84//84
f 81//81 84//84 82//82
f 83//83 85//85 86//86
f 83//83 86//86 84//84
f 85//85 87//87 88//88
f 85//85 88//88 86//86
f 87//87 89//89 90//90
f 87//87 90//90 88//88
f 89//89 91//91 92//92
f 89//89 92//92 90//90
f 91//91 61//61 62//62
f 91//91 62//62 92//92
f 93//93 62//62 64//64
f 93//93 64//64 66//66
f 93//93 66//66 68//68
f 93//93 68//68 70//70
f 93//93 70//70 72//72
f 93//93 72//72 74//74
f 93//93 74//74 76//76
f 93//93 76//76 78//78
f 93//93 78//78 80//80
f 93//93 80//80 82//82
f 93//93 82//82 84//84
f 93//93 84//84 86//86
f 93//93 86//86 88//88
f 93//93 88//88 90//90
f 93//93 90//90 92//92
f 93//93 92//92 62//62
f 94//94 63//63 61//61
f 94//94 65//65 63//63
f 94//94 67//67 65//65
f 94//94 69//69 67//67
f 94//94 71//71 69//69
f 94//94 73//73 71//71
f 94//94 75//75 73//73
f 94//94 77//77 75//75
f 94//94 79//79 77//77
f 94//94 81//81 79//79
f 94//94 83//83 81//81
f 94//94 85//85 83//83
f 94//94 87//87 85//85
f 94//94 89//89 87//87
f 94//94 91//91 89//89
f 94//94 61//61 91//91
f 95//95 96//96 97//97
f 95//95 97//97 98//98
f 100//100 99//99 102//102
f 100//100 102//102 101//101
f 99//99 95//95 98//98
f 99//99 98//98 102//102
f 96//96 100//100 101//101
f 96//96 101//101 97//97
f 98//98 97//97 101//101
f 98//98 101//101 102//102
f 99//99 100//100 96//96
f 99//99 96//96 95//95
