# order_board.obj - generated by survival_model_gen
# vertices: 32 faces: 48
mtllib survival.mtl
usemtl order_board
v -1.1000 0.5000 -0.1200
v 1.1000 0.5000 -0.1200
v 1.1000 3.7000 -0.1200
v -1.1000 3.7000 -0.1200
v -1.1000 0.5000 0.1200
v 1.1000 0.5000 0.1200
v 1.1000 3.7000 0.1200
v -1.1000 3.7000 0.1200
v -1.0200 0.0000 -0.1200
v -0.7800 0.0000 -0.1200
v -0.7800 1.4000 -0.1200
v -1.0200 1.4000 -0.1200
v -1.0200 0.0000 0.1200
v -0.7800 0.0000 0.1200
v -0.7800 1.4000 0.1200
v -1.0200 1.4000 0.1200
v 0.7800 0.0000 -0.1200
v 1.0200 0.0000 -0.1200
v 1.0200 1.4000 -0.1200
v 0.7800 1.4000 -0.1200
v 0.7800 0.0000 0.1200
v 1.0200 0.0000 0.1200
v 1.0200 1.4000 0.1200
v 0.7800 1.4000 0.1200
v -0.7000 1.8000 0.1100
v 0.7000 1.8000 0.1100
v 0.7000 2.8000 0.1100
v -0.7000 2.8000 0.1100
v -0.7000 1.8000 0.1700
v 0.7000 1.8000 0.1700
v 0.7000 2.8000 0.1700
v -0.7000 2.8000 0.1700
vn 0.0544 0.0374 0.9978
vn -0.2109 0.1450 0.9667
vn -0.0544 -0.0374 0.9978
vn 0.2109 -0.1450 0.9667
vn 0.2109 0.1450 -0.9667
vn -0.0544 0.0374 -0.9978
vn -0.2109 -0.1450 -0.9667
vn 0.0544 -0.0374 -0.9978
vn 0.4459 0.0764 0.8918
vn -0.8841 0.1516 0.4420
vn -0.4459 -0.0764 0.8918
vn 0.8841 -0.1516 0.4420
vn 0.8841 0.1516 -0.4420
vn -0.4459 0.0764 -0.8918
vn -0.8841 -0.1516 -0.4420
vn 0.4459 -0.0764 -0.8918
vn 0.4459 0.0764 0.8918
vn -0.8841 0.1516 0.4420
vn -0.4459 -0.0764 0.8918
vn 0.8841 -0.1516 0.4420
vn 0.8841 0.1516 -0.4420
vn -0.4459 0.0764 -0.8918
vn -0.8841 -0.1516 -0.4420
vn 0.4459 -0.0764 -0.8918
vn 0.0214 0.0300 0.9993
vn -0.0848 0.1187 0.9893
vn -0.0214 -0.0300 0.9993
vn 0.0848 -0.1187 0.9893
vn 0.0848 0.1187 -0.9893
vn -0.0214 0.0300 -0.9993
vn -0.0848 -0.1187 -0.9893
vn 0.0214 -0.0300 -0.9993
f 1//1 2//2 3//3
f 1//1 3//3 4//4
f 6//6 5//5 8//8
f 6//6 8//8 7//7
f 5//5 1//1 4//4
f 5//5 4//4 8//8
f 2//2 6//6 7//7
f 2//2 7//7 3//3
f 4//4 3//3 7//7
f 4//4 7//7 8//8
f 5//5 6//6 2//2
f 5//5 2//2 1//1
f 9//9 10//10 11//11
f 9//9 11//11 12//12
f 14//14 13//13 16//16
f 14//14 16//16 15//15
f 13//13 9//9 12//12
f 13//13 12//12 16//16
f 10//10 14//14 15//15
f 10//10 15//15 11//11
f 12//12 11//11 15//15
f 12//12 15//15 16//16
f 13//13 14//14 10//10
f 13//13 10//10 9//9
f 17//17 18//18 19//19
f 17//17 19//19 20//20
f 22//22 21//21 24//24
f 22//22 24//24 23//23
f 21//21 17//17 20//20
f 21//21 20//20 24//24
f 18//18 22//22 23//23
f 18//18 23//23 19//19
f 20//20 19//19 23//23
f 20//20 23//23 24//24
f 21//21 22//22 18//18
f 21//21 18//18 17//17
f 25//25 26//26 27//27
f 25//25 27//27 28//28
f 30//30 29//29 32//32
f 30//30 32//32 31//31
f 29//29 25//25 28//28
f 29//29 28//28 32//32
f 26//26 30//30 31//31
f 26//26 31//31 27//27
f 28//28 27//27 31//31
f 28//28 31//31 32//32
f 29//29 30//30 26//26
f 29//29 26//26 25//25
