# potion.obj - generated by survival_model_gen
# vertices: 104 faces: 192
mtllib survival.mtl
usemtl potion
v 0.4000 0.0000 0.0000
v 0.4000 0.9600 0.0000
v 0.3464 0.0000 0.2000
v 0.3464 0.9600 0.2000
v 0.2000 0.0000 0.3464
v 0.2000 0.9600 0.3464
v 0.0000 0.0000 0.4000
v 0.0000 0.9600 0.4000
v -0.2000 0.0000 0.3464
v -0.2000 0.9600 0.3464
v -0.3464 0.0000 0.2000
v -0.3464 0.9600 0.2000
v -0.4000 0.0000 0.0000
v -0.4000 0.9600 0.0000
v -0.3464 0.0000 -0.2000
v -0.3464 0.9600 -0.2000
v -0.2000 0.0000 -0.3464
v -0.2000 0.9600 -0.3464
v -0.0000 0.0000 -0.4000
v -0.0000 0.9600 -0.4000
v 0.2000 0.0000 -0.3464
v 0.2000 0.9600 -0.3464
v 0.3464 0.0000 -0.2000
v 0.3464 0.9600 -0.2000
v 0.0000 0.9600 0.0000
v 0.0000 0.0000 0.0000
v 0.8000 0.9600 0.0000
v 0.8000 2.5600 0.0000
v 0.7391 0.9600 0.3061
v 0.7391 2.5600 0.3061
v 0.5657 0.9600 0.5657
v 0.5657 2.5600 0.5657
v 0.3061 0.9600 0.7391
v 0.3061 2.5600 0.7391
v 0.0000 0.9600 0.8000
v 0.0000 2.5600 0.8000
v -0.3061 0.9600 0.7391
v -0.3061 2.5600 0.7391
v -0.5657 0.9600 0.5657
v -0.5657 2.5600 0.5657
v -0.7391 0.9600 0.3061
v -0.7391 2.5600 0.3061
v -0.8000 0.9600 0.0000
v -0.8000 2.5600 0.0000
v -0.7391 0.9600 -0.3061
v -0.7391 2.5600 -0.3061
v -0.5657 0.9600 -0.5657
v -0.5657 2.5600 -0.5657
v -0.3061 0.9600 -0.7391
v -0.3061 2.5600 -0.7391
v -0.0000 0.9600 -0.8000
v -0.0000 2.5600 -0.8000
v 0.3061 0.9600 -0.7391
v 0.3061 2.5600 -0.7391
v 0.5657 0.9600 -0.5657
v 0.5657 2.5600 -0.5657
v 0.7391 0.9600 -0.3061
v 0.7391 2.5600 -0.3061
v 0.0000 2.5600 0.0000
v 0.0000 0.9600 0.0000
v 0.3200 2.4800 0.0000
v 0.3200 3.2800 0.0000
v 0.2589 2.4800 0.1881
v 0.2589 3.2800 0.1881
v 0.0989 2.4800 0.3043
v 0.0989 3.2800 0.3043
v -0.0989 2.4800 0.3043
v -0.0989 3.2800 0.3043
v -0.2589 2.4800 0.1881
v -0.2589 3.2800 0.1881
v -0.3200 2.4800 0.0000
v -0.3200 3.2800 0.0000
v -0.2589 2.4800 -0.1881
v -0.2589 3.2800 -0.1881
v -0.0989 2.4800 -0.3043
v -0.0989 3.2800 -0.3043
v 0.0989 2.4800 -0.3043
v 0.0989 3.2800 -0.3043
v 0.2589 2.4800 -0.1881
v 0.2589 3.2800 -0.1881
v 0.0000 3.2800 0.0000
v 0.0000 2.4800 0.0000
v 0.4000 3.2800 0.0000
v 0.4000 3.7600 0.0000
v 0.3236 3.2800 0.2351
v 0.3236 3.7600 0.2351
v 0.1236 3.2800 0.3804
v 0.1236 3.7600 0.3804
v -0.1236 3.2800 0.3804
v -0.1236 3.7600 0.3804
v -0.3236 3.2800 0.2351
v -0.3236 3.7600 0.2351
v -0.4000 3.2800 0.0000
v -0.4000 3.7600 0.0000
v -0.3236 3.2800 -0.2351
v -0.3236 3.7600 -0.2351
v -0.1236 3.2800 -0.3804
v -0.1236 3.7600 -0.3804
v 0.1236 3.2800 -0.3804
v 0.1236 3.7600 -0.3804
v 0.3236 3.2800 -0.2351
v 0.3236 3.7600 -0.2351
v 0.0000 3.7600 0.0000
v 0.0000 3.2800 0.0000
vn -0.9600 0.2667 -0.0857
vn -0.9600 -0.2667 0.0857
vn -0.7885 0.2667 -0.5542
vn -0.8742 -0.2667 -0.4057
vn -0.4057 0.2667 -0.8742
vn -0.5542 -0.2667 -0.7885
vn 0.0857 0.2667 -0.9600
vn -0.0857 -0.2667 -0.9600
vn 0.5542 0.2667 -0.7885
vn 0.4057 -0.2667 -0.8742
vn 0.8742 0.2667 -0.4057
vn 0.7885 -0.2667 -0.5542
vn 0.9600 0.2667 0.0857
vn 0.9600 -0.2667 -0.0857
vn 0.7885 0.2667 0.5542
vn 0.8742 -0.2667 0.4057
vn 0.4057 0.2667 0.8742
vn 0.5542 -0.2667 0.7885
vn -0.0857 0.2667 0.9600
vn 0.0857 -0.2667 0.9600
vn -0.5542 0.2667 0.7885
vn -0.4057 -0.2667 0.8742
vn -0.8742 0.2667 0.4057
vn -0.7885 -0.2667 0.5542
vn 0.0000 -1.0000 0.0000
vn 0.0000 1.0000 0.0000
vn -0.9468 0.3156 -0.0628
vn -0.9468 -0.3156 0.0628
vn -0.8507 0.3156 -0.4203
vn -0.8988 -0.3156 -0.3043
vn -0.6251 0.3156 -0.7139
vn -0.7139 -0.3156 -0.6251
vn -0.3043 0.3156 -0.8988
vn -0.4203 -0.3156 -0.8507
vn 0.0628 0.3156 -0.9468
vn -0.0628 -0.3156 -0.9468
vn 0.4203 0.3156 -0.8507
vn 0.3043 -0.3156 -0.8988
vn 0.7139 0.3156 -0.6251
vn 0.6251 -0.3156 -0.7139
vn 0.8988 0.3156 -0.3043
vn 0.8507 -0.3156 -0.4203
vn 0.9468 0.3156 0.0628
vn 0.9468 -0.3156 -0.0628
vn 0.8507 0.3156 0.4203
vn 0.8988 -0.3156 0.3043
vn 0.6251 0.3156 0.7139
vn 0.7139 -0.3156 0.6251
vn 0.3043 0.3156 0.8988
vn 0.4203 -0.3156 0.8507
vn -0.0628 0.3156 0.9468
vn 0.0628 -0.3156 0.9468
vn -0.4203 0.3156 0.8507
vn -0.3043 -0.3156 0.8988
vn -0.7139 0.3156 0.6251
vn -0.6251 -0.3156 0.7139
vn -0.8988 0.3156 0.3043
vn -0.8507 -0.3156 0.4203
vn 0.0000 -1.0000 0.0000
vn 0.0000 1.0000 0.0000
vn -0.9610 0.2563 -0.1041
vn -0.9610 -0.2563 0.1041
vn -0.7163 0.2563 -0.6491
vn -0.8386 -0.2563 -0.4807
vn -0.1980 0.2563 -0.9461
vn -0.3959 -0.2563 -0.8818
vn 0.3959 0.2563 -0.8818
vn 0.1980 -0.2563 -0.9461
vn 0.8386 0.2563 -0.4807
vn 0.7163 -0.2563 -0.6491
vn 0.9610 0.2563 0.1041
vn 0.9610 -0.2563 -0.1041
vn 0.7163 0.2563 0.6491
vn 0.8386 -0.2563 0.4807
vn 0.1980 0.2563 0.9461
vn 0.3959 -0.2563 0.8818
vn -0.3959 0.2563 0.8818
vn -0.1980 -0.2563 0.9461
vn -0.8386 0.2563 0.4807
vn -0.7163 -0.2563 0.6491
vn 0.0000 -1.0000 0.0000
vn 0.0000 1.0000 0.0000
vn -0.8703 0.4835 -0.0943
vn -0.8703 -0.4835 0.0943
vn -0.6487 0.4835 -0.5878
vn -0.7595 -0.4835 -0.4353
vn -0.1793 0.4835 -0.8568
vn -0.3586 -0.4835 -0.7985
vn 0.3586 0.4835 -0.7985
vn 0.1793 -0.4835 -0.8568
vn 0.7595 0.4835 -0.4353
vn 0.6487 -0.4835 -0.5878
vn 0.8703 0.4835 0.0943
vn 0.8703 -0.4835 -0.0943
vn 0.6487 0.4835 0.5878
vn 0.7595 -0.4835 0.4353
vn 0.1793 0.4835 0.8568
vn 0.3586 -0.4835 0.7985
vn -0.3586 0.4835 0.7985
vn -0.1793 -0.4835 0.8568
vn -0.7595 0.4835 0.4353
vn -0.6487 -0.4835 0.5878
vn 0.0000 -1.0000 0.0000
vn 0.0000 1.0000 0.0000
f 1//1 3//3 4//4
f 1//1 4//4 2//2
f 3//3 5//5 6//6
f 3//3 6//6 4//4
f 5//5 7//7 8//8
f 5//5 8//8 6//6
f 7//7 9//9 10//10
f 7//7 10//10 8//8
f 9//9 11//11 12//12
f 9//9 12//12 10//10
f 11//11 13//13 14//14
f 11//11 14//14 12//12
f 13//13 15//15 16//16
f 13//13 16//16 14//14
f 15//15 17//17 18//18
f 15//15 18//18 16//16
f 17//17 19//19 20//20
f 17//17 20//20 18//18
f 19//19 21//21 22//22
f 19//19 22//22 20//20
f 21//21 23//23 24//24
f 21//21 24//24 22//22
f 23//23 1//1 2//2
f 23//23 2//2 24//24
f 25//25 2//2 4//4
f 25//25 4//4 6//6
f 25//25 6//6 8//8
f 25//25 8//8 10//10
f 25//25 10//10 12//12
f 25//25 12//12 14//14
f 25//25 14//14 16//16
f 25//25 16//16 18//18
f 25//25 18//18 20//20
f 25//25 20//20 22//22
f 25//25 22//22 24//24
f 25//25 24//24 2//2
f 26//26 3//3 1//1
f 26//26 5//5 3//3
f 26//26 7//7 5//5
f 26//26 9//9 7//7
f 26//26 11//11 9//9
f 26//26 13//13 11//11
f 26//26 15//15 13//13
f 26//26 17//17 15//15
f 26//26 19//19 17//17
f 26//26 21//21 19//19
f 26//26 23//23 21//21
f 26//26 1//1 23//23
f 27//27 29//29 30//30
f 27//27 30//30 28//28
f 29//29 31//31 32//32
f 29//29 32//32 30//30
f 31//31 33//33 34//34
f 31//31 34//34 32//32
f 33//33 35//35 36//36
f 33//33 36//36 34//34
f 35//35 37//37 38//38
f 35//35 38//38 36//36
f 37//37 39//39 40//40
f 37//37 40//40 38//38
f 39//39 41//41 42//42
f 39//39 42//42 40//40
f 41//41 43//43 44//44
f 41//41 44//44 42//42
f 43//43 45//45 46//46
f 43//43 46//46 44//44
f 45//45 47//47 48//48
f 45//45 48//48 46//46
f 47//47 49//49 50//50
f 47//47 50//50 48//48
f 49//49 51//51 52//52
f 49//49 52//52 50//50
f 51//51 53//53 54//54
f 51//51 54//54 52//52
f 53//53 55//55 56//56
f 53//53 56//56 54//54
f 55//55 57//57 58//58
f 55//55 58//58 56//56
f 57//57 27//27 28//28
f 57//57 28//28 58//58
f 59//59 28//28 30//30
f 59//59 30//30 32//32
f 59//59 32//32 34//34
f 59//59 34//34 36//36
f 59//59 36//36 38//38
f 59//59 38//38 40//40
f 59//59 40//40 42//42
f 59//59 42//42 44//44
f 59//59 44//44 46//46
f 59//59 46//46 48//48
f 59//59 48//48 50//50
f 59//59 50//50 52//52
f 59//59 52//52 54//54
f 59//59 54//54 56//56
f 59//59 56//56 58//58
f 59//59 58//58 28//28
f 60//60 29//29 27//27
f 60//60 31//31 29//29
f 60//60 33//33 31//31
f 60//60 35//35 33//33
f 60//60 37//37 35//35
f 60//60 39//39 37//37
f 60//60 41//41 39//39
f 60//60 43//43 41//41
f 60//60 45//45 43//43
f 60//60 47//47 45//45
f 60//60 49//49 47//47
f 60//60 51//51 49//49
f 60//60 53//53 51//51
f 60//60 55//55 53//53
f 60//60 57//57 55//55
f 60//60 27//27 57//57
f 61//61 63//63 64//64
f 61//61 64//64 62//62
f 63//63 65//65 66//66
f 63//63 66//66 64//64
f 65//65 67//67 68//68
f 65//65 68//68 66//66
f 67//67 69//69 70//70
f 67//67 70//70 68//68
f 69//69 71//71 72//72
f 69//69 72//72 70//70
f 71//71 73//73 74//74
f 71//71 74//74 72//72
f 73//73 75//75 76//76
f 73//73 76//76 74//74
f 75//75 77//77 78//78
f 75//75 78//78 76//76
f 77//77 79//79 80//80
f 77//77 80//80 78//78
f 79//79 61//61 62//62
f 79//79 62//62 80//80
f 81//81 62//62 64//64
f 81//81 64//64 66//66
f 81//81 66//66 68//68
f 81//81 68//68 70//70
f 81//81 70//70 72//72
f 81//81 72//72 74//74
f 81//81 74//74 76//76
f 81//81 76//76 78//78
f 81//81 78//78 80//80
f 81//81 80//80 62//62
f 82//82 63//63 61//61
f 82//82 65//65 63//63
f 82//82 67//67 65//65
f 82//82 69//69 67//67
f 82//82 71//71 69//69
f 82//82 73//73 71//71
f 82//82 75//75 73//73
f 82//82 77//77 75//75
f 82//82 79//79 77//77
f 82//82 61//61 79//79
f 83//83 85//85 86//86
f 83//83 86//86 84//84
f 85//85 87//87 88//88
f 85//85 88//88 86//86
f 87//87 89//89 90//90
f 87//87 90//90 88//88
f 89//89 91//91 92//92
f 89//89 92//92 90//90
f 91//91 93//93 94//94
f 91//91 94//94 92//92
f 93//93 95//95 96//96
f 93//93 96//96 94//94
f 95//95 97//97 98//98
f 95//95 98//98 96//96
f 97//97 99//99 100//100
f 97//97 100//100 98//98
f 99//99 101//101 102//102
f 99//99 102//102 100//100
f 101//101 83//83 84//84
f 101//101 84//84 102//102
f 103//103 84//84 86//86
f 103//103 86//86 88//88
f 103//103 88//88 90//90
f 103//103 90//90 92//92
f 103//103 92//92 94//94
f 103//103 94//94 96//96
f 103//103 96//96 98//98
f 103//103 98//98 100//100
f 103//103 100//100 102//102
f 103//103 102//102 84//84
f 104//104 85//85 83//83
f 104//104 87//87 85//85
f 104//104 89//89 87//87
f 104//104 91//91 89//89
f 104//104 93//93 91//91
f 104//104 95//95 93//93
f 104//104 97//97 95//95
f 104//104 99//99 97//97
f 104//104 101//101 99//99
f 104//104 83//83 101//101
