# recipe_scroll.obj - generated by survival_model_gen
# vertices: 42 faces: 76
mtllib survival.mtl
usemtl recipe_scroll
v 0.4800 -0.9200 0.0000
v 0.4800 1.8800 0.0000
v 0.4435 -0.9200 0.1837
v 0.4435 1.8800 0.1837
v 0.3394 -0.9200 0.3394
v 0.3394 1.8800 0.3394
v 0.1837 -0.9200 0.4435
v 0.1837 1.8800 0.4435
v 0.0000 -0.9200 0.4800
v 0.0000 1.8800 0.4800
v -0.1837 -0.9200 0.4435
v -0.1837 1.8800 0.4435
v -0.3394 -0.9200 0.3394
v -0.3394 1.8800 0.3394
v -0.4435 -0.9200 0.1837
v -0.4435 1.8800 0.1837
v -0.4800 -0.9200 0.0000
v -0.4800 1.8800 0.0000
v -0.4435 -0.9200 -0.1837
v -0.4435 1.8800 -0.1837
v -0.3394 -0.9200 -0.3394
v -0.3394 1.8800 -0.3394
v -0.1837 -0.9200 -0.4435
v -0.1837 1.8800 -0.4435
v -0.0000 -0.9200 -0.4800
v -0.0000 1.8800 -0.4800
v 0.1837 -0.9200 -0.4435
v 0.1837 1.8800 -0.4435
v 0.3394 -0.9200 -0.3394
v 0.3394 1.8800 -0.3394
v 0.4435 -0.9200 -0.1837
v 0.4435 1.8800 -0.1837
v 0.0000 1.8800 0.0000
v 0.0000 -0.9200 0.0000
v -0.7200 0.0800 -1.2000
v 0.7200 0.0800 -1.2000
v 0.7200 0.8800 -1.2000
v -0.7200 0.8800 -1.2000
v -0.7200 0.0800 1.2000
v 0.7200 0.0800 1.2000
v 0.7200 0.8800 1.2000
v -0.7200 0.8800 1.2000
vn -0.9914 0.1133 -0.0657
vn -0.9914 -0.1133 0.0657
vn -0.8908 0.1133 -0.4401
vn -0.9411 -0.1133 -0.3187
vn -0.6545 0.1133 -0.7475
vn -0.7475 -0.1133 -0.6545
vn -0.3187 0.1133 -0.9411
vn -0.4401 -0.1133 -0.8908
vn 0.0657 0.1133 -0.9914
vn -0.0657 -0.1133 -0.9914
vn 0.4401 0.1133 -0.8908
vn 0.3187 -0.1133 -0.9411
vn 0.7475 0.1133 -0.6545
vn 0.6545 -0.1133 -0.7475
vn 0.9411 0.1133 -0.3187
vn 0.8908 -0.1133 -0.4401
vn 0.9914 0.1133 0.0657
vn 0.9914 -0.1133 -0.0657
vn 0.8908 0.1133 0.4401
vn 0.9411 -0.1133 0.3187
vn 0.6545 0.1133 0.7475
vn 0.7475 -0.1133 0.6545
vn 0.3187 0.1133 0.9411
vn 0.4401 -0.1133 0.8908
vn -0.0657 0.1133 0.9914
vn 0.0657 -0.1133 0.9914
vn -0.4401 0.1133 0.8908
vn -0.3187 -0.1133 0.9411
vn -0.7475 0.1133 0.6545
vn -0.6545 -0.1133 0.7475
vn -0.9411 0.1133 0.3187
vn -0.8908 -0.1133 0.4401
vn 0.0000 -1.0000 0.0000
vn 0.0000 1.0000 0.0000
vn 0.4196 0.7553 0.5035
vn -0.4806 0.8650 0.1442
vn -0.4196 -0.7553 0.5035
vn 0.4806 -0.8650 0.1442
vn 0.4806 0.8650 -0.1442
vn -0.4196 0.7553 -0.5035
vn -0.4806 -0.8650 -0.1442
vn 0.4196 -0.7553 -0.5035
f 1//1 3//3 4//4
f 1//1 4//4 2//2
f 3//3 5//5 6//6
f 3//3 6//6 4//4
f 5//5 7//7 8//8
f 5//5 8//8 6//6
f 7//7 9//9 10//10
f 7//7 10//10 8//8
f 9//9 11//11 12//12
f 9//9 12//12 10//10
f 11//11 13//13 14//14
f 11//11 14//14 12//12
f 13//13 15//15 16//16
f 13//13 16//16 14//14
f 15//15 17//17 18//18
f 15//15 18//18 16//16
f 17//17 19//19 20//20
f 17//17 20//20 18//18
f 19//19 21//21 22//22
f 19//19 22//22 20//20
f 21//21 23//23 24//24
f 21//21 24//24 22//22
f 23//23 25//25 26//26
f 23//23 26//26 24//24
f 25//25 27//27 28//28
f 25//25 28//28 26//26
f 27//27 29//29 30//30
f 27//27 30//30 28//28
f 29//29 31//31 32//32
f 29//29 32//32 30//30
f 31//31 1//1 2//2
f 31//31 2//2 32//32
f 33//33 2//2 4//4
f 33//33 4//4 6//6
f 33//33 6//6 8//8
f 33//33 8//8 10//10
f 33//33 10//10 12//12
f 33//33 12//12 14//14
f 33//33 14//14 16//16
f 33//33 16//16 18//18
f 33//33 18//18 20//20
f 33//33 20//20 22//22
f 33//33 22//22 24//24
f 33//33 24//24 26//26
f 33//33 26//26 28//28
f 33//33 28//28 30//30
f 33//33 30//30 32//32
f 33//33 32//32 2//2
f 34//34 3//3 1//1
f 34//34 5//5 3//3
f 34//34 7//7 5//5
f 34//34 9//9 7//7
f 34//34 11//11 9//9
f 34//34 13//13 11//11
f 34//34 15//15 13//13
f 34//34 17//17 15//15
f 34//34 19//19 17//17
f 34//34 21//21 19//19
f 34//34 23//23 21//21
f 34//34 25//25 23//23
f 34//34 27//27 25//25
f 34//34 29//29 27//27
f 34//34 31//31 29//29
f 34//34 1//1 31//31
f 35//35 36//36 37//37
f 35//35 37//37 38//38
f 40//40 39//39 42//42
f 40//40 42//42 41//41
f 39//39 35//35 38//38
f 39//39 38//38 42//42
f 36//36 40//40 41//41
f 36//36 41//41 37//37
f 38//38 37//37 41//41
f 38//38 41//41 42//42
f 39//39 40//40 36//36
f 39//39 36//36 35//35
