# road.obj - generated by survival_model_gen
# vertices: 76 faces: 110
mtllib survival.mtl
usemtl road
v -2.2000 0.0400 -2.2000
v 2.2000 0.0400 -2.2000
v 2.2000 0.0400 2.2000
v -2.2000 0.0400 2.2000
v -1.8500 0.0400 -1.8500
v -0.7500 0.0400 -1.8500
v -0.7500 0.1600 -1.8500
v -1.8500 0.1600 -1.8500
v -1.8500 0.0400 -0.7500
v -0.7500 0.0400 -0.7500
v -0.7500 0.1600 -0.7500
v -1.8500 0.1600 -0.7500
v -1.8500 0.0400 -0.5500
v -0.7500 0.0400 -0.5500
v -0.7500 0.1600 -0.5500
v -1.8500 0.1600 -0.5500
v -1.8500 0.0400 0.5500
v -0.7500 0.0400 0.5500
v -0.7500 0.1600 0.5500
v -1.8500 0.1600 0.5500
v -1.8500 0.0400 0.7500
v -0.7500 0.0400 0.7500
v -0.7500 0.1600 0.7500
v -1.8500 0.1600 0.7500
v -1.8500 0.0400 1.8500
v -0.7500 0.0400 1.8500
v -0.7500 0.1600 1.8500
v -1.8500 0.1600 1.8500
v -0.5500 0.0400 -1.8500
v 0.5500 0.0400 -1.8500
v 0.5500 0.1600 -1.8500
v -0.5500 0.1600 -1.8500
v -0.5500 0.0400 -0.7500
v 0.5500 0.0400 -0.7500
v 0.5500 0.1600 -0.7500
v -0.5500 0.1600 -0.7500
v -0.5500 0.0400 -0.5500
v 0.5500 0.0400 -0.5500
v 0.5500 0.1600 -0.5500
v -0.5500 0.1600 -0.5500
v -0.5500 0.0400 0.5500
v 0.5500 0.0400 0.5500
v 0.5500 0.1600 0.5500
v -0.5500 0.1600 0.5500
v -0.5500 0.0400 0.7500
v 0.5500 0.0400 0.7500
v 0.5500 0.1600 0.7500
v -0.5500 0.1600 0.7500
v -0.5500 0.0400 1.8500
v 0.5500 0.0400 1.8500
v 0.5500 0.1600 1.8500
v -0.5500 0.1600 1.8500
v 0.7500 0.0400 -1.8500
v 1.8500 0.0400 -1.8500
v 1.8500 0.1600 -1.8500
v 0.7500 0.1600 -1.8500
v 0.7500 0.0400 -0.7500
v 1.8500 0.0400 -0.7500
v 1.8500 0.1600 -0.7500
v 0.7500 0.1600 -0.7500
v 0.7500 0.0400 -0.5500
v 1.8500 0.0400 -0.5500
v 1.8500 0.1600 -0.5500
v 0.7500 0.1600 -0.5500
v 0.7500 0.0400 0.5500
v 1.8500 0.0400 0.5500
v 1.8500 0.1600 0.5500
v 0.7500 0.1600 0.5500
v 0.7500 0.0400 0.7500
v 1.8500 0.0400 0.7500
v 1.8500 0.1600 0.7500
v 0.7500 0.1600 0.7500
v 0.7500 0.0400 1.8500
v 1.8500 0.0400 1.8500
v 1.8500 0.1600 1.8500
v 0.7500 0.1600 1.8500
vn 0.0000 -1.0000 0.0000
vn 0.0000 -1.0000 0.0000
vn 0.0000 -1.0000 0.0000
vn 0.0000 -1.0000 0.0000
vn 0.1060 0.9715 0.2120
vn -0.1083 0.9926 0.0541
vn -0.1060 -0.9715 0.2120
vn 0.1083 -0.9926 0.0541
vn 0.1083 0.9926 -0.0541
vn -0.1060 0.9715 -0.2120
vn -0.1083 -0.9926 -0.0541
vn 0.1060 -0.9715 -0.2120
vn 0.1060 0.9715 0.2120
vn -0.1083 0.9926 0.0541
vn -0.1060 -0.9715 0.2120
vn 0.1083 -0.9926 0.0541
vn 0.1083 0.9926 -0.0541
vn -0.1060 0.9715 -0.2120
vn -0.1083 -0.9926 -0.0541
vn 0.1060 -0.9715 -0.2120
vn 0.1060 0.9715 0.2120
vn -0.1083 0.9926 0.0541
vn -0.1060 -0.9715 0.2120
vn 0.1083 -0.9926 0.0541
vn 0.1083 0.9926 -0.0541
vn -0.1060 0.9715 -0.2120
vn -0.1083 -0.9926 -0.0541
vn 0.1060 -0.9715 -0.2120
vn 0.1060 0.9715 0.2120
vn -0.1083 0.9926 0.0541
vn -0.1060 -0.9715 0.2120
vn 0.1083 -0.9926 0.0541
vn 0.1083 0.9926 -0.0541
vn -0.1060 0.9715 -0.2120
vn -0.1083 -0.9926 -0.0541
vn 0.1060 -0.9715 -0.2120
vn 0.1060 0.9715 0.2120
vn -0.1083 0.9926 0.0541
vn -0.1060 -0.9715 0.2120
vn 0.1083 -0.9926 0.0541
vn 0.1083 0.9926 -0.0541
vn -0.1060 0.9715 -0.2120
vn -0.1083 -0.9926 -0.0541
vn 0.1060 -0.9715 -0.2120
vn 0.1060 0.9715 0.2120
vn -0.1083 0.9926 0.0541
vn -0.1060 -0.9715 0.2120
vn 0.1083 -0.9926 0.0541
vn 0.1083 0.9926 -0.0541
vn -0.1060 0.9715 -0.2120
vn -0.1083 -0.9926 -0.0541
vn 0.1060 -0.9715 -0.2120
vn 0.1060 0.9715 0.2120
vn -0.1083 0.9926 0.0541
vn -0.1060 -0.9715 0.2120
vn 0.1083 -0.9926 0.0541
vn 0.1083 0.9926 -0.0541
vn -0.1060 0.9715 -0.2120
vn -0.1083 -0.9926 -0.0541
vn 0.1060 -0.9715 -0.2120
vn 0.1060 0.9715 0.2120
vn -0.1083 0.9926 0.0541
vn -0.1060 -0.9715 0.2120
vn 0.1083 -0.9926 0.0541
vn 0.1083 0.9926 -0.0541
vn -0.1060 0.9715 -0.2120
vn -0.1083 -0.9926 -0.0541
vn 0.1060 -0.9715 -0.2120
vn 0.1060 0.9715 0.2120
vn -0.1083 0.9926 0.0541
vn -0.1060 -0.9715 0.2120
vn 0.1083 -0.9926 0.0541
vn 0.1083 0.9926 -0.0541
vn -0.1060 0.9715 -0.2120
vn -0.1083 -0.9926 -0.0541
vn 0.1060 -0.9715 -0.2120
f 1//1 2//2 3//3
f 1//1 3//3 4//4
f 5//5 6//6 7//7
f 5//5 7//7 8//8
f 10//10 9//9 12//12
f 10//10 12//12 11//11
f 9//9 5//5 8//8
f 9//9 8//8 12//12
f 6//6 10//10 11//11
f 6//6 11//11 7//7
f 8//8 7//7 11//11
f 8//8 11//11 12//12
f 9//9 10//10 6//6
f 9//9 6//6 5//5
f 13//13 14//14 15//15
f 13//13 15//15 16//16
f 18//18 17//17 20//20
f 18//18 20//20 19//19
f 17//17 13//13 16//16
f 17//17 16//16 20//20
f 14//14 18//18 19//19
f 14//14 19//19 15//15
f 16//16 15//15 19//19
f 16//16 19//19 20//20
f 17//17 18//18 14//14
f 17//17 14//14 13//13
f 21//21 22//22 23//23
f 21//21 23//23 24//24
f 26//26 25//25 28//28
f 26//26 28//28 27//27
f 25//25 21//21 24//24
f 25//25 24//24 28//28
f 22//22 26//26 27//27
f 22//22 27//27 23//23
f 24//24 23//23 27//27
f 24//24 27//27 28//28
f 25//25 26//26 22//22
f 25//25 22//22 21//21
f 29//29 30//30 31//31
f 29//29 31//31 32//32
f 34//34 33//33 36//36
f 34//34 36//36 35//35
f 33//33 29//29 32//32
f 33//33 32//32 36//36
f 30//30 34//34 35//35
f 30//30 35//35 31//31
f 32//32 31//31 35//35
f 32//32 35//35 36//36
f 33//33 34//34 30//30
f 33//33 30//30 29//29
f 37//37 38//38 39//39
f 37//37 39//39 40//40
f 42//42 41//41 44//44
f 42//42 44//44 43//43
f 41//41 37//37 40//40
f 41//41 40//40 44//44
f 38//38 42//42 43//43
f 38//38 43//43 39//39
f 40//40 39//39 43//43
f 40//40 43//43 44//44
f 41//41 42//42 38//38
f 41//41 38//38 37//37
f 45//45 46//46 47//47
f 45//45 47//47 48//48
f 50//50 49//49 52//52
f 50//50 52//52 51//51
f 49//49 45//45 48//48
f 49//49 48//48 52//52
f 46//46 50//50 51//51
f 46//46 51//51 47//47
f 48//48 47//47 51//51
f 48//48 51//51 52//52
f 49//49 50//50 46//46
f 49//49 46//46 45//45
f 53//53 54//54 55//55
f 53//53 55//55 56//56
f 58//58 57//57 60//60
f 58//58 60//60 59//59
f 57//57 53//53 56//56
f 57//57 56//56 60//60
f 54//54 58//58 59//59
f 54//54 59//59 55//55
f 56//56 55//55 59//59
f 56//56 59//59 60//60
f 57//57 58//58 54//54
f 57//57 54//54 53//53
f 61//61 62//62 63//63
f 61//61 63//63 64//64
f 66//66 65//65 68//68
f 66//66 68//68 67//67
f 65//65 61//61 64//64
f 65//65 64//64 68//68
f 62//62 66//66 67//67
f 62//62 67//67 63//63
f 64//64 63//63 67//67
f 64//64 67//67 68//68
f 65//65 66//66 62//62
f 65//65 62//62 61//61
f 69//69 70//70 71//71
f 69//69 71//71 72//72
f 74//74 73//73 76//76
f 74//74 76//76 75//75
f 73//73 69//69 72//72
f 73//73 72//72 76//76
f 70//70 74//74 75//75
f 70//70 75//75 71//71
f 72//72 71//71 75//75
f 72//72 75//75 76//76
f 73//73 74//74 70//70
f 73//73 70//70 69//69
