# roof.obj - generated by survival_model_gen
# vertices: 6 faces: 8
mtllib survival.mtl
usemtl roof
v -2.4000 0.0000 -2.4000
v 2.4000 0.0000 -2.4000
v -2.4000 0.0000 2.4000
v 2.4000 0.0000 2.4000
v -2.4000 2.2000 0.0000
v 2.4000 2.2000 0.0000
vn 0.1446 -0.9463 0.2891
vn -0.2805 -0.9180 0.2805
vn 0.2039 -0.8900 -0.4079
vn -0.1775 -0.9680 -0.1775
vn 0.4167 -0.9091 0.0000
vn -0.2234 -0.9747 0.0000
f 1//1 2//2 4//4
f 1//1 4//4 3//3
f 1//1 2//2 6//6
f 1//1 6//6 5//5
f 3//3 6//6 4//4
f 3//3 5//5 6//6
f 1//1 5//5 3//3
f 2//2 4//4 6//6
