# seed.obj - generated by survival_model_gen
# vertices: 168 faces: 288
mtllib survival.mtl
usemtl seed
v -0.4000 0.8000 0.0000
v -0.4000 0.8000 0.0000
v -0.4000 0.8000 0.0000
v -0.4000 0.8000 0.0000
v -0.4000 0.8000 0.0000
v -0.4000 0.8000 0.0000
v -0.4000 0.8000 0.0000
v -0.4000 0.8000 0.0000
v -0.2000 0.7464 0.0000
v -0.2586 0.7464 0.1414
v -0.4000 0.7464 0.2000
v -0.5414 0.7464 0.1414
v -0.6000 0.7464 0.0000
v -0.5414 0.7464 -0.1414
v -0.4000 0.7464 -0.2000
v -0.2586 0.7464 -0.1414
v -0.0536 0.6000 0.0000
v -0.1551 0.6000 0.2449
v -0.4000 0.6000 0.3464
v -0.6449 0.6000 0.2449
v -0.7464 0.6000 0.0000
v -0.6449 0.6000 -0.2449
v -0.4000 0.6000 -0.3464
v -0.1551 0.6000 -0.2449
v 0.0000 0.4000 0.0000
v -0.1172 0.4000 0.2828
v -0.4000 0.4000 0.4000
v -0.6828 0.4000 0.2828
v -0.8000 0.4000 0.0000
v -0.6828 0.4000 -0.2828
v -0.4000 0.4000 -0.4000
v -0.1172 0.4000 -0.2828
v -0.0536 0.2000 0.0000
v -0.1551 0.2000 0.2449
v -0.4000 0.2000 0.3464
v -0.6449 0.2000 0.2449
v -0.7464 0.2000 0.0000
v -0.6449 0.2000 -0.2449
v -0.4000 0.2000 -0.3464
v -0.1551 0.2000 -0.2449
v -0.2000 0.0536 0.0000
v -0.2586 0.0536 0.1414
v -0.4000 0.0536 0.2000
v -0.5414 0.0536 0.1414
v -0.6000 0.0536 0.0000
v -0.5414 0.0536 -0.1414
v -0.4000 0.0536 -0.2000
v -0.2586 0.0536 -0.1414
v -0.4000 0.0000 0.0000
v -0.4000 0.0000 0.0000
v -0.4000 0.0000 0.0000
v -0.4000 0.0000 0.0000
v -0.4000 0.0000 0.0000
v -0.4000 0.0000 -0.0000
v -0.4000 0.0000 -0.0000
v -0.4000 0.0000 -0.0000
v 0.4000 0.8000 0.2400
v 0.4000 0.8000 0.2400
v 0.4000 0.8000 0.2400
v 0.4000 0.8000 0.2400
v 0.4000 0.8000 0.2400
v 0.4000 0.8000 0.2400
v 0.4000 0.8000 0.2400
v 0.4000 0.8000 0.2400
v 0.6000 0.7464 0.2400
v 0.5414 0.7464 0.3814
v 0.4000 0.7464 0.4400
v 0.2586 0.7464 0.3814
v 0.2000 0.7464 0.2400
v 0.2586 0.7464 0.0986
v 0.4000 0.7464 0.0400
v 0.5414 0.7464 0.0986
v 0.7464 0.6000 0.2400
v 0.6449 0.6000 0.4849
v 0.4000 0.6000 0.5864
v 0.1551 0.6000 0.4849
v 0.0536 0.6000 0.2400
v 0.1551 0.6000 -0.0049
v 0.4000 0.6000 -0.1064
v 0.6449 0.6000 -0.0049
v 0.8000 0.4000 0.2400
v 0.6828 0.4000 0.5228
v 0.4000 0.4000 0.6400
v 0.1172 0.4000 0.5228
v 0.0000 0.4000 0.2400
v 0.1172 0.4000 -0.0428
v 0.4000 0.4000 -0.1600
v 0.6828 0.4000 -0.0428
v 0.7464 0.2000 0.2400
v 0.6449 0.2000 0.4849
v 0.4000 0.2000 0.5864
v 0.1551 0.2000 0.4849
v 0.0536 0.2000 0.2400
v 0.1551 0.2000 -0.0049
v 0.4000 0.2000 -0.1064
v 0.6449 0.2000 -0.0049
v 0.6000 0.0536 0.2400
v 0.5414 0.0536 0.3814
v 0.4000 0.0536 0.4400
v 0.2586 0.0536 0.3814
v 0.2000 0.0536 0.2400
v 0.2586 0.0536 0.0986
v 0.4000 0.0536 0.0400
v 0.5414 0.0536 0.0986
v 0.4000 0.0000 0.2400
v 0.4000 0.0000 0.2400
v 0.4000 0.0000 0.2400
v 0.4000 0.0000 0.2400
v 0.4000 0.0000 0.2400
v 0.4000 0.0000 0.2400
v 0.4000 0.0000 0.2400
v 0.4000 0.0000 0.2400
v 0.0000 0.8400 -0.3200
v 0.0000 0.8400 -0.3200
v 0.0000 0.8400 -0.3200
v 0.0000 0.8400 -0.3200
v 0.0000 0.8400 -0.3200
v 0.0000 0.8400 -0.3200
v 0.0000 0.8400 -0.3200
v 0.0000 0.8400 -0.3200
v 0.1800 0.7918 -0.3200
v 0.1273 0.7918 -0.1927
v 0.0000 0.7918 -0.1400
v -0.1273 0.7918 -0.1927
v -0.1800 0.7918 -0.3200
v -0.1273 0.7918 -0.4473
v -0.0000 0.7918 -0.5000
v 0.1273 0.7918 -0.4473
v 0.3118 0.6600 -0.3200
v 0.2205 0.6600 -0.0995
v 0.0000 0.6600 -0.0082
v -0.2205 0.6600 -0.0995
v -0.3118 0.6600 -0.3200
v -0.2205 0.6600 -0.5405
v -0.0000 0.6600 -0.6318
v 0.2205 0.6600 -0.5405
v 0.3600 0.4800 -0.3200
v 0.2546 0.4800 -0.0654
v 0.0000 0.4800 0.0400
v -0.2546 0.4800 -0.0654
v -0.3600 0.4800 -0.3200
v -0.2546 0.4800 -0.5746
v -0.0000 0.4800 -0.6800
v 0.2546 0.4800 -0.5746
v 0.3118 0.3000 -0.3200
v 0.2205 0.3000 -0.0995
v 0.0000 0.3000 -0.0082
v -0.2205 0.3000 -0.0995
v -0.3118 0.3000 -0.3200
v -0.2205 0.3000 -0.5405
v -0.0000 0.3000 -0.6318
v 0.2205 0.3000 -0.5405
v 0.1800 0.1682 -0.3200
v 0.1273 0.1682 -0.1927
v 0.0000 0.1682 -0.1400
v -0.1273 0.1682 -0.1927
v -0.1800 0.1682 -0.3200
v -0.1273 0.1682 -0.4473
v -0.0000 0.1682 -0.5000
v 0.1273 0.1682 -0.4473
v 0.0000 0.1200 -0.3200
v 0.0000 0.1200 -0.3200
v 0.0000 0.1200 -0.3200
v -0.0000 0.1200 -0.3200
v -0.0000 0.1200 -0.3200
v -0.0000 0.1200 -0.3200
v -0.0000 0.1200 -0.3200
v 0.0000 0.1200 -0.3200
vn 0.2573 0.9604 0.1066
vn 0.1066 0.9604 0.2573
vn -0.1066 0.9604 0.2573
vn -0.2573 0.9604 0.1066
vn -0.2573 0.9604 -0.1066
vn -0.1066 0.9604 -0.2573
vn 0.1066 0.9604 -0.2573
vn 0.2573 0.9604 -0.1066
vn 0.5659 0.8194 0.0909
vn 0.3358 0.8194 0.4645
vn -0.0909 0.8194 0.5659
vn -0.4645 0.8194 0.3358
vn -0.5659 0.8194 -0.0909
vn -0.3358 0.8194 -0.4645
vn 0.0909 0.8194 -0.5659
vn 0.4645 0.8194 -0.3358
vn 0.8780 0.4758 0.0528
vn 0.5835 0.4758 0.6582
vn -0.0528 0.4758 0.8780
vn -0.6582 0.4758 0.5835
vn -0.8780 0.4758 -0.0528
vn -0.5835 0.4758 -0.6582
vn 0.0528 0.4758 -0.8780
vn 0.6582 0.4758 -0.5835
vn 1.0000 0.0000 -0.0000
vn 0.7071 0.0000 0.7071
vn 0.0000 0.0000 1.0000
vn -0.7071 0.0000 0.7071
vn -1.0000 -0.0000 0.0000
vn -0.7071 0.0000 -0.7071
vn -0.0000 0.0000 -1.0000
vn 0.7071 0.0000 -0.7071
vn 0.8780 -0.4758 -0.0528
vn 0.6582 -0.4758 0.5835
vn 0.0528 -0.4758 0.8780
vn -0.5835 -0.4758 0.6582
vn -0.8780 -0.4758 0.0528
vn -0.6582 -0.4758 -0.5835
vn -0.0528 -0.4758 -0.8780
vn 0.5835 -0.4758 -0.6582
vn 0.5659 -0.8194 -0.0909
vn 0.4645 -0.8194 0.3358
vn 0.0909 -0.8194 0.5659
vn -0.3358 -0.8194 0.4645
vn -0.5659 -0.8194 0.0909
vn -0.4645 -0.8194 -0.3358
vn -0.0909 -0.8194 -0.5659
vn 0.3358 -0.8194 -0.4645
vn 0.2573 -0.9604 -0.1066
vn 0.2573 -0.9604 0.1066
vn 0.1066 -0.9604 0.2573
vn -0.1066 -0.9604 0.2573
vn -0.2573 -0.9604 0.1066
vn -0.2573 -0.9604 -0.1066
vn -0.1066 -0.9604 -0.2573
vn 0.1066 -0.9604 -0.2573
vn 0.0000 1.0000 0.0000
vn 0.0000 1.0000 0.0000
vn 0.0000 1.0000 0.0000
vn 0.0000 1.0000 0.0000
vn 0.0000 1.0000 0.0000
vn 0.0000 1.0000 0.0000
vn 0.0000 1.0000 0.0000
vn 0.0000 1.0000 0.0000
vn 0.0000 1.0000 0.0000
vn 0.0000 1.0000 0.0000
vn 0.0000 1.0000 0.0000
vn 0.0000 1.0000 0.0000
vn 0.0000 1.0000 0.0000
vn 0.0000 1.0000 0.0000
vn 0.0000 1.0000 0.0000
vn 0.0000 1.0000 0.0000
vn 0.0000 1.0000 0.0000
vn 0.0000 1.0000 0.0000
vn 0.0000 1.0000 0.0000
vn 0.0000 1.0000 0.0000
vn 0.0000 1.0000 0.0000
vn 0.0000 1.0000 0.0000
vn 0.0000 1.0000 0.0000
vn 0.0000 1.0000 0.0000
vn 0.0000 1.0000 0.0000
vn 0.0000 1.0000 0.0000
vn 0.0000 1.0000 0.0000
vn 0.0000 1.0000 0.0000
vn 0.0000 1.0000 0.0000
vn 0.0000 1.0000 0.0000
vn 0.0000 1.0000 0.0000
vn 0.0000 1.0000 0.0000
vn 0.0000 1.0000 0.0000
vn 0.0000 1.0000 0.0000
vn 0.0000 1.0000 0.0000
vn 0.0000 1.0000 0.0000
vn 0.0000 1.0000 0.0000
vn 0.0000 1.0000 0.0000
vn 0.0000 1.0000 0.0000
vn 0.0000 1.0000 0.0000
vn 0.0000 1.0000 0.0000
vn 0.0000 1.0000 0.0000
vn 0.0000 1.0000 0.0000
vn 0.0000 1.0000 0.0000
vn 0.0000 1.0000 0.0000
vn 0.0000 1.0000 0.0000
vn 0.0000 1.0000 0.0000
vn 0.0000 1.0000 0.0000
vn 0.0000 1.0000 0.0000
vn 0.0000 1.0000 0.0000
vn 0.0000 1.0000 0.0000
vn 0.0000 1.0000 0.0000
vn 0.0000 1.0000 0.0000
vn 0.0000 1.0000 0.0000
vn 0.0000 1.0000 0.0000
vn 0.0000 1.0000 0.0000
vn 0.0000 1.0000 0.0000
vn 0.0000 1.0000 0.0000
vn 0.0000 1.0000 0.0000
vn 0.0000 1.0000 0.0000
vn 0.0000 1.0000 0.0000
vn 0.0000 1.0000 0.0000
vn 0.0000 1.0000 0.0000
vn 0.0000 1.0000 0.0000
vn 0.0000 1.0000 0.0000
vn 0.0000 1.0000 0.0000
vn 0.0000 1.0000 0.0000
vn 0.0000 1.0000 0.0000
vn 0.0000 1.0000 0.0000
vn 0.0000 1.0000 0.0000
vn 0.0000 1.0000 0.0000
vn 0.0000 1.0000 0.0000
vn 0.0000 1.0000 0.0000
vn 0.0000 1.0000 0.0000
vn 0.0000 1.0000 0.0000
vn 0.0000 1.0000 0.0000
vn 0.0000 1.0000 0.0000
vn 0.0000 1.0000 0.0000
vn 0.0000 1.0000 0.0000
vn 0.0000 1.0000 0.0000
vn 0.0000 1.0000 0.0000
vn 0.0000 1.0000 0.0000
vn 0.0000 1.0000 0.0000
vn 0.0000 1.0000 0.0000
vn 0.0000 1.0000 0.0000
vn 0.0000 1.0000 0.0000
vn 0.0000 1.0000 0.0000
vn 0.0000 1.0000 0.0000
vn 0.0000 1.0000 0.0000
vn 0.0000 1.0000 0.0000
vn 0.0000 1.0000 0.0000
vn 0.0000 1.0000 0.0000
vn 0.0000 1.0000 0.0000
vn 0.0000 1.0000 0.0000
vn 0.0000 1.0000 0.0000
vn 0.0000 1.0000 0.0000
vn 0.0000 1.0000 0.0000
vn 0.0000 1.0000 0.0000
vn 0.0000 1.0000 0.0000
vn 0.0000 1.0000 0.0000
vn 0.0000 1.0000 0.0000
vn 0.0000 1.0000 0.0000
vn 0.0000 1.0000 0.0000
vn 0.0000 1.0000 0.0000
vn 0.0000 1.0000 0.0000
vn 0.0000 1.0000 0.0000
vn 0.0000 1.0000 0.0000
vn 0.0000 1.0000 0.0000
vn 0.0000 1.0000 0.0000
vn 0.0000 1.0000 0.0000
vn 0.0000 1.0000 0.0000
vn 0.0000 1.0000 0.0000
f 1//1 2//2 10//10
f 1//1 10//10 9//9
f 2//2 3//3 11//11
f 2//2 11//11 10//10
f 3//3 4//4 12//12
f 3//3 12//12 11//11
f 4//4 5//5 13//13
f 4//4 13//13 12//12
f 5//5 6//6 14//14
f 5//5 14//14 13//13
f 6//6 7//7 15//15
f 6//6 15//15 14//14
f 7//7 8//8 16//16
f 7//7 16//16 15//15
f 8//8 1//1 9//9
f 8//8 9//9 16//16
f 9//9 10//10 18//18
f 9//9 18//18 17//17
f 10//10 11//11 19//19
f 10//10 19//19 18//18
f 11//11 12//12 20//20
f 11//11 20//20 19//19
f 12//12 13//13 21//21
f 12//12 21//21 20//20
f 13//13 14//14 22//22
f 13//13 22//22 21//21
f 14//14 15//15 23//23
f 14//14 23//23 22//22
f 15//15 16//16 24//24
f 15//15 24//24 23//23
f 16//16 9//9 17//17
f 16//16 17//17 24//24
f 17//17 18//18 26//26
f 17//17 26//26 25//25
f 18//18 19//19 27//27
f 18//18 27//27 26//26
f 19//19 20//20 28//28
f 19//19 28//28 27//27
f 20//20 21//21 29//29
f 20//20 29//29 28//28
f 21//21 22//22 30//30
f 21//21 30//30 29//29
f 22//22 23//23 31//31
f 22//22 31//31 30//30
f 23//23 24//24 32//32
f 23//23 32//32 31//31
f 24//24 17//17 25//25
f 24//24 25//25 32//32
f 25//25 26//26 34//34
f 25//25 34//34 33//33
f 26//26 27//27 35//35
f 26//26 35//35 34//34
f 27//27 28//28 36//36
f 27//27 36//36 35//35
f 28//28 29//29 37//37
f 28//28 37//37 36//36
f 29//29 30//30 38//38
f 29//29 38//38 37//37
f 30//30 31//31 39//39
f 30//30 39//39 38//38
f 31//31 32//32 40//40
f 31//31 40//40 39//39
f 32//32 25//25 33//33
f 32//32 33//33 40//40
f 33//33 34//34 42//42
f 33//33 42//42 41//41
f 34//34 35//35 43//43
f 34//34 43//43 42//42
f 35//35 36//36 44//44
f 35//35 44//44 43//43
f 36//36 37//37 45//45
f 36//36 45//45 44//44
f 37//37 38//38 46//46
f 37//37 46//46 45//45
f 38//38 39//39 47//47
f 38//38 47//47 46//46
f 39//39 40//40 48//48
f 39//39 48//48 47//47
f 40//40 33//33 41//41
f 40//40 41//41 48//48
f 41//41 42//42 50//50
f 41//41 50//50 49//49
f 42//42 43//43 51//51
f 42//42 51//51 50//50
f 43//43 44//44 52//52
f 43//43 52//52 51//51
f 44//44 45//45 53//53
f 44//44 53//53 52//52
f 45//45 46//46 54//54
f 45//45 54//54 53//53
f 46//46 47//47 55//55
f 46//46 55//55 54//54
f 47//47 48//48 56//56
f 47//47 56//56 55//55
f 48//48 41//41 49//49
f 48//48 49//49 56//56
f 1//1 2//2 10//10
f 1//1 10//10 9//9
f 2//2 3//3 11//11
f 2//2 11//11 10//10
f 3//3 4//4 12//12
f 3//3 12//12 11//11
f 4//4 5//5 13//13
f 4//4 13//13 12//12
f 5//5 6//6 14//14
f 5//5 14//14 13//13
f 6//6 7//7 15//15
f 6//6 15//15 14//14
f 7//7 8//8 16//16
f 7//7 16//16 15//15
f 8//8 1//1 9//9
f 8//8 9//9 16//16
f 9//9 10//10 18//18
f 9//9 18//18 17//17
f 10//10 11//11 19//19
f 10//10 19//19 18//18
f 11//11 12//12 20//20
f 11//11 20//20 19//19
f 12//12 13//13 21//21
f 12//12 21//21 20//20
f 13//13 14//14 22//22
f 13//13 22//22 21//21
f 14//14 15//15 23//23
f 14//14 23//23 22//22
f 15//15 16//16 24//24
f 15//15 24//24 23//23
f 16//16 9//9 17//17
f 16//16 17//17 24//24
f 17//17 18//18 26//26
f 17//17 26//26 25//25
f 18//18 19//19 27//27
f 18//18 27//27 26//26
f 19//19 20//20 28//28
f 19//19 28//28 27//27
f 20//20 21//21 29//29
f 20//20 29//29 28//28
f 21//21 22//22 30//30
f 21//21 30//30 29//29
f 22//22 23//23 31//31
f 22//22 31//31 30//30
f 23//23 24//24 32//32
f 23//23 32//32 31//31
f 24//24 17//17 25//25
f 24//24 25//25 32//32
f 25//25 26//26 34//34
f 25//25 34//34 33//33
f 26//26 27//27 35//35
f 26//26 35//35 34//34
f 27//27 28//28 36//36
f 27//27 36//36 35//35
f 28//28 29//29 37//37
f 28//28 37//37 36//36
f 29//29 30//30 38//38
f 29//29 38//38 37//37
f 30//30 31//31 39//39
f 30//30 39//39 38//38
f 31//31 32//32 40//40
f 31//31 40//40 39//39
f 32//32 25//25 33//33
f 32//32 33//33 40//40
f 33//33 34//34 42//42
f 33//33 42//42 41//41
f 34//34 35//35 43//43
f 34//34 43//43 42//42
f 35//35 36//36 44//44
f 35//35 44//44 43//43
f 36//36 37//37 45//45
f 36//36 45//45 44//44
f 37//37 38//38 46//46
f 37//37 46//46 45//45
f 38//38 39//39 47//47
f 38//38 47//47 46//46
f 39//39 40//40 48//48
f 39//39 48//48 47//47
f 40//40 33//33 41//41
f 40//40 41//41 48//48
f 41//41 42//42 50//50
f 41//41 50//50 49//49
f 42//42 43//43 51//51
f 42//42 51//51 50//50
f 43//43 44//44 52//52
f 43//43 52//52 51//51
f 44//44 45//45 53//53
f 44//44 53//53 52//52
f 45//45 46//46 54//54
f 45//45 54//54 53//53
f 46//46 47//47 55//55
f 46//46 55//55 54//54
f 47//47 48//48 56//56
f 47//47 56//56 55//55
f 48//48 41//41 49//49
f 48//48 49//49 56//56
f 1//1 2//2 10//10
f 1//1 10//10 9//9
f 2//2 3//3 11//11
f 2//2 11//11 10//10
f 3//3 4//4 12//12
f 3//3 12//12 11//11
f 4//4 5//5 13//13
f 4//4 13//13 12//12
f 5//5 6//6 14//14
f 5//5 14//14 13//13
f 6//6 7//7 15//15
f 6//6 15//15 14//14
f 7//7 8//8 16//16
f 7//7 16//16 15//15
f 8//8 1//1 9//9
f 8//8 9//9 16//16
f 9//9 10//10 18//18
f 9//9 18//18 17//17
f 10//10 11//11 19//19
f 10//10 19//19 18//18
f 11//11 12//12 20//20
f 11//11 20//20 19//19
f 12//12 13//13 21//21
f 12//12 21//21 20//20
f 13//13 14//14 22//22
f 13//13 22//22 21//21
f 14//14 15//15 23//23
f 14//14 23//23 22//22
f 15//15 16//16 24//24
f 15//15 24//24 23//23
f 16//16 9//9 17//17
f 16//16 17//17 24//24
f 17//17 18//18 26//26
f 17//17 26//26 25//25
f 18//18 19//19 27//27
f 18//18 27//27 26//26
f 19//19 20//20 28//28
f 19//19 28//28 27//27
f 20//20 21//21 29//29
f 20//20 29//29 28//28
f 21//21 22//22 30//30
f 21//21 30//30 29//29
f 22//22 23//23 31//31
f 22//22 31//31 30//30
f 23//23 24//24 32//32
f 23//23 32//32 31//31
f 24//24 17//17 25//25
f 24//24 25//25 32//32
f 25//25 26//26 34//34
f 25//25 34//34 33//33
f 26//26 27//27 35//35
f 26//26 35//35 34//34
f 27//27 28//28 36//36
f 27//27 36//36 35//35
f 28//28 29//29 37//37
f 28//28 37//37 36//36
f 29//29 30//30 38//38
f 29//29 38//38 37//37
f 30//30 31//31 39//39
f 30//30 39//39 38//38
f 31//31 32//32 40//40
f 31//31 40//40 39//39
f 32//32 25//25 33//33
f 32//32 33//33 40//40
f 33//33 34//34 42//42
f 33//33 42//42 41//41
f 34//34 35//35 43//43
f 34//34 43//43 42//42
f 35//35 36//36 44//44
f 35//35 44//44 43//43
f 36//36 37//37 45//45
f 36//36 45//45 44//44
f 37//37 38//38 46//46
f 37//37 46//46 45//45
f 38//38 39//39 47//47
f 38//38 47//47 46//46
f 39//39 40//40 48//48
f 39//39 48//48 47//47
f 40//40 33//33 41//41
f 40//40 41//41 48//48
f 41//41 42//42 50//50
f 41//41 50//50 49//49
f 42//42 43//43 51//51
f 42//42 51//51 50//50
f 43//43 44//44 52//52
f 43//43 52//52 51//51
f 44//44 45//45 53//53
f 44//44 53//53 52//52
f 45//45 46//46 54//54
f 45//45 54//54 53//53
f 46//46 47//47 55//55
f 46//46 55//55 54//54
f 47//47 48//48 56//56
f 47//47 56//56 55//55
f 48//48 41//41 49//49
f 48//48 49//49 56//56
