# shop.obj - generated by survival_model_gen
# vertices: 30 faces: 44
mtllib survival.mtl
usemtl shop
v -1.7000 0.0000 -0.9000
v 1.7000 0.0000 -0.9000
v 1.7000 2.2000 -0.9000
v -1.7000 2.2000 -0.9000
v -1.7000 0.0000 0.9000
v 1.7000 0.0000 0.9000
v 1.7000 2.2000 0.9000
v -1.7000 2.2000 0.9000
v -1.9000 2.1500 -1.1000
v 1.9000 2.1500 -1.1000
v -1.9000 2.1500 1.1000
v 1.9000 2.1500 1.1000
v -1.9000 3.0500 0.0000
v 1.9000 3.0500 0.0000
v -1.3000 0.9500 0.8800
v 1.3000 0.9500 0.8800
v 1.3000 1.6500 0.8800
v -1.3000 1.6500 0.8800
v -1.3000 0.9500 0.9600
v 1.3000 0.9500 0.9600
v 1.3000 1.6500 0.9600
v -1.3000 1.6500 0.9600
v -1.5000 2.1400 -0.8000
v 1.5000 2.1400 -0.8000
v 1.5000 2.2600 -0.8000
v -1.5000 2.2600 -0.8000
v -1.5000 2.1400 0.8000
v 1.5000 2.1400 0.8000
v 1.5000 2.2600 0.8000
v -1.5000 2.2600 0.8000
vn 0.2380 0.3678 0.8990
vn -0.4833 0.7470 0.4565
vn -0.2380 -0.3678 0.8990
vn 0.4833 -0.7470 0.4565
vn 0.4833 0.7470 -0.4565
vn -0.2380 0.3678 -0.8990
vn -0.4833 -0.7470 -0.4565
vn 0.2380 -0.3678 -0.8990
vn 0.0759 -0.9620 0.2624
vn -0.1506 -0.9538 0.2601
vn 0.1090 -0.9200 -0.3764
vn -0.0931 -0.9826 -0.1608
vn 0.2305 -0.9731 0.0000
vn -0.1176 -0.9931 0.0000
vn 0.0154 0.0570 0.9983
vn -0.0599 0.2224 0.9731
vn -0.0154 -0.0570 0.9983
vn 0.0599 -0.2224 0.9731
vn 0.0599 0.2224 -0.9731
vn -0.0154 0.0570 -0.9983
vn -0.0599 -0.2224 -0.9731
vn 0.0154 -0.0570 -0.9983
vn 0.0395 0.9882 0.1482
vn -0.0399 0.9985 0.0374
vn -0.0395 -0.9882 0.1482
vn 0.0399 -0.9985 0.0374
vn 0.0399 0.9985 -0.0374
vn -0.0395 0.9882 -0.1482
vn -0.0399 -0.9985 -0.0374
vn 0.0395 -0.9882 -0.1482
f 1//1 2//2 3//3
f 1//1 3//3 4//4
f 6//6 5//5 8//8
f 6//6 8//8 7//7
f 5//5 1//1 4//4
f 5//5 4//4 8//8
f 2//2 6//6 7//7
f 2//2 7//7 3//3
f 4//4 3//3 7//7
f 4//4 7//7 8//8
f 5//5 6//6 2//2
f 5//5 2//2 1//1
f 9//9 10//10 12//12
f 9//9 12//12 11//11
f 9//9 10//10 14//14
f 9//9 14//14 13//13
f 11//11 14//14 12//12
f 11//11 13//13 14//14
f 9//9 13//13 11//11
f 10//10 12//12 14//14
f 15//15 16//16 17//17
f 15//15 17//17 18//18
f 20//20 19//19 22//22
f 20//20 22//22 21//21
f 19//19 15//15 18//18
f 19//19 18//18 22//22
f 16//16 20//20 21//21
f 16//16 21//21 17//17
f 18//18 17//17 21//21
f 18//18 21//21 22//22
f 19//19 20//20 16//16
f 19//19 16//16 15//15
f 23//23 24//24 25//25
f 23//23 25//25 26//26
f 28//28 27//27 30//30
f 28//28 30//30 29//29
f 27//27 23//23 26//26
f 27//27 26//26 30//30
f 24//24 28//28 29//29
f 24//24 29//29 25//25
f 26//26 25//25 29//29
f 26//26 29//29 30//30
f 27//27 28//28 24//24
f 27//27 24//24 23//23
