# stone.obj - generated by survival_model_gen
# vertices: 24 faces: 36
mtllib survival.mtl
usemtl stone
v -1.8000 0.0000 -1.6000
v 1.8000 0.0000 -1.6000
v 1.8000 2.8800 -1.6000
v -1.8000 2.8800 -1.6000
v -1.8000 0.0000 1.6000
v 1.8000 0.0000 1.6000
v 1.8000 2.8800 1.6000
v -1.8000 2.8800 1.6000
v 0.2400 1.5200 -1.2000
v 1.6800 1.5200 -1.2000
v 1.6800 2.9600 -1.2000
v 0.2400 2.9600 -1.2000
v 0.2400 1.5200 0.2400
v 1.6800 1.5200 0.2400
v 1.6800 2.9600 0.2400
v 0.2400 2.9600 0.2400
v -1.2800 0.4800 0.3200
v -0.3200 0.4800 0.3200
v -0.3200 1.4400 0.3200
v -1.2800 1.4400 0.3200
v -1.2800 0.4800 1.2800
v -0.3200 0.4800 1.2800
v -0.3200 1.4400 1.2800
v -1.2800 1.4400 1.2800
vn 0.3621 0.4527 0.8148
vn -0.5894 0.7367 0.3315
vn -0.3621 -0.4527 0.8148
vn 0.5894 -0.7367 0.3315
vn 0.5894 0.7367 -0.3315
vn -0.3621 0.4527 -0.8148
vn -0.5894 -0.7367 -0.3315
vn 0.3621 -0.4527 -0.8148
vn 0.4082 0.4082 0.8165
vn -0.6667 0.6667 0.3333
vn -0.4082 -0.4082 0.8165
vn 0.6667 -0.6667 0.3333
vn 0.6667 0.6667 -0.3333
vn -0.4082 0.4082 -0.8165
vn -0.6667 -0.6667 -0.3333
vn 0.4082 -0.4082 -0.8165
vn 0.4082 0.4082 0.8165
vn -0.6667 0.6667 0.3333
vn -0.4082 -0.4082 0.8165
vn 0.6667 -0.6667 0.3333
vn 0.6667 0.6667 -0.3333
vn -0.4082 0.4082 -0.8165
vn -0.6667 -0.6667 -0.3333
vn 0.4082 -0.4082 -0.8165
f 1//1 2//2 3//3
f 1//1 3//3 4//4
f 6//6 5//5 8//8
f 6//6 8//8 7//7
f 5//5 1//1 4//4
f 5//5 4//4 8//8
f 2//2 6//6 7//7
f 2//2 7//7 3//3
f 4//4 3//3 7//7
f 4//4 7//7 8//8
f 5//5 6//6 2//2
f 5//5 2//2 1//1
f 9//9 10//10 11//11
f 9//9 11//11 12//12
f 14//14 13//13 16//16
f 14//14 16//16 15//15
f 13//13 9//9 12//12
f 13//13 12//12 16//16
f 10//10 14//14 15//15
f 10//10 15//15 11//11
f 12//12 11//11 15//15
f 12//12 15//15 16//16
f 13//13 14//14 10//10
f 13//13 10//10 9//9
f 17//17 18//18 19//19
f 17//17 19//19 20//20
f 22//22 21//21 24//24
f 22//22 24//24 23//23
f 21//21 17//17 20//20
f 21//21 20//20 24//24
f 18//18 22//22 23//23
f 18//18 23//23 19//19
f 20//20 19//19 23//23
f 20//20 23//23 24//24
f 21//21 22//22 18//18
f 21//21 18//18 17//17
