# turret.obj - generated by survival_model_gen
# vertices: 102 faces: 188
mtllib survival.mtl
usemtl turret
v 0.9000 0.0000 0.0000
v 0.9000 1.4000 0.0000
v 0.8315 0.0000 0.3444
v 0.8315 1.4000 0.3444
v 0.6364 0.0000 0.6364
v 0.6364 1.4000 0.6364
v 0.3444 0.0000 0.8315
v 0.3444 1.4000 0.8315
v 0.0000 0.0000 0.9000
v 0.0000 1.4000 0.9000
v -0.3444 0.0000 0.8315
v -0.3444 1.4000 0.8315
v -0.6364 0.0000 0.6364
v -0.6364 1.4000 0.6364
v -0.8315 0.0000 0.3444
v -0.8315 1.4000 0.3444
v -0.9000 0.0000 0.0000
v -0.9000 1.4000 0.0000
v -0.8315 0.0000 -0.3444
v -0.8315 1.4000 -0.3444
v -0.6364 0.0000 -0.6364
v -0.6364 1.4000 -0.6364
v -0.3444 0.0000 -0.8315
v -0.3444 1.4000 -0.8315
v -0.0000 0.0000 -0.9000
v -0.0000 1.4000 -0.9000
v 0.3444 0.0000 -0.8315
v 0.3444 1.4000 -0.8315
v 0.6364 0.0000 -0.6364
v 0.6364 1.4000 -0.6364
v 0.8315 0.0000 -0.3444
v 0.8315 1.4000 -0.3444
v 0.0000 1.4000 0.0000
v 0.0000 0.0000 0.0000
v -0.6000 1.2100 -0.6000
v 0.6000 1.2100 -0.6000
v 0.6000 1.9100 -0.6000
v -0.6000 1.9100 -0.6000
v -0.6000 1.2100 0.6000
v 0.6000 1.2100 0.6000
v 0.6000 1.9100 0.6000
v -0.6000 1.9100 0.6000
v 0.9000 0.9400 0.0000
v 0.9000 2.3400 0.0000
v 0.8848 0.9400 0.0765
v 0.8848 2.3400 0.0765
v 0.8414 0.9400 0.1414
v 0.8414 2.3400 0.1414
v 0.7765 0.9400 0.1848
v 0.7765 2.3400 0.1848
v 0.7000 0.9400 0.2000
v 0.7000 2.3400 0.2000
v 0.6235 0.9400 0.1848
v 0.6235 2.3400 0.1848
v 0.5586 0.9400 0.1414
v 0.5586 2.3400 0.1414
v 0.5152 0.9400 0.0765
v 0.5152 2.3400 0.0765
v 0.5000 0.9400 0.0000
v 0.5000 2.3400 0.0000
v 0.5152 0.9400 -0.0765
v 0.5152 2.3400 -0.0765
v 0.5586 0.9400 -0.1414
v 0.5586 2.3400 -0.1414
v 0.6235 0.9400 -0.1848
v 0.6235 2.3400 -0.1848
v 0.7000 0.9400 -0.2000
v 0.7000 2.3400 -0.2000
v 0.7765 0.9400 -0.1848
v 0.7765 2.3400 -0.1848
v 0.8414 0.9400 -0.1414
v 0.8414 2.3400 -0.1414
v 0.8848 0.9400 -0.0765
v 0.8848 2.3400 -0.0765
v 0.7000 2.3400 0.0000
v 0.7000 0.9400 0.0000
v 0.3000 1.3600 0.0000
v 0.3000 1.7600 0.0000
v 0.2598 1.3600 0.1500
v 0.2598 1.7600 0.1500
v 0.1500 1.3600 0.2598
v 0.1500 1.7600 0.2598
v 0.0000 1.3600 0.3000
v 0.0000 1.7600 0.3000
v -0.1500 1.3600 0.2598
v -0.1500 1.7600 0.2598
v -0.2598 1.3600 0.1500
v -0.2598 1.7600 0.1500
v -0.3000 1.3600 0.0000
v -0.3000 1.7600 0.0000
v -0.2598 1.3600 -0.1500
v -0.2598 1.7600 -0.1500
v -0.1500 1.3600 -0.2598
v -0.1500 1.7600 -0.2598
v -0.0000 1.3600 -0.3000
v -0.0000 1.7600 -0.3000
v 0.1500 1.3600 -0.2598
v 0.1500 1.7600 -0.2598
v 0.2598 1.3600 -0.1500
v 0.2598 1.7600 -0.1500
v 0.0000 1.7600 0.0000
v 0.0000 1.3600 0.0000
vn -0.9174 0.3932 -0.0608
vn -0.9174 -0.3932 0.0608
vn -0.8243 0.3932 -0.4073
vn -0.8709 -0.3932 -0.2949
vn -0.6057 0.3932 -0.6917
vn -0.6917 -0.3932 -0.6057
vn -0.2949 0.3932 -0.8709
vn -0.4073 -0.3932 -0.8243
vn 0.0608 0.3932 -0.9174
vn -0.0608 -0.3932 -0.9174
vn 0.4073 0.3932 -0.8243
vn 0.2949 -0.3932 -0.8709
vn 0.6917 0.3932 -0.6057
vn 0.6057 -0.3932 -0.6917
vn 0.8709 0.3932 -0.2949
vn 0.8243 -0.3932 -0.4073
vn 0.9174 0.3932 0.0608
vn 0.9174 -0.3932 -0.0608
vn 0.8243 0.3932 0.4073
vn 0.8709 -0.3932 0.2949
vn 0.6057 0.3932 0.6917
vn 0.6917 -0.3932 0.6057
vn 0.2949 0.3932 0.8709
vn 0.4073 -0.3932 0.8243
vn -0.0608 0.3932 0.9174
vn 0.0608 -0.3932 0.9174
vn -0.4073 0.3932 0.8243
vn -0.2949 -0.3932 0.8709
vn -0.6917 0.3932 0.6057
vn -0.6057 -0.3932 0.6917
vn -0.8709 0.3932 0.2949
vn -0.8243 -0.3932 0.4073
vn 0.0000 -1.0000 0.0000
vn 0.0000 1.0000 0.0000
vn 0.3549 0.6084 0.7098
vn -0.4886 0.8376 0.2443
vn -0.3549 -0.6084 0.7098
vn 0.4886 -0.8376 0.2443
vn 0.4886 0.8376 -0.2443
vn -0.3549 0.6084 -0.7098
vn -0.4886 -0.8376 -0.2443
vn 0.3549 -0.6084 -0.7098
vn -0.9933 0.0946 -0.0659
vn -0.9933 -0.0946 0.0659
vn -0.8925 0.0946 -0.4410
vn -0.9429 -0.0946 -0.3193
vn -0.6558 0.0946 -0.7490
vn -0.7490 -0.0946 -0.6558
vn -0.3193 0.0946 -0.9429
vn -0.4410 -0.0946 -0.8925
vn 0.0659 0.0946 -0.9933
vn -0.0659 -0.0946 -0.9933
vn 0.4410 0.0946 -0.8925
vn 0.3193 -0.0946 -0.9429
vn 0.7490 0.0946 -0.6558
vn 0.6558 -0.0946 -0.7490
vn 0.9429 0.0946 -0.3193
vn 0.8925 -0.0946 -0.4410
vn 0.9933 0.0946 0.0659
vn 0.9933 -0.0946 -0.0659
vn 0.8925 0.0946 0.4410
vn 0.9429 -0.0946 0.3193
vn 0.6558 0.0946 0.7490
vn 0.7490 -0.0946 0.6558
vn 0.3193 0.0946 0.9429
vn 0.4410 -0.0946 0.8925
vn -0.0659 0.0946 0.9933
vn 0.0659 -0.0946 0.9933
vn -0.4410 0.0946 0.8925
vn -0.3193 -0.0946 0.9429
vn -0.7490 0.0946 0.6558
vn -0.6558 -0.0946 0.7490
vn -0.9429 0.0946 0.3193
vn -0.8925 -0.0946 0.4410
vn 0.0000 -1.0000 0.0000
vn 0.0000 1.0000 0.0000
vn -0.8916 0.4458 -0.0796
vn -0.8916 -0.4458 0.0796
vn -0.7323 0.4458 -0.5148
vn -0.8120 -0.4458 -0.3768
vn -0.3768 0.4458 -0.8120
vn -0.5148 -0.4458 -0.7323
vn 0.0796 0.4458 -0.8916
vn -0.0796 -0.4458 -0.8916
vn 0.5148 0.4458 -0.7323
vn 0.3768 -0.4458 -0.8120
vn 0.8120 0.4458 -0.3768
vn 0.7323 -0.4458 -0.5148
vn 0.8916 0.4458 0.0796
vn 0.8916 -0.4458 -0.0796
vn 0.7323 0.4458 0.5148
vn 0.8120 -0.4458 0.3768
vn 0.3768 0.4458 0.8120
vn 0.5148 -0.4458 0.7323
vn -0.0796 0.4458 0.8916
vn 0.0796 -0.4458 0.8916
vn -0.5148 0.4458 0.7323
vn -0.3768 -0.4458 0.8120
vn -0.8120 0.4458 0.3768
vn -0.7323 -0.4458 0.5148
vn 0.0000 -1.0000 0.0000
vn 0.0000 1.0000 0.0000
f 1//1 3//3 4//4
f 1//1 4//4 2//2
f 3//3 5//5 6//6
f 3//3 6//6 4//4
f 5//5 7//7 8//8
f 5//5 8//8 6//6
f 7//7 9//9 10//10
f 7//7 10//10 8//8
f 9//9 11//11 12//12
f 9//9 12//12 10//10
f 11//11 13//13 14//14
f 11//11 14//14 12//12
f 13//13 15//15 16//16
f 13//13 16//16 14//14
f 15//15 17//17 18//18
f 15//15 18//18 16//16
f 17//17 19//19 20//20
f 17//17 20//20 18//18
f 19//19 21//21 22//22
f 19//19 22//22 20//20
f 21//21 23//23 24//24
f 21//21 24//24 22//22
f 23//23 25//25 26//26
f 23//23 26//26 24//24
f 25//25 27//27 28//28
f 25//25 28//28 26//26
f 27//27 29//29 30//30
f 27//27 30//30 28//28
f 29//29 31//31 32//32
f 29//29 32//32 30//30
f 31//31 1//1 2//2
f 31//31 2//2 32//32
f 33//33 2//2 4//4
f 33//33 4//4 6//6
f 33//33 6//6 8//8
f 33//33 8//8 10//10
f 33//33 10//10 12//12
f 33//33 12//12 14//14
f 33//33 14//14 16//16
f 33//33 16//16 18//18
f 33//33 18//18 20//20
f 33//33 20//20 22//22
f 33//33 22//22 24//24
f 33//33 24//24 26//26
f 33//33 26//26 28//28
f 33//33 28//28 30//30
f 33//33 30//30 32//32
f 33//33 32//32 2//2
f 34//34 3//3 1//1
f 34//34 5//5 3//3
f 34//34 7//7 5//5
f 34//34 9//9 7//7
f 34//34 11//11 9//9
f 34//34 13//13 11//11
f 34//34 15//15 13//13
f 34//34 17//17 15//15
f 34//34 19//19 17//17
f 34//34 21//21 19//19
f 34//34 23//23 21//21
f 34//34 25//25 23//23
f 34//34 27//27 25//25
f 34//34 29//29 27//27
f 34//34 31//31 29//29
f 34//34 1//1 31//31
f 35//35 36//36 37//37
f 35//35 37//37 38//38
f 40//40 39//39 42//42
f 40//40 42//42 41//41
f 39//39 35//35 38//38
f 39//39 38//38 42//42
f 36//36 40//40 41//41
f 36//36 41//41 37//37
f 38//38 37//37 41//41
f 38//38 41//41 42//42
f 39//39 40//40 36//36
f 39//39 36//36 35//35
f 43//43 45//45 46//46
f 43//43 46//46 44//44
f 45//45 47//47 48//48
f 45//45 48//48 46//46
f 47//47 49//49 50//50
f 47//47 50//50 48//48
f 49//49 51//51 52//52
f 49//49 52//52 50//50
f 51//51 53//53 54//54
f 51//51 54//54 52//52
f 53//53 55//55 56//56
f 53//53 56//56 54//54
f 55//55 57//57 58//58
f 55//55 58//58 56//56
f 57//57 59//59 60//60
f 57//57 60//60 58//58
f 59//59 61//61 62//62
f 59//59 62//62 60//60
f 61//61 63//63 64//64
f 61//61 64//64 62//62
f 63//63 65//65 66//66
f 63//63 66//66 64//64
f 65//65 67//67 68//68
f 65//65 68//68 66//66
f 67//67 69//69 70//70
f 67//67 70//70 68//68
f 69//69 71//71 72//72
f 69//69 72//72 70//70
f 71//71 73//73 74//74
f 71//71 74//74 72//72
f 73//73 43//43 44//44
f 73//73 44//44 74//74
f 75//75 44//44 46//46
f 75//75 46//46 48//48
f 75//75 48//48 50//50
f 75//75 50//50 52//52
f 75//75 52//52 54//54
f 75//75 54//54 56//56
f 75//75 56//56 58//58
f 75//75 58//58 60//60
f 75//75 60//60 62//62
f 75//75 62//62 64//64
f 75//75 64//64 66//66
f 75//75 66//66 68//68
f 75//75 68//68 70//70
f 75//75 70//70 72//72
f 75//75 72//72 74//74
f 75//75 74//74 44//44
f 76//76 45//45 43//43
f 76//76 47//47 45//45
f 76//76 49//49 47//47
f 76//76 51//51 49//49
f 76//76 53//53 51//51
f 76//76 55//55 53//53
f 76//76 57//57 55//55
f 76//76 59//59 57//57
f 76//76 61//61 59//59
f 76//76 63//63 61//61
f 76//76 65//65 63//63
f 76//76 67//67 65//65
f 76//76 69//69 67//67
f 76//76 71//71 69//69
f 76//76 73//73 71//71
f 76//76 43//43 73//73
f 77//77 79//79 80//80
f 77//77 80//80 78//78
f 79//79 81//81 82//82
f 79//79 82//82 80//80
f 81//81 83//83 84//84
f 81//81 84//84 82//82
f 83//83 85//85 86//86
f 83//83 86//86 84//84
f 85//85 87//87 88//88
f 85//85 88//88 86//86
f 87//87 89//89 90//90
f 87//87 90//90 88//88
f 89//89 91//91 92//92
f 89//89 92//92 90//90
f 91//91 93//93 94//94
f 91//91 94//94 92//92
f 93//93 95//95 96//96
f 93//93 96//96 94//94
f 95//95 97//97 98//98
f 95//95 98//98 96//96
f 97//97 99//99 100//100
f 97//97 100//100 98//98
f 99//99 77//77 78//78
f 99//99 78//78 100//100
f 101//101 78//78 80//80
f 101//101 80//80 82//82
f 101//101 82//82 84//84
f 101//101 84//84 86//86
f 101//101 86//86 88//88
f 101//101 88//88 90//90
f 101//101 90//90 92//92
f 101//101 92//92 94//94
f 101//101 94//94 96//96
f 101//101 96//96 98//98
f 101//101 98//98 100//100
f 101//101 100//100 78//78
f 102//102 79//79 77//77
f 102//102 81//81 79//79
f 102//102 83//83 81//81
f 102//102 85//85 83//83
f 102//102 87//87 85//85
f 102//102 89//89 87//87
f 102//102 91//91 89//89
f 102//102 93//93 91//91
f 102//102 95//95 93//93
f 102//102 97//97 95//95
f 102//102 99//99 97//97
f 102//102 77//77 99//99
