# wall.obj - generated by survival_model_gen
# vertices: 16 faces: 24
mtllib survival.mtl
usemtl wall
v -2.0000 0.0000 -0.3500
v 2.0000 0.0000 -0.3500
v 2.0000 4.0000 -0.3500
v -2.0000 4.0000 -0.3500
v -2.0000 0.0000 0.3500
v 2.0000 0.0000 0.3500
v 2.0000 4.0000 0.3500
v -2.0000 4.0000 0.3500
v -2.0500 3.8000 -0.4000
v 2.0500 3.8000 -0.4000
v 2.0500 4.0000 -0.4000
v -2.0500 4.0000 -0.4000
v -2.0500 3.8000 0.4000
v 2.0500 3.8000 0.4000
v 2.0500 4.0000 0.4000
v -2.0500 4.0000 0.4000
vn 0.0868 0.0868 0.9924
vn -0.3137 0.3137 0.8962
vn -0.0868 -0.0868 0.9924
vn 0.3137 -0.3137 0.8962
vn 0.3137 0.3137 -0.8962
vn -0.0868 0.0868 -0.9924
vn -0.3137 -0.3137 -0.8962
vn 0.0868 -0.0868 -0.9924
vn 0.0436 0.8936 0.4468
vn -0.0483 0.9911 0.1239
vn -0.0436 -0.8936 0.4468
vn 0.0483 -0.9911 0.1239
vn 0.0483 0.9911 -0.1239
vn -0.0436 0.8936 -0.4468
vn -0.0483 -0.9911 -0.1239
vn 0.0436 -0.8936 -0.4468
f 1//1 2//2 3//3
f 1//1 3//3 4//4
f 6//6 5//5 8//8
f 6//6 8//8 7//7
f 5//5 1//1 4//4
f 5//5 4//4 8//8
f 2//2 6//6 7//7
f 2//2 7//7 3//3
f 4//4 3//3 7//7
f 4//4 7//7 8//8
f 5//5 6//6 2//2
f 5//5 2//2 1//1
f 9//9 10//10 11//11
f 9//9 11//11 12//12
f 14//14 13//13 16//16
f 14//14 16//16 15//15
f 13//13 9//9 12//12
f 13//13 12//12 16//16
f 10//10 14//14 15//15
f 10//10 15//15 11//11
f 12//12 11//11 15//15
f 12//12 15//15 16//16
f 13//13 14//14 10//10
f 13//13 10//10 9//9
