# water_trough.obj - generated by survival_model_gen
# vertices: 20 faces: 26
mtllib survival.mtl
usemtl water_trough
v -1.4000 0.0000 -0.6000
v 1.4000 0.0000 -0.6000
v 1.4000 0.8800 -0.6000
v -1.4000 0.8800 -0.6000
v -1.4000 0.0000 0.6000
v 1.4000 0.0000 0.6000
v 1.4000 0.8800 0.6000
v -1.4000 0.8800 0.6000
v -1.2000 0.6400 -0.4200
v 1.2000 0.6400 -0.4200
v 1.2000 0.8800 -0.4200
v -1.2000 0.8800 -0.4200
v -1.2000 0.6400 0.4200
v 1.2000 0.6400 0.4200
v 1.2000 0.8800 0.4200
v -1.2000 0.8800 0.4200
v -1.1000 0.8400 -0.3500
v 1.1000 0.8400 -0.3500
v 1.1000 0.8400 0.3500
v -1.1000 0.8400 0.3500
vn 0.1743 0.5547 0.8136
vn -0.2830 0.9005 0.3302
vn -0.1743 -0.5547 0.8136
vn 0.2830 -0.9005 0.3302
vn 0.2830 0.9005 -0.3302
vn -0.1743 0.5547 -0.8136
vn -0.2830 -0.9005 -0.3302
vn 0.1743 -0.5547 -0.8136
vn 0.0865 0.8650 0.4943
vn -0.0985 0.9851 0.1407
vn -0.0865 -0.8650 0.4943
vn 0.0985 -0.9851 0.1407
vn 0.0985 0.9851 -0.1407
vn -0.0865 0.8650 -0.4943
vn -0.0985 -0.9851 -0.1407
vn 0.0865 -0.8650 -0.4943
vn 0.0000 -1.0000 0.0000
vn 0.0000 -1.0000 0.0000
vn 0.0000 -1.0000 0.0000
vn 0.0000 -1.0000 0.0000
f 1//1 2//2 3//3
f 1//1 3//3 4//4
f 6//6 5//5 8//8
f 6//6 8//8 7//7
f 5//5 1//1 4//4
f 5//5 4//4 8//8
f 2//2 6//6 7//7
f 2//2 7//7 3//3
f 4//4 3//3 7//7
f 4//4 7//7 8//8
f 5//5 6//6 2//2
f 5//5 2//2 1//1
f 9//9 10//10 11//11
f 9//9 11//11 12//12
f 14//14 13//13 16//16
f 14//14 16//16 15//15
f 13//13 9//9 12//12
f 13//13 12//12 16//16
f 10//10 14//14 15//15
f 10//10 15//15 11//11
f 12//12 11//11 15//15
f 12//12 15//15 16//16
f 13//13 14//14 10//10
f 13//13 10//10 9//9
f 17//17 18//18 19//19
f 17//17 19//19 20//20
