# wood.obj - generated by survival_model_gen
# vertices: 68 faces: 128
mtllib survival.mtl
usemtl wood
v 1.2000 0.0000 0.0000
v 1.2000 6.4000 0.0000
v 1.1087 0.0000 0.4592
v 1.1087 6.4000 0.4592
v 0.8485 0.0000 0.8485
v 0.8485 6.4000 0.8485
v 0.4592 0.0000 1.1087
v 0.4592 6.4000 1.1087
v 0.0000 0.0000 1.2000
v 0.0000 6.4000 1.2000
v -0.4592 0.0000 1.1087
v -0.4592 6.4000 1.1087
v -0.8485 0.0000 0.8485
v -0.8485 6.4000 0.8485
v -1.1087 0.0000 0.4592
v -1.1087 6.4000 0.4592
v -1.2000 0.0000 0.0000
v -1.2000 6.4000 0.0000
v -1.1087 0.0000 -0.4592
v -1.1087 6.4000 -0.4592
v -0.8485 0.0000 -0.8485
v -0.8485 6.4000 -0.8485
v -0.4592 0.0000 -1.1087
v -0.4592 6.4000 -1.1087
v -0.0000 0.0000 -1.2000
v -0.0000 6.4000 -1.2000
v 0.4592 0.0000 -1.1087
v 0.4592 6.4000 -1.1087
v 0.8485 0.0000 -0.8485
v 0.8485 6.4000 -0.8485
v 1.1087 0.0000 -0.4592
v 1.1087 6.4000 -0.4592
v 0.0000 6.4000 0.0000
v 0.0000 0.0000 0.0000
v 0.9600 -0.0800 0.0000
v 0.9600 6.4800 0.0000
v 0.8869 -0.0800 0.3674
v 0.8869 6.4800 0.3674
v 0.6788 -0.0800 0.6788
v 0.6788 6.4800 0.6788
v 0.3674 -0.0800 0.8869
v 0.3674 6.4800 0.8869
v 0.0000 -0.0800 0.9600
v 0.0000 6.4800 0.9600
v -0.3674 -0.0800 0.8869
v -0.3674 6.4800 0.8869
v -0.6788 -0.0800 0.6788
v -0.6788 6.4800 0.6788
v -0.8869 -0.0800 0.3674
v -0.8869 6.4800 0.3674
v -0.9600 -0.0800 0.0000
v -0.9600 6.4800 0.0000
v -0.8869 -0.0800 -0.3674
v -0.8869 6.4800 -0.3674
v -0.6788 -0.0800 -0.6788
v -0.6788 6.4800 -0.6788
v -0.3674 -0.0800 -0.8869
v -0.3674 6.4800 -0.8869
v -0.0000 -0.0800 -0.9600
v -0.0000 6.4800 -0.9600
v 0.3674 -0.0800 -0.8869
v 0.3674 6.4800 -0.8869
v 0.6788 -0.0800 -0.6788
v 0.6788 6.4800 -0.6788
v 0.8869 -0.0800 -0.3674
v 0.8869 6.4800 -0.3674
v 0.0000 6.4800 0.0000
v 0.0000 -0.0800 0.0000
vn -0.9901 0.1238 -0.0657
vn -0.9901 -0.1238 0.0657
vn -0.8896 0.1238 -0.4396
vn -0.9399 -0.1238 -0.3183
vn -0.6537 0.1238 -0.7466
vn -0.7466 -0.1238 -0.6537
vn -0.3183 0.1238 -0.9399
vn -0.4396 -0.1238 -0.8896
vn 0.0657 0.1238 -0.9901
vn -0.0657 -0.1238 -0.9901
vn 0.4396 0.1238 -0.8896
vn 0.3183 -0.1238 -0.9399
vn 0.7466 0.1238 -0.6537
vn 0.6537 -0.1238 -0.7466
vn 0.9399 0.1238 -0.3183
vn 0.8896 -0.1238 -0.4396
vn 0.9901 0.1238 0.0657
vn 0.9901 -0.1238 -0.0657
vn 0.8896 0.1238 0.4396
vn 0.9399 -0.1238 0.3183
vn 0.6537 0.1238 0.7466
vn 0.7466 -0.1238 0.6537
vn 0.3183 0.1238 0.9399
vn 0.4396 -0.1238 0.8896
vn -0.0657 0.1238 0.9901
vn 0.0657 -0.1238 0.9901
vn -0.4396 0.1238 0.8896
vn -0.3183 -0.1238 0.9399
vn -0.7466 0.1238 0.6537
vn -0.6537 -0.1238 0.7466
vn -0.9399 0.1238 0.3183
vn -0.8896 -0.1238 0.4396
vn 0.0000 -1.0000 0.0000
vn 0.0000 1.0000 0.0000
vn -0.9931 0.0969 -0.0658
vn -0.9931 -0.0969 0.0658
vn -0.8923 0.0969 -0.4409
vn -0.9427 -0.0969 -0.3192
vn -0.6557 0.0969 -0.7488
vn -0.7488 -0.0969 -0.6557
vn -0.3192 0.0969 -0.9427
vn -0.4409 -0.0969 -0.8923
vn 0.0658 0.0969 -0.9931
vn -0.0658 -0.0969 -0.9931
vn 0.4409 0.0969 -0.8923
vn 0.3192 -0.0969 -0.9427
vn 0.7488 0.0969 -0.6557
vn 0.6557 -0.0969 -0.7488
vn 0.9427 0.0969 -0.3192
vn 0.8923 -0.0969 -0.4409
vn 0.9931 0.0969 0.0658
vn 0.9931 -0.0969 -0.0658
vn 0.8923 0.0969 0.4409
vn 0.9427 -0.0969 0.3192
vn 0.6557 0.0969 0.7488
vn 0.7488 -0.0969 0.6557
vn 0.3192 0.0969 0.9427
vn 0.4409 -0.0969 0.8923
vn -0.0658 0.0969 0.9931
vn 0.0658 -0.0969 0.9931
vn -0.4409 0.0969 0.8923
vn -0.3192 -0.0969 0.9427
vn -0.7488 0.0969 0.6557
vn -0.6557 -0.0969 0.7488
vn -0.9427 0.0969 0.3192
vn -0.8923 -0.0969 0.4409
vn 0.0000 -1.0000 0.0000
vn 0.0000 1.0000 0.0000
f 1//1 3//3 4//4
f 1//1 4//4 2//2
f 3//3 5//5 6//6
f 3//3 6//6 4//4
f 5//5 7//7 8//8
f 5//5 8//8 6//6
f 7//7 9//9 10//10
f 7//7 10//10 8//8
f 9//9 11//11 12//12
f 9//9 12//12 10//10
f 11//11 13//13 14//14
f 11//11 14//14 12//12
f 13//13 15//15 16//16
f 13//13 16//16 14//14
f 15//15 17//17 18//18
f 15//15 18//18 16//16
f 17//17 19//19 20//20
f 17//17 20//20 18//18
f 19//19 21//21 22//22
f 19//19 22//22 20//20
f 21//21 23//23 24//24
f 21//21 24//24 22//22
f 23//23 25//25 26//26
f 23//23 26//26 24//24
f 25//25 27//27 28//28
f 25//25 28//28 26//26
f 27//27 29//29 30//30
f 27//27 30//30 28//28
f 29//29 31//31 32//32
f 29//29 32//32 30//30
f 31//31 1//1 2//2
f 31//31 2//2 32//32
f 33//33 2//2 4//4
f 33//33 4//4 6//6
f 33//33 6//6 8//8
f 33//33 8//8 10//10
f 33//33 10//10 12//12
f 33//33 12//12 14//14
f 33//33 14//14 16//16
f 33//33 16//16 18//18
f 33//33 18//18 20//20
f 33//33 20//20 22//22
f 33//33 22//22 24//24
f 33//33 24//24 26//26
f 33//33 26//26 28//28
f 33//33 28//28 30//30
f 33//33 30//30 32//32
f 33//33 32//32 2//2
f 34//34 3//3 1//1
f 34//34 5//5 3//3
f 34//34 7//7 5//5
f 34//34 9//9 7//7
f 34//34 11//11 9//9
f 34//34 13//13 11//11
f 34//34 15//15 13//13
f 34//34 17//17 15//15
f 34//34 19//19 17//17
f 34//34 21//21 19//19
f 34//34 23//23 21//21
f 34//34 25//25 23//23
f 34//34 27//27 25//25
f 34//34 29//29 27//27
f 34//34 31//31 29//29
f 34//34 1//1 31//31
f 35//35 37//37 38//38
f 35//35 38//38 36//36
f 37//37 39//39 40//40
f 37//37 40//40 38//38
f 39//39 41//41 42//42
f 39//39 42//42 40//40
f 41//41 43//43 44//44
f 41//41 44//44 42//42
f 43//43 45//45 46//46
f 43//43 46//46 44//44
f 45//45 47//47 48//48
f 45//45 48//48 46//46
f 47//47 49//49 50//50
f 47//47 50//50 48//48
f 49//49 51//51 52//52
f 49//49 52//52 50//50
f 51//51 53//53 54//54
f 51//51 54//54 52//52
f 53//53 55//55 56//56
f 53//53 56//56 54//54
f 55//55 57//57 58//58
f 55//55 58//58 56//56
f 57//57 59//59 60//60
f 57//57 60//60 58//58
f 59//59 61//61 62//62
f 59//59 62//62 60//60
f 61//61 63//63 64//64
f 61//61 64//64 62//62
f 63//63 65//65 66//66
f 63//63 66//66 64//64
f 65//65 35//35 36//36
f 65//65 36//36 66//66
f 67//67 36//36 38//38
f 67//67 38//38 40//40
f 67//67 40//40 42//42
f 67//67 42//42 44//44
f 67//67 44//44 46//46
f 67//67 46//46 48//48
f 67//67 48//48 50//50
f 67//67 50//50 52//52
f 67//67 52//52 54//54
f 67//67 54//54 56//56
f 67//67 56//56 58//58
f 67//67 58//58 60//60
f 67//67 60//60 62//62
f 67//67 62//62 64//64
f 67//67 64//64 66//66
f 67//67 66//66 36//36
f 68//68 37//37 35//35
f 68//68 39//39 37//37
f 68//68 41//41 39//39
f 68//68 43//43 41//41
f 68//68 45//45 43//43
f 68//68 47//47 45//45
f 68//68 49//49 47//47
f 68//68 51//51 49//49
f 68//68 53//53 51//51
f 68//68 55//55 53//53
f 68//68 57//57 55//55
f 68//68 59//59 57//57
f 68//68 61//61 59//59
f 68//68 63//63 61//61
f 68//68 65//65 63//63
f 68//68 35//35 65//65
