# workbench.obj - generated by survival_model_gen
# vertices: 74 faces: 116
mtllib survival.mtl
usemtl workbench
v -1.4000 0.8800 -0.8000
v 1.4000 0.8800 -0.8000
v 1.4000 1.1200 -0.8000
v -1.4000 1.1200 -0.8000
v -1.4000 0.8800 0.8000
v 1.4000 0.8800 0.8000
v 1.4000 1.1200 0.8000
v -1.4000 1.1200 0.8000
v -1.3200 0.0000 -0.7200
v -1.0800 0.0000 -0.7200
v -1.0800 1.0000 -0.7200
v -1.3200 1.0000 -0.7200
v -1.3200 0.0000 -0.4800
v -1.0800 0.0000 -0.4800
v -1.0800 1.0000 -0.4800
v -1.3200 1.0000 -0.4800
v 1.0800 0.0000 -0.7200
v 1.3200 0.0000 -0.7200
v 1.3200 1.0000 -0.7200
v 1.0800 1.0000 -0.7200
v 1.0800 0.0000 -0.4800
v 1.3200 0.0000 -0.4800
v 1.3200 1.0000 -0.4800
v 1.0800 1.0000 -0.4800
v -1.3200 0.0000 0.4800
v -1.0800 0.0000 0.4800
v -1.0800 1.0000 0.4800
v -1.3200 1.0000 0.4800
v -1.3200 0.0000 0.7200
v -1.0800 0.0000 0.7200
v -1.0800 1.0000 0.7200
v -1.3200 1.0000 0.7200
v 1.0800 0.0000 0.4800
v 1.3200 0.0000 0.4800
v 1.3200 1.0000 0.4800
v 1.0800 1.0000 0.4800
v 1.0800 0.0000 0.7200
v 1.3200 0.0000 0.7200
v 1.3200 1.0000 0.7200
v 1.0800 1.0000 0.7200
v -0.9500 1.0800 -0.1800
v -0.4500 1.0800 -0.1800
v -0.4500 1.3200 -0.1800
v -0.9500 1.3200 -0.1800
v -0.9500 1.0800 0.1800
v -0.4500 1.0800 0.1800
v -0.4500 1.3200 0.1800
v -0.9500 1.3200 0.1800
v 0.3200 1.1000 0.1200
v 0.6800 1.1000 0.1200
v 0.6800 1.3000 0.1200
v 0.3200 1.3000 0.1200
v 0.3200 1.1000 0.3600
v 0.6800 1.1000 0.3600
v 0.6800 1.3000 0.3600
v 0.3200 1.3000 0.3600
v 0.8800 1.0100 -0.3000
v 0.8800 1.3100 -0.3000
v 0.8566 1.0100 -0.2434
v 0.8566 1.3100 -0.2434
v 0.8000 1.0100 -0.2200
v 0.8000 1.3100 -0.2200
v 0.7434 1.0100 -0.2434
v 0.7434 1.3100 -0.2434
v 0.7200 1.0100 -0.3000
v 0.7200 1.3100 -0.3000
v 0.7434 1.0100 -0.3566
v 0.7434 1.3100 -0.3566
v 0.8000 1.0100 -0.3800
v 0.8000 1.3100 -0.3800
v 0.8566 1.0100 -0.3566
v 0.8566 1.3100 -0.3566
v 0.8000 1.3100 -0.3000
v 0.8000 1.0100 -0.3000
vn 0.0818 0.9546 0.2864
vn -0.0852 0.9936 0.0745
vn -0.0818 -0.9546 0.2864
vn 0.0852 -0.9936 0.0745
vn 0.0852 0.9936 -0.0745
vn -0.0818 0.9546 -0.2864
vn -0.0852 -0.9936 -0.0745
vn 0.0818 -0.9546 -0.2864
vn 0.4447 0.1067 0.8893
vn -0.8745 0.2099 0.4373
vn -0.4447 -0.1067 0.8893
vn 0.8745 -0.2099 0.4373
vn 0.8745 0.2099 -0.4373
vn -0.4447 0.1067 -0.8893
vn -0.8745 -0.2099 -0.4373
vn 0.4447 -0.1067 -0.8893
vn 0.4447 0.1067 0.8893
vn -0.8745 0.2099 0.4373
vn -0.4447 -0.1067 0.8893
vn 0.8745 -0.2099 0.4373
vn 0.8745 0.2099 -0.4373
vn -0.4447 0.1067 -0.8893
vn -0.8745 -0.2099 -0.4373
vn 0.4447 -0.1067 -0.8893
vn 0.4447 0.1067 0.8893
vn -0.8745 0.2099 0.4373
vn -0.4447 -0.1067 0.8893
vn 0.8745 -0.2099 0.4373
vn 0.8745 0.2099 -0.4373
vn -0.4447 0.1067 -0.8893
vn -0.8745 -0.2099 -0.4373
vn 0.4447 -0.1067 -0.8893
vn 0.4447 0.1067 0.8893
vn -0.8745 0.2099 0.4373
vn -0.4447 -0.1067 0.8893
vn 0.8745 -0.2099 0.4373
vn 0.8745 0.2099 -0.4373
vn -0.4447 0.1067 -0.8893
vn -0.8745 -0.2099 -0.4373
vn 0.4447 -0.1067 -0.8893
vn 0.2768 0.5766 0.7688
vn -0.4144 0.8634 0.2878
vn -0.2768 -0.5766 0.7688
vn 0.4144 -0.8634 0.2878
vn 0.4144 0.8634 -0.2878
vn -0.2768 0.5766 -0.7688
vn -0.4144 -0.8634 -0.2878
vn 0.2768 -0.5766 -0.7688
vn 0.2748 0.4947 0.8245
vn -0.4563 0.8214 0.3422
vn -0.2748 -0.4947 0.8245
vn 0.4563 -0.8214 0.3422
vn 0.4563 0.8214 -0.3422
vn -0.2748 0.4947 -0.8245
vn -0.4563 -0.8214 -0.3422
vn 0.2748 -0.4947 -0.8245
vn -0.9756 0.1734 -0.1347
vn -0.9756 -0.1734 0.1347
vn -0.5946 0.1734 -0.7851
vn -0.7851 -0.1734 -0.5946
vn 0.1347 0.1734 -0.9756
vn -0.1347 -0.1734 -0.9756
vn 0.7851 0.1734 -0.5946
vn 0.5946 -0.1734 -0.7851
vn 0.9756 0.1734 0.1347
vn 0.9756 -0.1734 -0.1347
vn 0.5946 0.1734 0.7851
vn 0.7851 -0.1734 0.5946
vn -0.1347 0.1734 0.9756
vn 0.1347 -0.1734 0.9756
vn -0.7851 0.1734 0.5946
vn -0.5946 -0.1734 0.7851
vn 0.0000 -1.0000 0.0000
vn 0.0000 1.0000 0.0000
f 1//1 2//2 3//3
f 1//1 3//3 4//4
f 6//6 5//5 8//8
f 6//6 8//8 7//7
f 5//5 1//1 4//4
f 5//5 4//4 8//8
f 2//2 6//6 7//7
f 2//2 7//7 3//3
f 4//4 3//3 7//7
f 4//4 7//7 8//8
f 5//5 6//6 2//2
f 5//5 2//2 1//1
f 9//9 10//10 11//11
f 9//9 11//11 12//12
f 14//14 13//13 16//16
f 14//14 16//16 15//15
f 13//13 9//9 12//12
f 13//13 12//12 16//16
f 10//10 14//14 15//15
f 10//10 15//15 11//11
f 12//12 11//11 15//15
f 12//12 15//15 16//16
f 13//13 14//14 10//10
f 13//13 10//10 9//9
f 17//17 18//18 19//19
f 17//17 19//19 20//20
f 22//22 21//21 24//24
f 22//22 24//24 23//23
f 21//21 17//17 20//20
f 21//21 20//20 24//24
f 18//18 22//22 23//23
f 18//18 23//23 19//19
f 20//20 19//19 23//23
f 20//20 23//23 24//24
f 21//21 22//22 18//18
f 21//21 18//18 17//17
f 25//25 26//26 27//27
f 25//25 27//27 28//28
f 30//30 29//29 32//32
f 30//30 32//32 31//31
f 29//29 25//25 28//28
f 29//29 28//28 32//32
f 26//26 30//30 31//31
f 26//26 31//31 27//27
f 28//28 27//27 31//31
f 28//28 31//31 32//32
f 29//29 30//30 26//26
f 29//29 26//26 25//25
f 33//33 34//34 35//35
f 33//33 35//35 36//36
f 38//38 37//37 40//40
f 38//38 40//40 39//39
f 37//37 33//33 36//36
f 37//37 36//36 40//40
f 34//34 38//38 39//39
f 34//34 39//39 35//35
f 36//36 35//35 39//39
f 36//36 39//39 40//40
f 37//37 38//38 34//34
f 37//37 34//34 33//33
f 41//41 42//42 43//43
f 41//41 43//43 44//44
f 46//46 45//45 48//48
f 46//46 48//48 47//47
f 45//45 41//41 44//44
f 45//45 44//44 48//48
f 42//42 46//46 47//47
f 42//42 47//47 43//43
f 44//44 43//43 47//47
f 44//44 47//47 48//48
f 45//45 46//46 42//42
f 45//45 42//42 41//41
f 49//49 50//50 51//51
f 49//49 51//51 52//52
f 54//54 53//53 56//56
f 54//54 56//56 55//55
f 53//53 49//49 52//52
f 53//53 52//52 56//56
f 50//50 54//54 55//55
f 50//50 55//55 51//51
f 52//52 51//51 55//55
f 52//52 55//55 56//56
f 53//53 54//54 50//50
f 53//53 50//50 49//49
f 57//57 59//59 60//60
f 57//57 60//60 58//58
f 59//59 61//61 62//62
f 59//59 62//62 60//60
f 61//61 63//63 64//64
f 61//61 64//64 62//62
f 63//63 65//65 66//66
f 63//63 66//66 64//64
f 65//65 67//67 68//68
f 65//65 68//68 66//66
f 67//67 69//69 70//70
f 67//67 70//70 68//68
f 69//69 71//71 72//72
f 69//69 72//72 70//70
f 71//71 57//57 58//58
f 71//71 58//58 72//72
f 73//73 58//58 60//60
f 73//73 60//60 62//62
f 73//73 62//62 64//64
f 73//73 64//64 66//66
f 73//73 66//66 68//68
f 73//73 68//68 70//70
f 73//73 70//70 72//72
f 73//73 72//72 58//58
f 74//74 59//59 57//57
f 74//74 61//61 59//59
f 74//74 63//63 61//61
f 74//74 65//65 63//63
f 74//74 67//67 65//65
f 74//74 69//69 67//67
f 74//74 71//71 69//69
f 74//74 57//57 71//71
